<mxfile host="app.diagrams.net" modified="2021-03-29T15:24:23.358Z" agent="5.0 (Macintosh; Intel Mac OS X 10_15_6) AppleWebKit/605.1.15 (KHTML, like Gecko) Version/14.0.3 Safari/605.1.15" etag="bn9ae_L3Wz5lmcK7ktTK" version="14.4.9" type="github">
  <diagram id="prtHgNgQTEPvFCAcTncT" name="Page-1">
    <mxGraphModel dx="2507" dy="993" grid="1" gridSize="10" guides="1" tooltips="1" connect="1" arrows="1" fold="1" page="1" pageScale="1" pageWidth="827" pageHeight="1169" math="0" shadow="0">
      <root>
        <mxCell id="0" />
        <mxCell id="1" parent="0" />
        <mxCell id="dNxyNK7c78bLwvsdeMH5-11" value="Orgchart" style="swimlane;html=1;startSize=20;horizontal=1;containerType=tree;glass=0;" parent="1" vertex="1">
          <mxGeometry x="40" y="80" width="710" height="290" as="geometry" />
        </mxCell>
        <UserObject label="%name%&lt;br&gt;&lt;i style=&quot;color: gray&quot;&gt;%position%&lt;/i&gt;&lt;br&gt;&lt;a href=&quot;mailto:%email%&quot;&gt;Email&lt;/a&gt;" name="Tessa Miller" position="CFO" location="Office 1" email="me@example.com" placeholders="1" link="https://www.draw.io" id="dNxyNK7c78bLwvsdeMH5-12">
          <mxCell style="label;image=https://cdn3.iconfinder.com/data/icons/user-avatars-1/512/users-3-128.png;whiteSpace=wrap;html=1;rounded=0;glass=0;treeMoving=1;treeFolding=1;" parent="dNxyNK7c78bLwvsdeMH5-11" vertex="1">
            <mxGeometry x="260" y="50" width="180" height="70" as="geometry" />
          </mxCell>
        </UserObject>
        <mxCell id="dNxyNK7c78bLwvsdeMH5-13" value="" style="endArrow=blockThin;endFill=1;fontSize=11;edgeStyle=elbowEdgeStyle;elbow=vertical;rounded=0;" parent="dNxyNK7c78bLwvsdeMH5-11" source="dNxyNK7c78bLwvsdeMH5-12" target="dNxyNK7c78bLwvsdeMH5-14" edge="1">
          <mxGeometry relative="1" as="geometry" />
        </mxCell>
        <UserObject label="%name%&lt;br&gt;&lt;i style=&quot;color: gray&quot;&gt;%position%&lt;/i&gt;&lt;br&gt;&lt;a href=&quot;mailto:%email%&quot;&gt;Email&lt;/a&gt;" name="Edward Morrison" position="Brand Manager" location="Office 2" email="me@example.com" placeholders="1" link="https://www.draw.io" id="dNxyNK7c78bLwvsdeMH5-14">
          <mxCell style="label;image=https://cdn3.iconfinder.com/data/icons/user-avatars-1/512/users-10-3-128.png;whiteSpace=wrap;html=1;rounded=0;glass=0;treeFolding=1;treeMoving=1;" parent="dNxyNK7c78bLwvsdeMH5-11" vertex="1">
            <mxGeometry x="40" y="180" width="180" height="80" as="geometry" />
          </mxCell>
        </UserObject>
        <mxCell id="dNxyNK7c78bLwvsdeMH5-15" value="" style="endArrow=blockThin;endFill=1;fontSize=11;edgeStyle=elbowEdgeStyle;elbow=vertical;rounded=0;" parent="dNxyNK7c78bLwvsdeMH5-11" source="dNxyNK7c78bLwvsdeMH5-12" target="dNxyNK7c78bLwvsdeMH5-16" edge="1">
          <mxGeometry relative="1" as="geometry" />
        </mxCell>
        <UserObject label="%name%&lt;br&gt;&lt;i style=&quot;color: gray&quot;&gt;%position%&lt;/i&gt;&lt;br&gt;&lt;a href=&quot;mailto:%email%&quot;&gt;Email&lt;/a&gt;" name="Evan Valet" position="HR Director" location="Office 4" email="me@example.com" placeholders="1" link="https://www.draw.io" id="dNxyNK7c78bLwvsdeMH5-16">
          <mxCell style="label;image=https://cdn3.iconfinder.com/data/icons/user-avatars-1/512/users-9-2-128.png;whiteSpace=wrap;html=1;rounded=0;glass=0;treeFolding=1;treeMoving=1;" parent="dNxyNK7c78bLwvsdeMH5-11" vertex="1">
            <mxGeometry x="260" y="180" width="180" height="80" as="geometry" />
          </mxCell>
        </UserObject>
        <mxCell id="dNxyNK7c78bLwvsdeMH5-17" value="" style="endArrow=blockThin;endFill=1;fontSize=11;edgeStyle=elbowEdgeStyle;elbow=vertical;rounded=0;" parent="dNxyNK7c78bLwvsdeMH5-11" source="dNxyNK7c78bLwvsdeMH5-12" target="dNxyNK7c78bLwvsdeMH5-18" edge="1">
          <mxGeometry relative="1" as="geometry" />
        </mxCell>
        <UserObject label="%name%&lt;br&gt;&lt;i style=&quot;color: gray&quot;&gt;%position%&lt;/i&gt;&lt;br&gt;&lt;a href=&quot;mailto:%email%&quot;&gt;Email&lt;/a&gt;" name="Alison Donovan" position="System Admin" location="Office 3" email="me@example.com" placeholders="1" link="https://www.draw.io" id="dNxyNK7c78bLwvsdeMH5-18">
          <mxCell style="label;image=https://cdn3.iconfinder.com/data/icons/user-avatars-1/512/users-2-128.png;whiteSpace=wrap;html=1;rounded=0;glass=0;" parent="dNxyNK7c78bLwvsdeMH5-11" vertex="1">
            <mxGeometry x="490" y="180" width="180" height="80" as="geometry" />
          </mxCell>
        </UserObject>
        <mxCell id="sG3O2WjBqksO7i2uvCF_-1" value="&lt;font style=&quot;font-size: 20px&quot;&gt;1&lt;/font&gt;" style="rounded=1;whiteSpace=wrap;html=1;rotation=30;strokeColor=#9673a6;fillColor=#E6D0DE;" parent="1" vertex="1">
          <mxGeometry x="120" y="680" width="120" height="60" as="geometry" />
        </mxCell>
        <mxCell id="sG3O2WjBqksO7i2uvCF_-3" value="&lt;font style=&quot;font-size: 20px&quot;&gt;2&lt;/font&gt;" style="rounded=1;whiteSpace=wrap;html=1;rotation=15;strokeColor=#9673a6;fillColor=#E6D0DE;" parent="1" vertex="1">
          <mxGeometry x="284" y="630" width="120" height="60" as="geometry" />
        </mxCell>
        <mxCell id="sG3O2WjBqksO7i2uvCF_-4" value="&lt;font style=&quot;font-size: 20px&quot;&gt;3&lt;/font&gt;" style="rounded=1;whiteSpace=wrap;html=1;rotation=-85;strokeColor=#9673a6;fillColor=#E6D0DE;" parent="1" vertex="1">
          <mxGeometry x="200" y="800" width="120" height="60" as="geometry" />
        </mxCell>
        <mxCell id="sG3O2WjBqksO7i2uvCF_-5" value="" style="endArrow=none;html=1;strokeWidth=5;" parent="1" edge="1">
          <mxGeometry width="50" height="50" relative="1" as="geometry">
            <mxPoint x="80" y="920" as="sourcePoint" />
            <mxPoint x="80" y="560" as="targetPoint" />
          </mxGeometry>
        </mxCell>
        <mxCell id="sG3O2WjBqksO7i2uvCF_-6" value="" style="endArrow=none;html=1;strokeWidth=5;" parent="1" edge="1">
          <mxGeometry width="50" height="50" relative="1" as="geometry">
            <mxPoint x="440" y="920" as="sourcePoint" />
            <mxPoint x="440" y="560" as="targetPoint" />
          </mxGeometry>
        </mxCell>
        <mxCell id="sG3O2WjBqksO7i2uvCF_-8" value="&lt;font style=&quot;font-size: 20px&quot;&gt;1&lt;/font&gt;" style="rounded=1;whiteSpace=wrap;html=1;strokeColor=#9673a6;fillColor=#E6D0DE;" parent="1" vertex="1">
          <mxGeometry x="550" y="710" width="120" height="60" as="geometry" />
        </mxCell>
        <mxCell id="sG3O2WjBqksO7i2uvCF_-9" value="&lt;font style=&quot;font-size: 20px&quot;&gt;2&lt;/font&gt;" style="rounded=1;whiteSpace=wrap;html=1;strokeColor=#9673a6;fillColor=#E6D0DE;" parent="1" vertex="1">
          <mxGeometry x="670" y="710" width="120" height="60" as="geometry" />
        </mxCell>
        <mxCell id="sG3O2WjBqksO7i2uvCF_-10" value="&lt;font style=&quot;font-size: 20px&quot;&gt;3&lt;/font&gt;" style="rounded=1;whiteSpace=wrap;html=1;strokeColor=#9673a6;fillColor=#E6D0DE;" parent="1" vertex="1">
          <mxGeometry x="790" y="710" width="120" height="60" as="geometry" />
        </mxCell>
        <mxCell id="sG3O2WjBqksO7i2uvCF_-11" value="" style="endArrow=none;html=1;strokeWidth=5;" parent="1" edge="1">
          <mxGeometry width="50" height="50" relative="1" as="geometry">
            <mxPoint x="550" y="920" as="sourcePoint" />
            <mxPoint x="550" y="560" as="targetPoint" />
          </mxGeometry>
        </mxCell>
        <mxCell id="sG3O2WjBqksO7i2uvCF_-12" value="" style="endArrow=none;html=1;strokeWidth=5;" parent="1" edge="1">
          <mxGeometry width="50" height="50" relative="1" as="geometry">
            <mxPoint x="910" y="920" as="sourcePoint" />
            <mxPoint x="910" y="560" as="targetPoint" />
          </mxGeometry>
        </mxCell>
        <mxCell id="sG3O2WjBqksO7i2uvCF_-13" value="" style="curved=1;endArrow=classic;html=1;entryX=0;entryY=0.5;entryDx=0;entryDy=0;exitX=1;exitY=0.5;exitDx=0;exitDy=0;dashed=1;" parent="1" source="sG3O2WjBqksO7i2uvCF_-1" target="sG3O2WjBqksO7i2uvCF_-3" edge="1">
          <mxGeometry width="50" height="50" relative="1" as="geometry">
            <mxPoint x="240" y="740" as="sourcePoint" />
            <mxPoint x="290" y="690" as="targetPoint" />
            <Array as="points">
              <mxPoint x="290" y="740" />
              <mxPoint x="240" y="690" />
            </Array>
          </mxGeometry>
        </mxCell>
        <mxCell id="sG3O2WjBqksO7i2uvCF_-14" value="" style="curved=1;endArrow=classic;html=1;dashed=1;exitX=1;exitY=0.5;exitDx=0;exitDy=0;entryX=1;entryY=0.5;entryDx=0;entryDy=0;" parent="1" source="sG3O2WjBqksO7i2uvCF_-3" target="sG3O2WjBqksO7i2uvCF_-4" edge="1">
          <mxGeometry width="50" height="50" relative="1" as="geometry">
            <mxPoint x="340" y="770" as="sourcePoint" />
            <mxPoint x="390" y="720" as="targetPoint" />
            <Array as="points">
              <mxPoint x="390" y="770" />
              <mxPoint x="340" y="720" />
            </Array>
          </mxGeometry>
        </mxCell>
        <mxCell id="sG3O2WjBqksO7i2uvCF_-17" value="" style="curved=1;endArrow=classic;html=1;dashed=1;exitX=0;exitY=0.5;exitDx=0;exitDy=0;" parent="1" source="sG3O2WjBqksO7i2uvCF_-4" edge="1">
          <mxGeometry width="50" height="50" relative="1" as="geometry">
            <mxPoint x="300" y="890" as="sourcePoint" />
            <mxPoint x="440" y="750" as="targetPoint" />
            <Array as="points">
              <mxPoint x="350" y="890" />
              <mxPoint x="300" y="840" />
            </Array>
          </mxGeometry>
        </mxCell>
        <mxCell id="i-2yB-q4deBWTwHz-fkO-3" value="路径规划-多机器人路径规划" style="rounded=0;whiteSpace=wrap;html=1;" parent="1" vertex="1">
          <mxGeometry x="990" y="280" width="120" height="60" as="geometry" />
        </mxCell>
        <mxCell id="i-2yB-q4deBWTwHz-fkO-4" value="重构组装-多机器人运动规划" style="rounded=0;whiteSpace=wrap;html=1;" parent="1" vertex="1">
          <mxGeometry x="990" y="170" width="120" height="60" as="geometry" />
        </mxCell>
        <mxCell id="i-2yB-q4deBWTwHz-fkO-5" value="" style="endArrow=classic;html=1;exitX=0.5;exitY=1;exitDx=0;exitDy=0;entryX=0.5;entryY=0;entryDx=0;entryDy=0;" parent="1" source="i-2yB-q4deBWTwHz-fkO-4" target="i-2yB-q4deBWTwHz-fkO-3" edge="1">
          <mxGeometry width="50" height="50" relative="1" as="geometry">
            <mxPoint x="1020" y="360" as="sourcePoint" />
            <mxPoint x="1070" y="310" as="targetPoint" />
          </mxGeometry>
        </mxCell>
        <mxCell id="R-p-HZD9Jhe1TzLBUQ3K-1" value="控制器" style="rounded=1;whiteSpace=wrap;html=1;" parent="1" vertex="1">
          <mxGeometry x="1180" y="432.75" width="120" height="60" as="geometry" />
        </mxCell>
        <mxCell id="R-p-HZD9Jhe1TzLBUQ3K-2" value="可重构海上平台" style="rounded=1;whiteSpace=wrap;html=1;" parent="1" vertex="1">
          <mxGeometry x="1180" y="582.75" width="120" height="60" as="geometry" />
        </mxCell>
        <mxCell id="R-p-HZD9Jhe1TzLBUQ3K-3" value="反应器" style="rounded=0;whiteSpace=wrap;html=1;" parent="1" vertex="1">
          <mxGeometry x="1210" y="521.75" width="60" height="25.5" as="geometry" />
        </mxCell>
        <mxCell id="R-p-HZD9Jhe1TzLBUQ3K-7" style="edgeStyle=orthogonalEdgeStyle;rounded=0;orthogonalLoop=1;jettySize=auto;html=1;exitX=0;exitY=0.5;exitDx=0;exitDy=0;entryX=0;entryY=0.75;entryDx=0;entryDy=0;" parent="1" source="R-p-HZD9Jhe1TzLBUQ3K-4" target="R-p-HZD9Jhe1TzLBUQ3K-1" edge="1">
          <mxGeometry relative="1" as="geometry">
            <Array as="points">
              <mxPoint x="1130" y="685.75" />
              <mxPoint x="1130" y="477.75" />
            </Array>
          </mxGeometry>
        </mxCell>
        <mxCell id="R-p-HZD9Jhe1TzLBUQ3K-4" value="状态估计" style="rounded=0;whiteSpace=wrap;html=1;" parent="1" vertex="1">
          <mxGeometry x="1210" y="672.75" width="60" height="25.5" as="geometry" />
        </mxCell>
        <mxCell id="R-p-HZD9Jhe1TzLBUQ3K-5" value="" style="endArrow=classic;html=1;" parent="1" edge="1">
          <mxGeometry width="50" height="50" relative="1" as="geometry">
            <mxPoint x="1130" y="452.75" as="sourcePoint" />
            <mxPoint x="1180" y="452.75" as="targetPoint" />
          </mxGeometry>
        </mxCell>
        <mxCell id="R-p-HZD9Jhe1TzLBUQ3K-14" value="" style="endArrow=classic;html=1;entryX=1;entryY=0.5;entryDx=0;entryDy=0;exitX=1;exitY=0.5;exitDx=0;exitDy=0;rounded=0;" parent="1" source="R-p-HZD9Jhe1TzLBUQ3K-1" target="R-p-HZD9Jhe1TzLBUQ3K-4" edge="1">
          <mxGeometry width="50" height="50" relative="1" as="geometry">
            <mxPoint x="1350" y="685.75" as="sourcePoint" />
            <mxPoint x="1340" y="682.75" as="targetPoint" />
            <Array as="points">
              <mxPoint x="1340" y="462.75" />
              <mxPoint x="1340" y="685.75" />
            </Array>
          </mxGeometry>
        </mxCell>
        <mxCell id="R-p-HZD9Jhe1TzLBUQ3K-15" value="" style="endArrow=classic;html=1;entryX=0.5;entryY=0;entryDx=0;entryDy=0;rounded=0;" parent="1" target="R-p-HZD9Jhe1TzLBUQ3K-3" edge="1">
          <mxGeometry width="50" height="50" relative="1" as="geometry">
            <mxPoint x="1340" y="502.75" as="sourcePoint" />
            <mxPoint x="1320" y="522.75" as="targetPoint" />
            <Array as="points">
              <mxPoint x="1240" y="502.75" />
            </Array>
          </mxGeometry>
        </mxCell>
        <mxCell id="R-p-HZD9Jhe1TzLBUQ3K-16" value="" style="endArrow=classic;html=1;exitX=0.5;exitY=1;exitDx=0;exitDy=0;entryX=0.5;entryY=0;entryDx=0;entryDy=0;" parent="1" source="R-p-HZD9Jhe1TzLBUQ3K-3" target="R-p-HZD9Jhe1TzLBUQ3K-2" edge="1">
          <mxGeometry width="50" height="50" relative="1" as="geometry">
            <mxPoint x="1240" y="622.75" as="sourcePoint" />
            <mxPoint x="1290" y="572.75" as="targetPoint" />
          </mxGeometry>
        </mxCell>
        <mxCell id="R-p-HZD9Jhe1TzLBUQ3K-17" value="" style="endArrow=classic;html=1;exitX=0.5;exitY=1;exitDx=0;exitDy=0;entryX=0.5;entryY=0;entryDx=0;entryDy=0;" parent="1" source="R-p-HZD9Jhe1TzLBUQ3K-2" target="R-p-HZD9Jhe1TzLBUQ3K-4" edge="1">
          <mxGeometry width="50" height="50" relative="1" as="geometry">
            <mxPoint x="1240" y="622.75" as="sourcePoint" />
            <mxPoint x="1290" y="572.75" as="targetPoint" />
          </mxGeometry>
        </mxCell>
        <mxCell id="R-p-HZD9Jhe1TzLBUQ3K-21" value="测量输出" style="edgeLabel;html=1;align=center;verticalAlign=middle;resizable=0;points=[];" parent="R-p-HZD9Jhe1TzLBUQ3K-17" vertex="1" connectable="0">
          <mxGeometry x="-0.2961" y="1" relative="1" as="geometry">
            <mxPoint x="24" as="offset" />
          </mxGeometry>
        </mxCell>
        <mxCell id="R-p-HZD9Jhe1TzLBUQ3K-18" value="期望轨迹" style="text;html=1;align=center;verticalAlign=middle;resizable=0;points=[];autosize=1;" parent="1" vertex="1">
          <mxGeometry x="1120" y="432.75" width="60" height="20" as="geometry" />
        </mxCell>
        <mxCell id="R-p-HZD9Jhe1TzLBUQ3K-19" value="控制信号" style="text;html=1;align=center;verticalAlign=middle;resizable=0;points=[];autosize=1;" parent="1" vertex="1">
          <mxGeometry x="1270" y="501.75" width="60" height="20" as="geometry" />
        </mxCell>
        <mxCell id="R-p-HZD9Jhe1TzLBUQ3K-20" value="控制力" style="text;html=1;align=center;verticalAlign=middle;resizable=0;points=[];autosize=1;" parent="1" vertex="1">
          <mxGeometry x="1240" y="552.75" width="50" height="20" as="geometry" />
        </mxCell>
        <mxCell id="R-p-HZD9Jhe1TzLBUQ3K-22" value="估计量" style="text;html=1;align=center;verticalAlign=middle;resizable=0;points=[];autosize=1;" parent="1" vertex="1">
          <mxGeometry x="1135" y="662.75" width="50" height="20" as="geometry" />
        </mxCell>
        <mxCell id="R-p-HZD9Jhe1TzLBUQ3K-28" style="edgeStyle=orthogonalEdgeStyle;rounded=0;orthogonalLoop=1;jettySize=auto;html=1;exitX=0.5;exitY=1;exitDx=0;exitDy=0;entryX=0.5;entryY=0;entryDx=0;entryDy=0;" parent="1" source="R-p-HZD9Jhe1TzLBUQ3K-23" target="R-p-HZD9Jhe1TzLBUQ3K-24" edge="1">
          <mxGeometry relative="1" as="geometry" />
        </mxCell>
        <mxCell id="R-p-HZD9Jhe1TzLBUQ3K-23" value="重构规划" style="rounded=1;whiteSpace=wrap;html=1;" parent="1" vertex="1">
          <mxGeometry x="1185" y="812.75" width="120" height="60" as="geometry" />
        </mxCell>
        <mxCell id="R-p-HZD9Jhe1TzLBUQ3K-24" value="路径规划" style="rounded=1;whiteSpace=wrap;html=1;" parent="1" vertex="1">
          <mxGeometry x="1185" y="922.75" width="120" height="60" as="geometry" />
        </mxCell>
        <mxCell id="R-p-HZD9Jhe1TzLBUQ3K-25" value="" style="endArrow=classic;html=1;entryX=0.5;entryY=0;entryDx=0;entryDy=0;" parent="1" target="R-p-HZD9Jhe1TzLBUQ3K-23" edge="1">
          <mxGeometry width="50" height="50" relative="1" as="geometry">
            <mxPoint x="1245" y="762.75" as="sourcePoint" />
            <mxPoint x="1270" y="712.75" as="targetPoint" />
          </mxGeometry>
        </mxCell>
        <mxCell id="R-p-HZD9Jhe1TzLBUQ3K-26" value="期望模块排列" style="edgeLabel;html=1;align=center;verticalAlign=middle;resizable=0;points=[];" parent="R-p-HZD9Jhe1TzLBUQ3K-25" vertex="1" connectable="0">
          <mxGeometry x="0.3879" relative="1" as="geometry">
            <mxPoint x="35" y="-14.48" as="offset" />
          </mxGeometry>
        </mxCell>
        <mxCell id="R-p-HZD9Jhe1TzLBUQ3K-27" value="" style="endArrow=classic;html=1;" parent="1" edge="1">
          <mxGeometry width="50" height="50" relative="1" as="geometry">
            <mxPoint x="1244.66" y="982.75" as="sourcePoint" />
            <mxPoint x="1245" y="1012.75" as="targetPoint" />
          </mxGeometry>
        </mxCell>
        <mxCell id="R-p-HZD9Jhe1TzLBUQ3K-29" value="路径" style="text;html=1;align=center;verticalAlign=middle;resizable=0;points=[];autosize=1;" parent="1" vertex="1">
          <mxGeometry x="1240" y="982.75" width="40" height="20" as="geometry" />
        </mxCell>
        <mxCell id="R-p-HZD9Jhe1TzLBUQ3K-31" value="组装顺序及位置" style="text;html=1;align=center;verticalAlign=middle;resizable=0;points=[];autosize=1;" parent="1" vertex="1">
          <mxGeometry x="1240" y="882.75" width="100" height="20" as="geometry" />
        </mxCell>
        <mxCell id="2xGK_H68lSbaieEeZG-w-8" value="&lt;font style=&quot;font-size: 20px&quot;&gt;1&lt;/font&gt;" style="rounded=1;whiteSpace=wrap;html=1;rotation=0;strokeColor=#9673a6;fillColor=#E6D0DE;" parent="1" vertex="1">
          <mxGeometry x="770" y="1320" width="120" height="60" as="geometry" />
        </mxCell>
        <mxCell id="2xGK_H68lSbaieEeZG-w-9" value="&lt;font style=&quot;font-size: 20px&quot;&gt;2&lt;/font&gt;" style="rounded=1;whiteSpace=wrap;html=1;rotation=0;strokeColor=#9673a6;fillColor=#E6D0DE;" parent="1" vertex="1">
          <mxGeometry x="890" y="1320" width="120" height="60" as="geometry" />
        </mxCell>
        <mxCell id="2xGK_H68lSbaieEeZG-w-10" value="&lt;font style=&quot;font-size: 20px&quot;&gt;3&lt;/font&gt;" style="rounded=1;whiteSpace=wrap;html=1;rotation=0;strokeColor=#9673a6;fillColor=#E6D0DE;" parent="1" vertex="1">
          <mxGeometry x="770" y="1380" width="120" height="60" as="geometry" />
        </mxCell>
        <mxCell id="2xGK_H68lSbaieEeZG-w-11" value="&lt;font style=&quot;font-size: 20px&quot;&gt;4&lt;/font&gt;" style="rounded=1;whiteSpace=wrap;html=1;rotation=0;strokeColor=#9673a6;fillColor=#E6D0DE;" parent="1" vertex="1">
          <mxGeometry x="890" y="1380" width="120" height="60" as="geometry" />
        </mxCell>
        <mxCell id="2xGK_H68lSbaieEeZG-w-12" value="" style="shape=trapezoid;perimeter=trapezoidPerimeter;whiteSpace=wrap;html=1;fixedSize=1;fillColor=#f5f5f5;rotation=-90;strokeColor=#666666;fontColor=#333333;" parent="1" vertex="1">
          <mxGeometry x="732" y="1337.5" width="50" height="25" as="geometry" />
        </mxCell>
        <mxCell id="2xGK_H68lSbaieEeZG-w-13" value="" style="shape=trapezoid;perimeter=trapezoidPerimeter;whiteSpace=wrap;html=1;fixedSize=1;fillColor=#f5f5f5;rotation=-90;strokeColor=#666666;fontColor=#333333;" parent="1" vertex="1">
          <mxGeometry x="732" y="1397.5" width="50" height="25" as="geometry" />
        </mxCell>
        <mxCell id="2xGK_H68lSbaieEeZG-w-14" value="&lt;font style=&quot;font-size: 20px&quot;&gt;1&lt;/font&gt;" style="rounded=1;whiteSpace=wrap;html=1;rotation=-45;strokeColor=#9673a6;fillColor=#E6D0DE;" parent="1" vertex="1">
          <mxGeometry x="1120" y="1250" width="120" height="60" as="geometry" />
        </mxCell>
        <mxCell id="2xGK_H68lSbaieEeZG-w-15" value="" style="shape=trapezoid;perimeter=trapezoidPerimeter;whiteSpace=wrap;html=1;fixedSize=1;fillColor=#f5f5f5;rotation=-135;strokeColor=#666666;fontColor=#333333;" parent="1" vertex="1">
          <mxGeometry x="1103" y="1319" width="50" height="25" as="geometry" />
        </mxCell>
        <mxCell id="2xGK_H68lSbaieEeZG-w-16" value="&lt;font style=&quot;font-size: 20px&quot;&gt;3&lt;/font&gt;" style="rounded=1;whiteSpace=wrap;html=1;rotation=0;strokeColor=#9673a6;fillColor=#E6D0DE;" parent="1" vertex="1">
          <mxGeometry x="1141" y="1397.5" width="120" height="60" as="geometry" />
        </mxCell>
        <mxCell id="2xGK_H68lSbaieEeZG-w-17" value="" style="shape=trapezoid;perimeter=trapezoidPerimeter;whiteSpace=wrap;html=1;fixedSize=1;fillColor=#f5f5f5;rotation=-90;strokeColor=#666666;fontColor=#333333;" parent="1" vertex="1">
          <mxGeometry x="1103" y="1415" width="50" height="25" as="geometry" />
        </mxCell>
        <mxCell id="2xGK_H68lSbaieEeZG-w-18" value="&lt;font style=&quot;font-size: 20px&quot;&gt;2&lt;/font&gt;" style="rounded=1;whiteSpace=wrap;html=1;rotation=45;strokeColor=#9673a6;fillColor=#E6D0DE;" parent="1" vertex="1">
          <mxGeometry x="1309" y="1277.5" width="120" height="60" as="geometry" />
        </mxCell>
        <mxCell id="2xGK_H68lSbaieEeZG-w-19" value="" style="shape=trapezoid;perimeter=trapezoidPerimeter;whiteSpace=wrap;html=1;fixedSize=1;fillColor=#f5f5f5;rotation=-45;strokeColor=#666666;fontColor=#333333;" parent="1" vertex="1">
          <mxGeometry x="1292" y="1244" width="50" height="25" as="geometry" />
        </mxCell>
        <mxCell id="2xGK_H68lSbaieEeZG-w-21" value="&lt;font style=&quot;font-size: 20px&quot;&gt;4&lt;/font&gt;" style="rounded=1;whiteSpace=wrap;html=1;rotation=0;strokeColor=#9673a6;fillColor=#E6D0DE;" parent="1" vertex="1">
          <mxGeometry x="1360" y="1380" width="120" height="60" as="geometry" />
        </mxCell>
        <mxCell id="2xGK_H68lSbaieEeZG-w-22" value="" style="shape=trapezoid;perimeter=trapezoidPerimeter;whiteSpace=wrap;html=1;fixedSize=1;fillColor=#f5f5f5;rotation=-90;strokeColor=#666666;fontColor=#333333;" parent="1" vertex="1">
          <mxGeometry x="1322" y="1397.5" width="50" height="25" as="geometry" />
        </mxCell>
        <mxCell id="2xGK_H68lSbaieEeZG-w-23" value="" style="shape=flexArrow;endArrow=classic;startArrow=classic;html=1;strokeWidth=2;" parent="1" edge="1">
          <mxGeometry width="50" height="50" relative="1" as="geometry">
            <mxPoint x="1030" y="1378.82" as="sourcePoint" />
            <mxPoint x="1110" y="1378.82" as="targetPoint" />
          </mxGeometry>
        </mxCell>
        <mxCell id="2xGK_H68lSbaieEeZG-w-24" value="" style="shape=flexArrow;endArrow=classic;startArrow=classic;html=1;strokeWidth=2;" parent="1" edge="1">
          <mxGeometry width="50" height="50" relative="1" as="geometry">
            <mxPoint x="454" y="735.4999999999998" as="sourcePoint" />
            <mxPoint x="534" y="735.4999999999998" as="targetPoint" />
          </mxGeometry>
        </mxCell>
        <mxCell id="hO4Qf1rNJJDb-_p562cl-2" value="" style="shape=image;verticalLabelPosition=bottom;labelBackgroundColor=#ffffff;verticalAlign=top;aspect=fixed;imageAspect=0;image=data:image/png,iVBORw0KGgoAAAANSUhEUgAAALkAAAC9CAYAAADvPNxKAAAAAXNSR0IArs4c6QAAAERlWElmTU0AKgAAAAgAAYdpAAQAAAABAAAAGgAAAAAAA6ABAAMAAAABAAEAAKACAAQAAAABAAAAuaADAAQAAAABAAAAvQAAAABJe1caAABAAElEQVR4Aey9B4BcZ3X3fab32ZnZ2d5Xq1WzJFsNy1XuLabGFFMSCDhAIMD7JkDeBCKS0EMgAUxC6JgQ7IRmjDFgW8ZFtmTZslUsrcpqe53Z6b18v3PXso2BLzFaCxLutVczO3vn3uee5zyn/E95RMzDpIBJAZMCJgVMCpgUMClgUsCkgEkBkwImBUwKmBQwKWBSwKSASQGTAiYFTAqYFDApYFLApIBJAZMCJgVMCpgUMClgUsCkgEkBkwImBUwKmBQwKWBSwKSASQGTAiYFTAqYFDApYFLApIBJAZMCJgVMCpgUMClgUsCkgEkBkwImBUwKmBQwKWBSwKSASQGTAiYFTAqYFDApYFLApIBJAZMCJgVMCpgUMClgUsCkgEkBkwImBUwKmBQwKWBSwKSASQGTAiYFTAqYFDApYFLApIBJAZMCJgVMCpgUMClgUsCkgEkBkwImBUwKmBQwKWBSwKSASQGTAiYFTAqYFDApYFLApIBJAZMCJgVMCpgUMClgUsCkgEkBkwImBUwKmBQwKWBSwKSASQGTAiYFTAqYFDApYFLApIBJAZMCJgVMCpgUMClgUsCkgEkBkwImBUwKmBQwKWBSwKSASQGTAiYFTAqYFDApYFLApIBJAZMCJgVMCpgUeM4UsD3nbyzBF175ysvar718fdvms9fmHnzwYOUtb7imv24NZqampmpLcHnzEiYFfo4Clp/77Xn65YbXXNFWqhbXi8VtrdXK3lq1/uq5+cRgZ0fjrV6Xe3g2Fn+1x+vc0djcsNPh9h/5yEduOvo8DcW87O8gBZ53Jn/9689vSswWPul0eK6Ym52z+v1ei9PlC8/NTYvHaS8FQ/783HyhoVBOFxobw5mNG1f9s8VR+tvt228p/Q7Oh/nIzwMF7M/DNX/+knl7v91qu+jY8aFoa0u7FEtFsdnq0t/fLk6nw1kpFp2FXFFesH6T+557drtsVovXtFl+noTmb6dGAeupff2//rbTXY07Pc7hdWtXS6ChQQrFosSTC7KwkBKrzSZ2j0ecdqtkM0kJBAKSzRf/64uaZ5gUeA4UeN6Z/F++8rMjxXzxu3PxWDGTSklrc7usXTMo2VRNxsemZXwkJh6/T9xenyQyWdn10EFZvXrNc3gE81STAv//FHj+zRXu73I7Jiv5enk+NuWyWutSxtpeiE3L5lXrpFioysz4rBRKZfH7gpyNLWMeJgWWkALPuyTXsc6nFn40Pxf7caVqqcDEtUy6IMGGqExPzZZm5mbL+XxJqlWLJBfSFqvF2jd6UJTbzcOkwJJQ4LTg5Bs2bCsV0vOZzs6Owy632+KwO/q83sDhSrVyo9Ts+wuVYke0uaPscHpKbo//rIqt+tDu3XufWJInNC/yO0+B02Ku3HLLLdXt2+WHImt/HB8v1Mv10rZ61Tna6fd94c6dE3Nnn332tz0ej72rx7V+Phb/SClf9v7Oz4xJgCWjwGmR5DraHTukvrqp2TO3kHrNxMzIurnZbE86k6v32oL3/Ost3zv2wAMPD2/eskEmJ2ev9wcDt+3Zs/fxJXtK80K/0xQ4LTb5SQrX3E5vppgMNnibra3NIXu1Uu3OuopPSe1MJlMvV0rV+YXYaVt8J8dmvv7vpcBpZfKLCw0xt9Mzls4VqolUtuJy2UZvuWNn/Gnyeh5x2Z0fBD0fffoz851JgVOjwGmVmL0X9JyTzpf/yuV0hJ0Om83usLRdevG6nQ/tPjqpj7Fnz57aeRds2/21r910/NQey/y2SYGnKXBaHM+Tt7PUbe6Wxgafy2GXXC4vNZs1YBeH6+Tf9fXzn/98+Zm//za+v+661zeJTIvfPyATicOWLrul8sVb7niGRnp61Ne+alu0WChZxZ/J/vjrj2ef/ov57nRR4LSaK7lqtV6tV+rlagXWdojUa/V0IX+6nnVJ7vPKl209K5//0b9YStVvxea//++uquvm8azrg1dddRWM//PH5S/f8uJCJfcVi732LWsl8NdXX3fOmT9/hvnb6aDAaZXklWpRCPZIvlwUH3kqBamKo3o6HvPU73HddVv6MgXXeps1tGne9qKrfG3/4c4s/K30VW8Wh6RCgXBr8Lrr1iQzrd0W/7S/npCxK08cG/lwJBpcqc88NT67raO7+8pLXrzxqxapnbDYrVaPx2kMrFqqSrFYqOVrtp33f//RyVdfta6z4qhtqVZdtrqtfvg/v/+IiTSdwhSeViZfnNG6uOo2SWWzUqpVSbf1nMLwT89XL7vsrPajJ+b/vuaxXuKulxxSeMAdmZiSlGWvFOoZmUlme4+PPvxuh8uSnjzwkCXg9zocDs9VwVDDAJ6HuN0uibSESGEoriUI9oF8LlVxiM0Sj2VJcaiKz++Gyetlh0Nec9XrrypX5qc/Sm7DNdVKVhw2/76XXbH+zf95x2MHTs/T/u+7y2lmcm5nr0u1VpcSJstcfF5cbW2/9VS1WKpdNafn7GI13jCWikiTfVJ89kFZU9glzohXxqfiDc394TfaAjxe0inWqluyyYwVa0yEjP1qFUldKIoTC+34sWlfV3eHWDEUQ6EGiceTIpW65FP5sq/Na+m11dumyvVzvU5pqKPmuMg6h9s7CJFMJv81OeW02uQkkkutXhOryylzqYRYLBapkM3y237ESKWpWL0WW84mFk9KZjMZufv4YzJtKcg9jzwmlZpdKmmxZofz1tpYyZocmbMusICtPB8uiNQqVfG63VLF/5SalxydiiT4GR+LSSZTkYVkRqZmZywuV/Q1C6n079ntlkClUhZL3S/VitXIu/+Xf7nBsX27nN75+m2fmP/m+E4rhLhpQ3+f1Wq/LpXPeWcyCXE7XdlSuXjz0MGp0f/meH8jp73wouWrJ8ePvsxXsPrPO2OZlGHKcLBF7CSVhSMOsdSK0hjwSa2UFywTae1qlVgqLV6PT0rFkuRwrh0gSiWkeWNYc+ozmCgusbuUga3i8fmkIRS2lqu1FTWxnDM5OdnQ3NzCd2z6XXvZYvE/se/E+nBwm/uy81cn129u8w0Otvkef3zMRGv+GxxxWs0Vu92G7VmSJJLQZndKPM8c1Z/3Crz/Bhl+9SlveM1FKwhO/UnV1tFi9Rdk5sSUOHuaZFOwKgvOiMRGcmIrIrWrLrHYA1J31WUhnwNeDIgP5s0h/cvZitjtLgk3eiSVTIgDOoyNj8rgyuWGZrNZHFJjcZSKZafFQVjYG5T4fE7EWpZ0KmlbtXr1VS5X85VDQ0df6fLYj1vqbvEF3XPvfOM1f/WpL9xmJrL96ukz/nJamVwwTTK5rBSqZXCVGhOP+uf1t/X4wz/c5nZYba+/b/fQi9o8dQmEAnJgLC+BUkoegpm91oxMprPislokW8xJtKVVJhemJY6WKhRrkownxI4EZyXLXCFLoUhROrt6JJVOS0OwXaYmkgaUWinNilVpYbFLfHZOfFaP+LxeSSRL0hDokENPjGD41CxOp7PD6Yh2NLc6ZGIimXdF7fe8/e1XHd+3L/+UpNixY0fhJD23bd9u37F9+/8Ag/DkiJ+f19PK5AUcsIl0XKxOp1EaUYO/67/FRnk43GSJT882Lu8Ni9PqBfb0SSw9LJV8Sjq6B8TmqEhzvUmoS8W5rGhwS2JlpwTcTeLjuZLJuHR2tsDiONs8u3KixVIXdzAgNR5+ejqJmdIsNn+j/oW/YbL7IQqvVY+FBeIEhcpIb0+nTIwMc05N0smCDPQ2is9T8Ny/69Bfliu1taWaJ9fU1GopFUqFbdsu/TYm0PGLzon6P3vjjWdt377tju3bd2SeH/b5n3HV08rkB6dHcKQq4nW4F60UJrwsp3UIz2lWKpXWmj+YGYsvIIXzcRgyIBUwfgECLYP5kxuPHV4RC8yt9arxXMZgdBvQqBXo0OVyS7lcxt/G4a6q5rIbzrYF3Fx/1Oa22SwgLchpXfFwt56jCyKXzYmXRTUVn5O6IypnvWCt5JIpGR+dlsceS4rTE5S29s7mY8OxP7KITUbHT/CdpKVer18TDTfHitmYwx/0nR2ytF/5/9764hnGYNGxJHI5YMtFU55fT//h0JsCM/FStJcsjpole9MtDx9+PgeyZBx2ww03kI1SvJzKn6Of+9yXfsWgCeI7AAhUZCHddFI9gMO/rcenP/3p4of+4k3/fuzI6DWN0fCWTDaFs+wA9/YuMmOtJHYLvrsiKDBsApOlAoOWQEZ8br80+5rxQfIGkyujl8sVg6lLpRJ0cEhLS4tBhzqIkx4wqPFjBV9UCpX1cycmTCbNIslLxO+X1asGpIADm84WZOzwqLgcbouHwFqgTryh3ohWcayOzafk0KFRzm2V6VjqC3OJhWqJLglNkUbg2yICBtSHe9kc+op+AOpU2MYYBW9sxvwsjkfhXp0q1UYKidoYm5WFaTHGqN+vPX0Nvqtr1biW8R3+pg/25MHZYoG5bfWqVDnJgurLVqsTV750zdfT+WKSsViUTtDGUikVR372wyP38tVnXuLkpZ7T65IxudOZ77TZHF+q1y0fv+66645qocQvjkTNQyWBzZDoOplQ7hdP+y365P99+F+PvOedL79lbHT0jAZ/0FtpCqm8RdqWxe1x4TgyM0jpQqUmeWa4hrfhtjsMCa4TflIyV9Bg0AeGsICoKKiFCaOmmnIzh06uHirRlQEXf4HRSywgnNZkoYD5UuI8oMh6WRqbAuIcxk8I+iWVLxiaRKpO5IdeB23pt0lPbxPR5XxnjUW3EIuB7IRZpHYWHhiOFXea8ajWUAbWqKwe1B/CyMwPn1O5tTguhqNwr45NX/VHx6jnqoYyfn/yGsZz4l/w6y89eGrDVLVaiROjDeczma5UqXiWg+LfxbiCnlGzWeyO71x6Xf9jP73lOIGEUzuWjMlDoRbZ8/A9zR6312FzNP/yUcH2ZSYoX6jgmBWA3xqk+BvRmb98eL/i03q9WrnPardC7Kq3rbkJFITJJ/cmk0+Ly+YUt9rO6YQhnTBAhJR43EQBXfHA7EUYnfgmJo0u8BIF21wQBrOLHfhQmYmUHqSami1ISZWQTzKUDQHgIqaQJZkt1OCSBboZOJ0gKzBIDe3hxzmdnotLsWqTuhVTiFer0yIUndDioyY7d08cPvfszlQqkzMkpDJmicWozM0HrC+959PcqNFZleLK9joORmi86th1jFaYv44ppt/QGAA35TNdp1Y+g9l5dWBuGYLsycX7bJqqaUVYQUBfpVquS9jhE5+NRVwpSVkFAbRi0dkstvpoRTy/RFA++4r/9e9LxuSJREKam0Osflv9GzfdrMvbuPtVb7/KNVucre35/J6y3WUHTqtj19b4gThIQ6ddkeXf7sPhwURxeQzmy2LTKqPlgAm9Xo+UtAgbEywFLFolmquayVDLOunKMDBVIh7DTIDxkexNTU0qFg0JiLiC4fFKYB5lGnVe9VBm4g8slgJSVT8AqcmkxA+pphZi0t0QEWfNKW1NzXLw8B5x+pukXgWHzxFgs1tLaJU5lMUP3v66jV+r5Cwjns5uwHiPxCcn8CUWuKALRioYzCpWt97SOKp1some5nnui8/BeQz9qcPNZwrfLJ6m7/CvjE+efhXj96e+8nNv9Htu0NGCxy09ITQN/9179BjD88DgOO/1Clf0sAiquTtvObQkDvOSMXlLKCmP7RoVT7Da8PY/fU3HwktfWk2Fvb7Uvv2vCNZkmGf7Zq1eramz5Qs6kGiq7qrNmUz6one9a+sDn/zkzt/idERUfKVmDRPIyfAfsXbxIA2RY+KB8RbKWbF4HUwNxgoS2ZhITIwCjZJsFo8UcCK7u7tlZGwMCewQpxtJakemcQ2XA2mPja7fqSMZ1QQwbHcY3QKnal5Lnuv4A+S3YBMHgw0yVUxJj/gkRK+abReulSPjaXniQFz8nnrWbnX8a19n2496erz3v/eD/7EkTPJzXPo/8JclY3KRpPR0DEgyNf+H+3Y9tM3X11sHGHbA1xuZmw/oHAZDrr7Hd086srmaNEYiEl+YWdh4Tuvh324Gh6eBwWHNmaNH4i3RRk1QQT0joctoJDuRy9nZpEynYOS+Pj4rSDwVE0eDqt0ybC+SBSNXaax2PDEwcbpsshBPSzabN957MDtU6jsxTTSZK4PUVhPBhfZQye3H4dTfVcoND4/I8oHlciITl77GsARqDmn1NsiGa1sfv3f3yHcvveqsj3zyk7fkd+36H8iNz9OQl4zJTxxuSFotiS9X6xOvnwq8rLXPflBScq34ix+VvKe5dt1bN7dmF0qv7+0PN/gDURkdHZOuQLAsReuoPtvKLT1bz33Beauq2OgOoDnjeFJNlstVSRNAUQisp7O70tjS8NPt7/nY5OJJv/rfd771FataWjtegFNnnYs94/ST+hd7MGgPWk6MjUx3jcfv2L5jxy8NnPztR7+x74/feOUHCrHUx5o7Ojpi87M2fzDoqKDbi5WihMIOWciVJZeaROXaJBRwSQ77ucLfgiyCplBQXVUStJDyoBvlopUgj1cySRJesMtd2LHqwFZAYioWzByYucpiIUIE+mSTQ/v3y+bNZxmQZGo+IcNDw9LW3VaaziSqXX6Pta1eHOtqjr5x36E7d+87dPQpgvzT9lcH9x+LXeFwWnd99os/HHnqD79jbxYN5yV66PO2rnoJmUxf8oVDodZ2rywU6zJ+ZFgcmcj/W/vS4JeOHpj9aSKWOEMIrKiKLuSS9Y6e5n/dsvG8z37r5v941z98+DMvjzZH61kgM3XWajWcOGA3hduK9FDUZqEPPfRQ1uv1bq/5Y9+NzxfIyaYOOh+TfM4jHmIq+TwVR15XrbPg6RybGf+7Ky9+xblewuupNL0XQRCMoI1h75IAhfT0Oj2W23/0w4Q/4Pprnyd4h8eTqXn1ms849Ne3/J9/nrjsrHPbV5zR0O7wuf/x3p2HzsYBtTpcLmlsbpX9hw6CeDTC1F4WZEYaQDIqmDGjI5PS2tKGE+piDOo42tB2cQkGQowVZsbh8gb8oCNWUgAySHPcPTRFCXs8vZDBPGnEjLHQxWCMJql9EoslpJgrVjdv7run6Ai/Y1k4K8cPJoo/+NneIx//wOtfZK9Y572RwHEo5kml8m++c9foHy7rDH+kra3h3/PzXtn+mc88Y7U/4yH/F79dUia/4NxNV8/PT91UL5TDFSY1KC2yt/ywXLzqzJs7u5u/vfPBw3+HNBuYnknDuHYSmEgxzeBhRzyPzi8kl7tcLr8iEsp8apdacJCUKRVeU2RA4bgFnDgcs+FKuTDbt5JJn5xFOj4JQ/IS7QxJZj5Xr1UqAZfLsaYDqE2dOD30urpgFAorwzhVglEOoq9TXAN0Ng6EdbS3tasem54mmWqxc7TeN9IeBb4DFuSzps42y9TIVC9OZ7MiKIfHJ4WFKWNjExKNho3clKbmNpmaioGI+I0syyymjBvnNUaYv7WthUWwALMrrm0DOWHxAVEoiqKYswaG1O9MkuMSZqGkU3kYndd0EufMxSvSHknf0hQcz2YqE00tHuz1INohJ0d2HexffV53Ilhtj+WyCfvc9MwGf8BrLZaro2DkU+tWrSjY6qFv1uuVPUVLfeTDn/7ynNJl+7vf0E4eZef37r5/avfuY2P62f+mY0mZ/OUv2nS1N+S5yVtyhMuOmmTAQSvYn9lsuQxsOJ9J5Nsawm45dHhMzr/gbJKQJpFoESnXFEVgZhmNFhEoYynaQB63YdNqeq4yeBn4ze3G88ZMUMb2uHzkY4MWwMPzRAbD0SALgrA60m90ZESaYDKHD60BTLd4fRBuFkwFc8Wah6EwH/KVPHkkAQIrR+WMwZUSxdFL0cYuAzMlEwsSbQqLx+sCXXHK9ExclvWvkBMnRnAkO2RmYV5G0DrRxkY+G5WOjlbGTjAIs2p6appWeH6Yl8CR1WlI5+PHRsg8tIBCsWhwTK20fUwRxQzTMs9qU6e1xKJQVEbzWBRaJFpqcTNml4xPjEprawtaICu5UkYafaoJCsCKeelhjL04xT4WUrXMM2WALXFuXaAV6uBbuV6czMf0TEZy5VqitdOfLiZc91U8+R1nLFtl/cmO+68ooBzS6eI37N7L/4qSci0qL7e89uO+lhnYXWNWM4/LCrrIE//4tfvGb71uqwfhYdlz6x7wldN3LCmTv/bl515NKOMml8MVnlyIywKppyo5y+RTKy6LmjUcqFSiIqFGjZ5pDkfRCItrIEBVtkpbIygA5yqEW9eAA/RQRkfwGn8/iSWrra7nq6TPZTT6CFqLScOaMmA6IGMgMRaP4rgsHB2LMqAuEBv2rt6vgrlg/I797/P5pYF8lEyhRv63n/qOCtK0geSrsoSCPhZSHIe5kfcNQhSRbEMYDqZW+GtiYgLmbTYWI/1kZGZmlqIIcl60UkLHzz3nplKgTzpei6Qz+Bd9IVmYI2PRG5YciIkNxKXEMzlJe7CCtNRtMLmQrTkXMxZPd18XCM0EwRQXeTROaFKUTKqEJvTzDDaJkkYQRjvabC2SqeXFik/Q4LFJgXPyDeTMZJwSbse5rbQB3M3VFogiLXDteCLjoU8lwE7t3173km3/8N07xs/sbZXKkSnbOY5KzFZ3h6TmPhPVl3/g/MiNX99+izzF6O9971vCqekRYOCc3HPghKxes5nkMp9k57JJFsRTiNklL9nSmIql3+kJ+sOWSvmr9/xo726DMKfhnyVl8j/+w4uuRjze5ITJR+OzkoCBi4WyBEAPRpB+Crm1t7fxfk7Wndkjex99AvUdRfIGDZtbGVYPQ5KjwmtIYA0fn8zGtT0ZlVMHVCXh1NSkwWDRaLNMU47mh9ksBBRc/qDMzC9IK+gDfPzk9Vg8LJKTkcUqrXXJcDXMokAwJDGkdGMjgZ4CMR98Bl2QEa9bIpGQDB05gsPbYVynq62dpKmU5JHCOH6cX4WZQ6AewwaTKwqiAZ84C0JREU23PcL3NYRfytUl2togMRATes6c0vROTcxLcwt2P4UYxKIwY4pSLVjk0jPQJmQxkvcoc/luefXvnZB7dpNeUJhnrFGJzc1KWSV9OIDWIv+lrQ0hVJYTI2ME6YqZyZnJY/hL62Pllvm+YDw6vewdktX8nN3bpa+j9xsr1ne++cYbFxO+3vCaK9Y//Mj9e0MNLQgMjR0AsBIvaEAzdfT07YyE5y78PPERfdCtV2wYYEJvPXF4ZGVHf+dtHpfrTffesWfqlIjw3/zykqErej+idgAFFos6UGkYoYbK1KheGemqjODRhCY1FZjfLOdEmyIEVMCBgdhUqqqDpVEztUuVIYmV4JiVDZtVE5q0yl8jcou8XoUpmWSkpqp1vkLhQsCw4QdWrhbP8LjR3D/k05AcpgnSvgRjq22tiwjbwNACcD1StSApxlPgWuvX9svQ0TFxoOIr5Rw4doN0sBCxbXGUc1LMah5JSWI833RiTjzg4G6e0+/34BhjL7PIdPxBJL+m2aaJhIbDNOnF/HCCpS8sJDB/oANjPpWjo0t37Ugbkc4KWi7Q4JWsPSPH81aJ2Fmw/nZpjkZlW25Gxt0peXSyAXw+KJFOOgpXwsCc8zBlXvY+vpdEMxcIUZhF0+wf6O1Zf2T0CWkqtUY9sTQI0HFptEWkGmmXluaAbbCjzUdco/rqi9datn9m55+Gw80Iro4PNjS6/+nQRKm269Yd85de2vfnw8NDl3Z1vogZXGRy0rGggbPua/AxwzKVIwftVJ7/uXz31MTJM+70J6+7pJGY7rvg4i3KiD6kWB5IrEoykUb07ITBNRGIgBAoQkkiTTABq79cISeDMDWdbmFopK6aLQBuBiNiqNgxKzQMraifRgjVNtdr6LVwVGGoxUfIpTIy0D9AWir52tipCap3VBOEDOYr8V4zNDT/QlcPKAv3qhAa97h9SLFJA+koVizSiDnR09Mnc5NTpMzaiTLCwNj1+jV1igs8k4aup2JzwH9qiqg5tbhgdAEvLmIWLJ9plFNn1HHSZIEZS/gcKsVPJmU9g4TP6a36Li7Gp1pDizAMoQBcOYlz2+lcbuS2r9zglKZvH5XAuqDcdsgiUeiYYSEkWAhBqpasIDnhxghz40QA1KDDiJEUNoub0+pNS/v6PunypcTnHKJ+wyJTM7HIQrK4Ys2yZat377N1BIPRNy5f0eM/fmz0C+jigyt7G72XXNmeTxRCY66q4+Gv/9vNIycfqmd5hJxkeRVtu3ExHB949O59B0/+7fl+XTIm37CmqxMO/DN4LkqQmucRCfsCRmQwrVl0fOACUVAmUNXq9apjSXiZsLbNQu4HTJnL4fAhVbMwqfKHh7C5Rg2L2RK2Z5Zc6ozBJBoF1EMZViW5Mn4ORzGM2ZEnz8NKFJE2dLBfXfp62zivTOE0tjcMl0gtkL9RMtAOdfb0/urwzeG4MgxZRmRy32OHcDRZhNj4jTiVRZAelc5axuYmHK3SurmxGQ3AeGBctfVVTauvQGED91tEe/R3zU05aYblSQWw29g+hrK3U2XyAhVWqh3U0VQbX0vtGhlXKGKX9o2dUuHZrlxJJ4GPFKX1TI8cXt0omfKENHoDYsktsHh1wZaNHCIn48+Stz5DwcZynl/z5K1Ov8wdGZUEjrC7bJfelW3S298V4NnWPrjr0IXHh0+c63c3t6XSmXpj1Ftl176rDg1PvjmWtGfWrTr/gS986etjxiQt/mMZOxqb7xxsfEc2nW4IhJw7J47FH33G35/Xt0vG5C/Y0hehQ9arEOJRFXuGo4fE9NAgK9AQMNJPM0yymiQ5GDfS2GAkMqnTZy1pViJZbyUcPqSKBcaxYjBj22Mb5w271wF2rPa0Yt12JKFW0ehRq1VgLDfwXFK6u7qJoi7ILElLJezIShm/By05NR6X+ZkUi6sE6pFgwYA65KugJ2DRVN/MTCeYWD9ahQQlTA5ikoYWCGBe+cnprqgZhfZQTFyr7k9m75GVyAKhkAFTR1Nw1LnWzELWEssLHoQYSgcdt74vAvNZcBrdHrSRruJTOFSbLBZr6L3QGtDv+hdn5G/OcMtZu6qyNjcuE/fkpb0pLqljJbmopSZXHD8u59ticv4fl+WRo/iRdMhWM08PF4a9okRedwUUCZNG83WAQseHZ0CtQjI5QSR3ZoFkNJG+/hbp7mn2FatzdCVIWgul0vJDQ6Nnbr1wW+euxx5z+MK2+oteefm4s56zHTs2U964efWfRu2eIXvY8WpiC90NoYbDoV55YOZY9tRstsWh/5f/LhmTb97QG8FDvB4mjKqjqPaoGgj6nxPxHkEyelH3FTIQlREjTVHjb1kSnJxlqyxb0S8PP7xXlvW0y8DyThkdm8emdsggnx86cBS7L0IwpBOJQ2IRozZSSpFkFsLlKtGtTPo8kF53Zw8S1WksjnbszJYIpWQgDFEcrQCmi5fJi4T90o+Tqe5ZE4UQLY04nnPAmYxvWUeXwcTtFBKXqADywrxamqaL0cJ9FqUy94M7LHwWBNFQ7zZD8EY5xsrgFAXS59ZDz1+U5vga+AZZtJgvgF/AtU7p4Frg3Wg60B00m5piDz7ikqN5l1z0ggXJfrVHPBsTkpokW3GVTSb+fl5CPXU5cH5Y/vGWHqmngWKR9gzQWIiaM8NbNBPuCkE8XdCVQgpQICLBkA+/wg3tWFjkJSSyJIwlcwifIr4LZlzQZ2vr7ZKhEwT+nK6BAwcPX/bwrr1nlKyVLdf+/kXxVKLw8rHphfuCLu+t2Wzx6pZo2+ce+OHBA6f0/M/hy0vqeJ68r0ovRUBOHqq+1fEL1aziDTcSySNbDolXKOU020waowGkHedAaA3O6HfR9EhRbHDwdh84tQaF9O+Kn2sQxpCS3EAdUrVDCpkccJlLDjz+iLR3DRiOYiKzALJxFIbiPEML8F39hYsfKp8wkI8czqQVKebyRyXPtR4/9Lh4SDuYALnpbW/kfCSx8qMOiEOLBpRpF58JCBJN0oqZFHC65MTMlNQZvwHpIKgXF4TxNWPsJTRVOBzhu5q9x0OcwmFjIWtCl4taU+0IYMHksLRUJTYblHfsrMn73jMpiW90iquwILWfLci6y2vy769xyU9uaZXWjqwUM+D3T97/meO0Y/ro4qli3mm5H1m68gTRXLAu4gkNFF5EqWmFsQMe5orCbdJlJxAuQ0cOYe65cNI7beecvTmULk78fiqZl5/etuuyar0W3XTBipu9fvetrQsdgUCjs/tXPPqziXKKkmDxLief81fc87l9fJJYBjb+JJOrqlaGUMawQjxrHUcOpuqn6HeerQ5HJiZJzy3wQ/sGQv06+Rq8UHvWyhZDddSwhvM11F4ADVDVrCaLBUmm11Xpo6+AOuDXAcwdFxNvhUlnJIRkXrNxgEuqeFrMg1YVrza1fnFRjSHBmMIjx8ig9ASke+V6eeLgcRaJ37C5m6MRzlepqT/wL89z8pmM+/PtGnkqYaqFbK0dMgziUuRcdb51sRvPwbPouZp1mCa9oInd7jQn/VSOPH4KHbuMGIQLTaXwaoA8MF+7B5/GIoW9FEnPPiHt6woyf4x03yECYpPLyRdCi9DrRTPF6qTW6qHjXHzDv4xbc+ADdrQuvkuNHHUX5uBqNOrkdAw6gYUPggbWwd6LRuY5mHtVwq2k+6LRZubHiQeMsnVlCNTJKZvPW71KBcvQ4cNNGJqrylmrv6UY+r9bL1kd6uxq/0Hfqg0nMoS958aOOTPJ/FXlWiWi8iQZmz/20N1DdzCiU7PruMCSMrkxqRBJmVUnV38/+V4jjXkN/GBL10AG3EihKAEXd3OnzBON0/MLRCGzMEygwW18TwsDlKEKJD8lEzmCHgoR4mjCWMa8KNNhq0udoDTOYYuaGJgNB48Os1doWioNQXJIQBFUFT/5nyZVke8nJUwQpZ76CHOzcZmmQLiaKktbR4OsWr1KRo6PGkEZRS+QRAaiooyq99cxLT7f4iKzsGiL2Nh1rukg4kovGWN8+vx6rh56fhXYksouxnjK82Zg2w41paA3611XOhFgt9jQTOE2sh/vm5M1Z6bloXOaZPVG8lv+3Cers8fkkcomsZMhacsnAQOI4TDGk8LJGCjU0cXIH/iTpvaGqG/N4NBraoKf/BxlehYrXRdqTq9Mzs9KDi2LkjYWRwPnq1kH/7OQi3L48DEj7z5LFHn58mV+J5VJ+FDLisXy+4eOHHvJ3gP7hlw2V33NmjO8k9PTl/o9fueJwyec5VLhn8994Yp77//+4fTiuH79f5eUyXUYqt710Mk1mJ7J1ffK7E4QgDLRRCWsi2COMibgIhPv4sHVXnYbzmaAniVGKJ1FoJG8UAOZV1w2ih194sS0CnvjWLw+9+EeWjQ8hbmg1TLaTDSJw2rnel4v+DoZfWrWuDlHt1KsYmK40TTKsJoolaPwsIkIYp7AjgN1PT01IbSi4HeN2DbzGQEetIiaUqoFDK3EPQ24k+vWmLgE0c/xqVmwfafhS5QVu+ccXRiL2LnSAQbiMzvnqJnjIsNwGEyeYbIKHNLUgnnEYpmcGpdKzgF2jS/DLtZTMxOSXSClAZ60WFVTBXDciULiVSu6FEIzKLy6siUqh2cd8rLOeVn24ph83Xmh3H6bBX8mJ2//z1nx7CXZDbMwam+Xcce4OIiu6hiVyXWcSk8MROO95g41RhuAFadJJchIV1MDcQqRQ0PHpb1xHeafXZKgM0miqlrlpP5JGEdcs0V1vrU9dwa4NQma1d7ahpMrpEuQgSnzCK2iCiT3yjUrNwMfb04uJGXnzgekvaeZmEoajSqzqzdtePAn377vlBlcGWXJHM8VA20RoljX221WEjFUUi2aE8ZEIz2Hh08YpqoPBzSj5VzhkBGiTpN/MUUyUo7XEsvfRafXBC3kZpCuiocX+TxD0YHTbZO5uRnJ62LBgbRRQ1VIM2mKryPKstjkGsCJE26vw3jKWNRQia1Cc9E4CE2RLRQTRbL5FiSfxaaGKfB5qbgpSwpnOAWDZ5jFRjhOnaoKdm6YxCcSKo3kK8XHNYKpEVgVnApb6sIDWqdtXIIfwvKYSmoOqWnjQLor8qILenZ21thtWheFagbNuZnETEPwk4/Syka9LqKE2hAUKQd2HQx6SPaKirfBxrPbJRLF8WtoplsAtn8YW5iI7NTMpEFDlZphcPzlnUCfh49Q7GyXC88uyC3D7bL7oEUGyTsplB2y8wDRzY3kuhRDVCrN8yztLFaNHMOgPJOmO8ySihAkLbheRdKTYuAktnH82DgJaBGczDQQb14GlvVBc3Ju8KcmiNxatHWGCi3QMC2wdgP7kv5mlOLZGGcVAvkCVE4xpw04/BRaM1cZhA/PMDWFSUiEme/3LesRB46tj2fxun2+XC6dcjfX7opPAMWd4vFsQ//XvtwLX7hhwG9330rkcqX2FlHEQyWEdszS6nbFkXV7cZVE40xwX383SVC0ekCNPR4bpYEm0lzxZphabW4wCs4lvwQVb0M9ljQAhOTV3GubtyLBSJi004K4bSWJwozTkxCLp9F7qpSMkGOSpFWb6s0IE0dLOiYph+rNQnS/hDwNRGWzBoPNMulepKHa/i5sUCV6hJyVKtIsxLmKrBSIfvp4jgJ2qouJ1L9pPGCC50pzXa35ZOCGlGcIuAFKA7XDiZyy4BS9wJeDgcCdCdpkiZxqJqaTwghdLHroZOjbk5NSU4+X61TzVP+zwBSvL0EDLRsscc2QOrwspoDWZrJA08CmgSAaiNXr8zVI7UlJrXi/XrWM+edmERURFBr5deKoJxAKCsPqoWaUmoSJeMGI4C7mxtB1FwDAikno04g155HBKKPQjPgucj8oTmDXur0mCwg3vZcXZi/gF2luUb1kwVm1kcuTkxBF4BU0ufKCMrnyieb2WBE4ReYJncfzqWYAzgxGv3fnfQ/9gSxQjXOKx5KZK8fI0MymVXrzYJgYOsEk6zNHTDTMrRixlyCN1ndqDrU2wVQMelnvMuwQv+zftw+zwWIsCLWhaZkmdlQcX4fBICe8p1qhDNbd7G6QBqePjrJ+OXxwP+VgWe6BQ2WhOgcoS3NhClS3z8zNYwo4JTdN1h5miRcp0oBZlCOoVMYBrmGCpAhU+Vk4Tsa1amClYU4cHTqKnY6aTiaNxbF27VoJggpNT46jfUaxTTUdmOxKFsU0ueM2zBVDwsPA+rw6fnXaIixEQt48exFNNkw6LEyAyWON14FGlxvcPD4xIRk0zM/bxYvMjiFmLHj4nHNTksRpHVy5ErsYOgIdxibnpYzQSCEUVDpu2rTRkMC1SkL2PXqYLEjMQ9IiLCAxiwtHx6VmlOL2OldltAZJaQ0NRtBLmfKRRx9kMTJG6O312WXLpm0IjbQ8QoBM83nUHE0gHCrUtZaQ9tbCHC3uiLoyn94SJigO6zFbVTb0dojFR3EywPr+vYf5rgehREozC3f1qhUstDzNleg2Ro6P+hUu5o8RGZpZYeJx20h948Z+2fPT46fI4k8LjVO+0IY1nQOzyeytTDJN5xeRBWV0RS4UbVEqq3TXPiVrVw/I4EA76hHIDY9lPB0ziKbFA1oYvGgSqCYga1EDMdjE2v9DV6S2UEuiJuMwNjVmNMu0AB0GiJgWUHcOQ1ob9iX3DmCbW3D0XIrTQ/zOKIWzOLYalczDhH6yDjV4U0FVJxNJmJEUAyS+DaZX00TzTHz4B6oBtNOX1mWGYAhFTqxEDI9PjZGAwXc4X+10w0eA4TRNoYBU1eJudbg1L0dpUKPZiDKbHVs8hXmjjK2BJT9wnNLs2YdKRXV6KzyLwqZO7jM3N0c1k086m9pYtNxXI5Lk7udhmhx56ioIFFKloxY0A8d2cg1ofLL4RDWKQR+65dpwPFVLpVJJpCuleDx7UzPtpOnDqK0usrk4ATog3YouZGIKmFB6jmrVeQRALEV+ElNb5xnLPJtqNls5I26ETQofokjRcxnULBzBBAVO9DWybOkNaRS2cA19fjXLdEkrZKlXQJTR8Tclh58Y+rfG7p63HH3oaOrZdHmuv+tVl+RoCwYjjc3+65f390aboh5pa4ngcDRLgCy8DMQgZkOcnodEekRCXpgFJxDproXA4UhQYprRp5AhSVRwlAImKC+1rWEeFobasyrZuyD2Zd2UhSGRT4wlsVvDMGwFOEvNEK2+SeJManIUECROVgX7UAmo5gEGA+PRwmIq67mXQpd1JFoBBnHTENxLElY6gWT3EVxBI6nkaY42Es7XZvi0egCp0Sgqekqy5NxM0fJO818UBaogBfmKsRiLIDwa+FEITTFnirVRz/RLAYXI0saiAQ2UwiHTxC1dADU+17/9wg8MXuRzheY0wJZHkrc2RqWvpZdYAx298E3yBKwqNdS/D1t3geAUgsKPqaJtMRTzLrPYIALPDnNDS07G39AYhsKbdRzFBNLca3xP8+cbQnh9MwTiEA5sni3zc2RzttGvBbNInfEsqJWakopw+WD4KVIErGRXWsh714XWScrwDQMDck57VU4QaY6RxlALVqSIn+Or4HCTPpxmrjVPXzv6Kn0WSBbDYsEv0Fx80pRnZ2JkR37hwANHdi4Fc7Lsl+ZwNdBUHsmZQnolE3mjoiWBdPRj6/b1dSMhwqhPJC+qXhOXNOd4noKHaYjoJWlEQ/hGwxvUljonCEacRlATpIHaihZs9jp47Z5EWf7uUFbujlelDKRVrmBSuDBnqpgs2KZF/BQN6at01R4oTsPeI4cchjuO45pBaitEZkU02vlblQkPkM+holLvOz8/b2gcVes+mL3KoszBkIkEzKTSGkaxI621X0zeuBbBH70TdqQuxhrXUZhU7UzVXB4QJaWDIioa5CIiCONhP2vxg0ZvYRajbZq2TnvWT0V7k9u8MCXEAF5d1twnA9FuqbOgE2gzVI7xY+ccTUXIgF4oylQjH0eLnnVcFXJbYGfjvf6udnmdsRm0QnM1ALOqaaeNhApUPmlhigoeXRT6HEqHAiiTmmcFsH0H168jtZ2K8vCzurENDQqD1rL0ewnJHtIW3nB4SG4AyTkU7MMWx+HE+SzVed4GdhfhHosmHdpZtSjXD6BRFXp12r0ycXxKFqYzjQvppH9gYAA86dSPX9SRv+Y1t25dNlBIFW5FZqzU1szKxKrCNVPQYBYeZoycbSvq8YzBPsyVDiNRSvOQa0jHMapdZpFUalroA+c5n3UP4yE3sHmRZ9iKMAkawYWUUWzW4cAR1KQpGzWcOJluP9JG+yzCXBqA0E5T6qwqdFhBQ6hzG6FSJwI0qfxRwFZW00hVvKIhmoqrUKNW7LBprsxOzVHt084jYWfTho2qVEOiq+06hz0+logj4U5CiUhKxqgt2JQhNBKoJopOovokasrksySbweghnFq1i7WYRA8LEKZaKzoZan7ruXoYzMk5inLoAmnHr4ioZEQLeaBvjlz9PBmdGi8JoL3I5UTyk34Lgy8uqsVMTXVSDVNKTRkONRPUcVZTCUoZ91YtxBYwMHEd5AdfBpo5CTY5obE6oEY1Fd83YFPGfhJGrdWx920VmYlPSwIGriGk1ORzkOeO0SI2gniaypGMabo1qBj0Uo1ljEe1GPyg72lKJcOHJmViOCZdfe1D+ZjzVSOTTzxiDPgU/1kySZ6CYZRoHgp5dZsQnaLmpiZDhiijqQnR3g4Mhq3HDnBIZrUJsVF5SAM/5lVNAiPJCSK4YBQgi0UJro3zmEvYnwAGOdoF5F/di/rUYMhiOVsFiWtkAKrtDKNqUYTa0Q0gISFQgf5oi2BIEQUl2sj9NSqJl4OBzITBXUWF00gOc3t1fJgJaAMrmoNIPBA2iwT7mAwE7HYmku/FWVROHDq1qyzAZ+oxkJRgoBCqQbRq32izpvY6HKRmiTKG+hi6iPXQRDStzK8xAJWOdbXR9EdTNtV51yfmHjWksR2tNYuZRfs07GPNwUdqw0x5Mjc1WzNfhLn5z4rZoKYDSwxmo6cLklspp1JZ0wD0R7WN2uMKvyoZNKNR6a5zUlLzi0VgRSCodlI4GD3KYKE9eTmqBapqO+EPsPQ5B+gWOg8098hAex9mGY49ZmgZxnei3svMlX63ip3Ovn+6wgxaVIiY6gLTUkZFoHIEl6amZ/ElOmR+qlzrW9tyyra4QWT+WTImd4Fm5oCmFgD2yRlG8tTJ7pvD5lMECMsYGzYU9oJj07Ae4hZR2bOzCWxlvH2Ip6vdATG0eWbdUPk4cEpYtK7avHXlRByoOqpPHUaVPMPDozAJORvIfBtoC8LJgA3LQJMNdjcYcZd00xa5heCJl8mpYY+qjVtWHlJpz49GIfVHbX/9GSJCVwHKcbpgdrpSuV1BGaFqZgozhl0ywIRhZJjOwphU5RuhPg33PeNncbzKAioxa2iEOFpIEQSyGnGSFYMfGzmBdkEw8FWjUxvMBvcs/vDeog43z6hBHicMSWE2ODr2K4gQjyBztKbIAy16sb+NHHVSY8dn6ICLlNU7q22r0OVJrXBywp9+pS2OOtTQIExHLk1zfuLgkLEotC7VaJLEgjgE0qTvVdP8ssNSwlZhi5iDR6fk/l375fCBCYmNE2E9OowjnKW8L2aYd6xl0DWv4cRr3EDLC9Vf0DpYNS/T8Ex/fw8Prn0cIUBxSSwVY8hLxuSK2Gswp4zoU3hKy9rU8Wsln0N9yWIB+xqJok0nVXywIzMqFaePcjNiFVIACagzq3VV3XwuOJh1dlogHIQUQNLY+RvSAUMdSUFqKzTw47wKxbrak3AuNm2k4NaRENFGvyzrJMiCw+mCug4kiJX3dqS9Sx1CrsqygvhqXxPlxCvWHxvnuVHRXooR5mfnaJI5D0OC74J+uAiAqNRFIFNDim3JeEqMT8fzCz+MycKmVjX+rq861joSUSFA3Qysxnsfzp6Fa6oZoGvb4oDBoVfdCmMCwemPjR+LJmCBSJfJeUdAywztNzSIVOf3AF21ZqbH8YEWGJcGb9QBJlUYyeBg5Th4Nn1OK+c++wcAG5NSNQpOO6nCHqRpc4hgF+MZG2MBYver86mZmXo9VusvXMMKPUs2wvs+zLfijCRrtJQOoJWsiygVu7bSl0azMykWwfzTGlntaqw2OcSEPxCMuTSOKI2WqAfQ1tg5uhegMaw1x9MbC/yyxfVcPkMULc1RSLJHJ1dT9dPR2YSkBobC05+ZmTbsOnYlxsEDQUB92TEzHFTkOIku+n1Bupsqo4DNIi2MKnZUvNrKFZ0cXlWI6O96GDg8NpzmkNts5Lxgmuh+mE5VrWiPhgCt3JBQBTx6P9uSQE7D/NBvs3UmUpOrIbGLMMHT2PSipILN+L6ff204ZKAqdPpy4lPECY500B1M7Xo1W0pMuJOopV7DikR/9qF2uA7XBVSpEc4AtrRKfU0BVrPFimS2A2m6wfvZvRdJ+WSuj0489zb8Aoih6Q4FgmO6Cgj4GpJZcRGV6BohVbte6UUDc+iB+eagASnBJU0/0DQKRYg02IIl+AuHMpoCvG7ob0FL2jyL/RxDxAMscgLbGb8IvyNIlNWN9lGPgxv9wnX8OmYc9j4cULfWlvLcmp8zyXPbMfMCfp4dYEFTjNuinYxXE+maWDMIPXL41X9IUAugsRX1O9THIr9oxlpWCbI0x69QQs/94ss6mwaCoeqtc/OVlWrrKYw2QKhWGwUFYDz1pTSf+9jwhNGd1U4pvTIQ3SnJWcGJYqUbqAuEUWekqPoNVaqHMqP+qOrVV500teMcSL8sksCFqtaCC7X1FTNW+86Fmm8ANVFnEm1rXJMrGYzuYGHoHqIGk3NNvYvi1MqQXW2NBJFi2O34FzByIRuXM9b0yiOPHAH6Cxl1oNriYjEfhQvzvWcfOraTDpW+Kl6v2YfamiINlBkivE2XXCPyZwc9OhlX0OvomHRhKzpUYjEaXXF1gbAYlC0rOMVuFnMPQa9Dh4boHtBqCICFBfJVlmHPzmHGqJ1OeFwPTRb7ZVap0lJ9mKouUpW4pC30M18jY8QusOe1o646xH2YEBM4okrHXzxgcBzPOhpcG6LaNa+d6+bwHVQAqA4Koh3mZufRKloMAyNb0aj4bvp86tBPTEzKhs1rDJjW5wzK/j1DhVA48unx0cl3/+L9fr1PfnGGfr3ryLatwYHJGd+tTkd5JWgb0hv7FbW8fHm3HDt2jEqSbmhtl6PHJ7C5KGommSeVXIT9vNiqKmDVkdKwt/Yu0fC5Eyml9rJKPwXCDPuS81Saa1SxUKCOEyZqILE/kVgMFachsFYilYG7kJkwAN/jOzbGYwRVsFMNSYnJotdQu1yZX9WncX0YS6VYFZGU5EFaSZoqYx6VcAxVlilqoXixIj1u0JMiqlwDPtp2WF+ZY+PQ656s3NcP9JkUVdDJVZ9aA0wqjbX2VPFqlWL6t6eYj3MrSDuj4T3D0wQxRVRK3MCwz8GkNR1YSwX1MK6LPasOJssE+bD4XMb3IYAKED1Hg0LK3BoJ1XwVP9fUdAYtztbxOmBW7dIVJBimfpRKbzbYZYyaZbiY1GYEnIy7Mi7o5lCHFOKoMFkEDjALGUWZ5C3Vxh60rkKmIY1pcB9uzX3oowPsOBsbJ4IbJj8nKBNHaRRF1DQSDt9LVPkPdu3aNfzkbU7pBXIvzaHZJL3t4evpiBlN5LWbFFAd1SRapqUheq3vHDp2AumLFIVBPI4AzOKgaoc01apu+afRMdoEE7wpGwRfVOMW7FT1wKrYkIr/KrMoYytTavQN2c4EqgVCgyJsXDVdyjAAtzV+18ohtVO1WY+WsKk9C75nmDkG7s13DWwZ6awcqiaX5lSozarfU7vRRXTTyvedjL3IwrJzH/UfykBrCjfm+Uw7ZCmmXsG3QA9xHe23TeAI/0IhNg3MlBhjCcbROlHN3FNVjbWKVqC6h1wO7dmuIfYsmkgXje4uAftzD3wBNF+RbEoNbGnhsi7QKnkeJbZGCSEtSzyzRjO1xVyFc9QsWGxQhE+j32Hsmo2pAZgKY9B7azFKUf0bntmOiWGkAPBcWvdqYcGonb8If/JcOLIa8zhZyL0oaFiEmG6GnQ0za6CPPGr8HExSBJSmMWuhuCFIWNmamekBDtbP1YyapbnUpk1n4dw+IX3a9ffojPS09+RBsL6497G9wNFLcywZk29dE4mMT85dT+uGaCJuo3ghxANrYs4M5Wx9JDERGSNooVLAjXniBr1QYcNeTkaETm12DVGralWPXwMzKnFVQuh5WgmjARa1/5zguerk8il/x3aFcLpdiEotrYyHBQ18XlNl1R50IEkUOjMMRgis11abePF6i6FxFfcqBZVJ1F41JCvSX4s1NGjj8zdgBlC6RnG25t8YJoBxTdVaGs1UacxSp3rG2B2C6J6aUTWQGgsqfRFvxuBgRWr/RmOdYpqor+EG/VkglB0JRw3JrM+kQkGxe5W+ShvdJEvHr02RdKy6J5GB9qD608CZaovrVomK4btBR4wxcp4DZtNrGbW0fHdR4GDK8Dc1uSCV0ZJCtaoP+JRlwjk4rvg4SjelkTKldlbQonKNpioddD70XDwe4+86VzpeJ5qOpzLGoYysC1j9kQVKHrUtCQqF++nGAnNEmElwmxiVFYMr5ejhEZAzezUWjx9t7Q5+YmJsdpKLL8mBglmaY+uGzgHqK2/N5BIr0+xyoD1StG2aNv55/PHHIQw2HZJXbfWcNrdBkuuhCTt2q/ZPWaz6UXWtDLbYamLRBteJVrNFJYKqzRL5EZpbogSEM3kl6MN8KROovceHhg2pOeka2dQcZy82qqpqDU5pCqzeTychX9A9N1HZBFY0Z0VNBGV0leaau6JMq+pfGX/Rtk4bEtej0t2QpjoG/d/4h+sqPkxUk+e3wPhqn2skVwNPda6pWLk2HNK0VO1/aJgASP9Gcjg0ycowM6CB2ua6kFVbqWBQR9LIf9G/cW19VpXc2p1A+7ioSafPoLW1GsFUmFVzRNzECDSKaWinJ2dbo8sG7eBw1VR6vlfNFr6vNMmSgKWbfpUNO5wFhRmEeQAAGrxJREFUx/Pg7qIhVPojmaGFbtxlbFGJ4NJn0h81UXX8uqBcbqqRyEPXBWIsbE1r4HObCihyxi2uAiYK6QTQNxHPyciR+UT/YMc3entabv3ezff+WGeTnyU5lkySr+l1RR4+OHx9pV6PWoHXEJZy+PgJstcOyCzecwLvOpMlqYewv6aQpklQUshs+epeGR45TII9+1fS8ySRmaLGEmnrUggOB4aMOjI+kBe0mLBTRR6GSUncypHfrDuwqXmjpkuxEJOzt6yBgCmkFwn/EZXeaQibYu9M8iRcmquSxOnTRZCRJvqNWEnTXb2KHitzY0yyg4CVlwnVKK2mg87K+edvZKLTLExK1lpotp+YID3BK11d4Mp58i2seXIwvNyHRYdU6l9G8jZBjxr3DYc0Lxy17MZcsKUk2MR9MWEyQIAWG2aQE3pwDR9VOu1drXLs+GGCN9i9VQIpmDUCfNg7GEWlj9KmboG8HBaERjOBE32enHR1N8Go7D7hJ0EtRAs+nr8R2gT5Pcw1y6UF6eoME7OYQQtZaN/Ww7hwftl3qMIe6U3N9Gl068IuyqpVXcwH9PexC4QXH4frqaQdXNFpvE9npg3TJkxBMyM0TLB1a1cgBNh/lOcN8Ox+5iwQ1P7q6kMVjQQ0zcX/6te+JuvXr5Pv3fo9WbVmQEJt9HzB8e7Foc2R1z87wV4TaVe2f3nbh6+9/Lrt//LZrx3hJkvG4LpKlozJaTIRsTjD16cy2WhizkrQRxNv8uICy9UcYSv4cw3Joxi4VXFT7L71G1ezp/xiqVq0JcxCmGd/zDb6JFLsi+fthWheEBnFWktIEY291flulOSvydkpRo+0Q3LOkazUTvbc2RvWyNAhisCxC5twZEiXlpXLB4xIqh9b/cz1Z1CJc4Ri22aCMWMURfikp7uVrMZ5IC0WCxIqnZqRhfkZ+b2rL8UxjsnwscOyrL8L9KZAKkKf0ZqZ2KX0dHVIhEBGgQQpIH9C9knDv1i+rFdGh08wBpwrVvoCeStZzKauZf1yhEXvBXO30b5ZKd/V20ORCDnd3GfZ8l7az4F3Y+8XSHHQBdzURl4JzptqItUOczFaa9DV6kWXv4D7kccOPh4wNFQOJKsb5iZDUq/b2cazYFNDQ5eaciAnWAg40eTgk0LsROqro5kjOavOffS5YtCTkjOuQYkhr2euQ2AQI0CpycrBZUb3MDsOcgE0y851O+jOmyKtoU6evdGumsal0xRyqGmimvUtb367fOyjnySC2SbnnnuBvPjFL5bPfO5G4g/TsjCblaGDIzIzEaP5cai07tzmj7l7o3//hY994ZdBOMqnp3SoUbUkB6FkgJF0IRTsgDnGcUOD0mhvMZZkGhRC7ewobd00hKx2c0X3p0FNJ0jZDPhBR9grU0O62oV1anKEySEPHFNCG2wGA02yQCKWqt0S7RICVM6AwSc4l9VSlf7WsHOwr9c/dHAY6MtHuwu3kT3X0daBqXTAQCG0A+w0hbjLl68F0pqRBrYA1wzCOaKynV2d7I85zgZpC3Xt4xcIRAOgKI7xsWnu3855mCA07J+YoDKJ3jHaEi5GxFGdK7WnszXNpiQNdiopy5etxvaMVAq5Ehsv49ThcEVbohHFf7UYQBOmdGco7VA7PjaJJNSFSk8TbNaOjk6QDYI92MIqzKameP7GKDFeT+rYEP3JKRYu+GoRL36BdgR2arU8Mq+5qVtmKNzWnStCIDYPDz8ig4OrGC9IFotAy+bmphPS3taJjxGmv0+uqPuPYj9aaQ0XSsTRqkQtfaQtFylqaGvrkYMHj+A7qHlJEGc2jZbqoEqIRYq5oqnPc/Nz7CPaKhPj6oxaDBp+7B3vQlqfwXURZgigiy++HI1QkB07drAo4V+NJEuzYVrZg769Wy5dcTsQ8mi57vq32z99u2Kdz8uxZEw+Nnb02MaNmz+fzSbe3NLSte7EiWH5sz/7c7nwwgvlbW97m1Hq9IFP/q1cfNGVQEdVuWfn7fK3H3o/0obWynRgdQEpebGhx8bHRLMWNVuRbctowTxqFB4oGqCOpQZipmbis8uW9/8NDXWO9jKJTRHvudjs/+fAvhmfBlAqtHzQfGitkNGw8VlnrTPszod370PFxgxoyxMk/2MOyYT92RRq3b9y9YoPzc8uJJraWhxslfJaUIeXUnBhxaw1zBU3jrRuHDAw0CvNrREWxYzMTmv+tmLzaCsitx5s7Ln56Xpvb++ttrrtK2NjI2VPc7RhOjnzF2wCsE5t3EaaKmnutsJzJQJmgysGjOSkQ4cOG/i+lpipY6oIVL5QYCjO2wYGer7Mc5Q2dXdS8xF4Tyw+dmYFrNzDNobqPyxmEWJ6rVnB9SNy/LgXrH8CXlNkh1WABGaTVbROMr9ixeCnY7G5e2qWUr2zY6A/m515fyqRbjUcQpo2FbDLCwgXbUG3bv0qYxwH9x9jzAmg2SA+AIIGgVFjobtIpfjBT+/huqTRYutotY86mAG6JszNxni2FbJlyxY588x1xnwqbNrc3JSplOp71py37G8sqYZ7UnNzlh07btcV97wdKKOlO/bs2f25aLTldTgh/xCJND32wQ9+GLv2QtTV+dixPXLZpdcwcTgoSEA7MWpFObSCRle+QlJUcCMxFYojzwGJsZjoD0qBqlanS50bTQPFycq57LYd99722B1fv3nnHaRD7aKBaMVPboza5zVqFIvkdRgpp6SrqsTWeyge7AG+016Elqq2FmIRYB+C8MyHXI133PrjR2/v7vvRD7weyxDbeWMmkMaLni8VcZjw0LS/iR5sEGs4wepMBkBdjJ7imGK6faM/EKj7vN6jJAPcdteDQ7dPWCd/BH/NOUE8dE+gJFVJygzqeOrz6HOqz6oOsDqY+py6y4Y6hoEGLQsrHvPVWn/w8F0Hb28Ntf9IrAtz2r9F7fdMGvsf51b3GYrHCKkzLrWDtFhDhYRXU4W5RxG0RKFVh9ODzZff/Z0f7v7R96Cd3Ra/i3vjZ9KWD89dA0PqqCpEq0iXOvtaoqc5Lh6QFy1XVBhVzZYyz+5jMYZDERi3lefwywUXbJPf//2XIwwW21mrVrrvvvu0c26dm5RvuOGGn1599TXvftWrr3vD7d+86y7d6xUp/7wyuM7XkklyvZgePNRjl19++fvx7L/FpH0MG+3C++67n4mjulsbzhM2fsUrrpNkdh6Cwmg4kdqIX1tJaLlZNNokw8eHjUJfZfKuri7MDJwn0AJlAg2BK16RSOSxPhePTA6XMlutqFTTPGo1mWZnxw17d4FrPrz7EZxOUlxR5UaABonqBN6z2ZPg2WwPzk5ViVrGuN7k5EZblY2A2PTKqrnWapJ4SfLSlgza+XX4+AhmwDhSt4A9P0DIP4YT1yJxmKKGfYt6ttJ1AM/xoF6v6snrliuBbIKIpzK3ml9ztE8OU8iti3f3rt2Mw2agRUbmIqZRkPI9hencbhCTXN2WyTyq81RNpqesc6ls1kaUtFafNtouaw64Bpk6Orpk374DBlMqCqJIUBxfpZGejQ7Sc3M40tWKFeWnMnvxiM1rAyF7XiE9CqAYXwCbfxLGxRmfr3G9fbrIDITMyMrEtNKijAXyWhT67OjoZk7AnhBWOncpimPIAZfXve51RgXTww8/LJ2dnSrl76WE8DsgRP9Bb8nJ7du3KwZ72o4lleQnR/3jH/84e++99+5atmzZu/v6eu+NxebZCGtErrzySrnqqktlENxcbUgttPWSA16DmXUgGu0sgEl3tXdKC8ze19dv2Jkq2RRqU1hNpRZdZudo9/yUDZe31nbCjHf6gv66Bl8SZEI20BYuoQ5pWzu2fgsh735aE7egyofRBuRkk6/hoTq8DraMj0A98uLkaz9tNMX3scP3qcmjkj/HrXRS9ehEI0UiUVmxYjWV/xOodQqzx6eM9OIgahqn7SA7Mn/vllsOGGJ/5x3jcfoM3oTxPKtaSJ9DtZeaTQEKsPv7lzG2AexqFkoMVQ9zauqxbqpF+wpLwB+c9fvJvOL45BfviPOnm9B7cx4v2YkKycLk8fgczO00BAI2PE7o8sUII5FgxbZzOMWMG/Lmd7gd9fv1WnrcdMv9h9EE36LPZEGDbYqp68IeHWVXC2il/dr7+pYZEOs0abC6+FTQaE5LV1ef/OBHd8q1177Q8FM0iPWCF7zAuK5CxmNjY/Le9753nue9DRj1ne9617vYxf3T46ebwXVAT0lDY3RL/M+xY8cmWMGHZmZizo6O5tmR0YkuopG2IiZLV9cy2XbxBTI1R8clbFuV2spQigerqtbJUyls1EnC5GrPqRptijZlwcs//Mg9R+44OdzlyzeXOzq9/lQydwm7qznT1HvWsPM9SKY4rYzJzTMqfhZ434bzpU6ThbxtDwljAb9/dPN5L93+8Y9/5qnefBevPTedqZSXORy1F0xNzpG+C1RnqH4rDifQISbRxPiEIX1LMKMugiLSTTfGYt+gb1Wd6W/t3n1i0bZhkGvXrdYSwJfmC+WIOpjK5FoIoT3a1ZleAGJVTH5R26lEXJAWSgdBqHd197e9/z9v2hU/+awvve5Pk8XCxMYKTTbHxygiJg4QjnhJQaABEJFXRTamESCKl2vASttM+EGpwqFwkZyZzz4xUn3gxIkTT0nSrRsHKLByXrIQS0Xi80RaqbDC5IRuVPETIda9i1QDRxobjWtpjgv2IjAv/SOTWtlTl6NHj8kuNNInP/kp7onTaSENUeq3I8U/zrx9Fok+hGliLNSTz3E6X58XSf7MB/jOd76z8/Wvf+3byId4bUtz5BMgA4Xjx4/LvT/7GRBes2Rw/paBx6rzmQaeUuRAe3UoioKDIuedcy7eOzWWwG69JCW5ne4Db3v3e2/CvtPKDONQ2y4YWv+12Gz5OiCrfBiMPAV0ZyXiqlVBGuRwUPzbEIwa+SK6iKKN5JuvWF/r7Brc+cUv/uSBk9d65zvfGfr7r30tF+1ZcxPow1Af9wzRQiKHDR3RnStgHsxc5pK963t6jWCTHbwfTVG1OVxft1sqH9KdGN761rf6kVqa0iilTGa8rbXrrta2UFX7O2oxQksT39WNv2BKzSJsalKN0wRzUtzbHIUOnmJrV+v7vv3Fu0aQiOQnG4dl+/b3THr9g7eFG9szA8u70Uj0NcQZbGvuAHbVLRdxhClcWL58NWm4YOdonWYWXzjas/+8S16/85k28A9/+MPgZ790585S0XZzV3cvsQNyYxAuRj4QklkFjUaB1eQJk2RXY6xhktQUQXnzW/+UZx7EsdwsX/nKl+V97/tLuf766xdIkZjasOHMj1577bV/dOONN35z586deMC/2eN5leQnHw3CFpHIWdozPIjt5oxGG4M4ReVbv39bsA6sFGEHM90GMEYLCbXNDSfIyNGgR+GRo9jYXunv7ZcTJHf9zXs+sXvX3bvWAY9dgef+GEd6+/brnPnU1A1f/eZPvtne1HBPc2vjq4gmOiYnFxv46Dg06qaJUEePHpYNoC02wO25+ZzF4W2ONza6f7J3797EW9/6pjNR+3999h0/jn3qH/5h5+atF7gSifmzzzxjjWuS7lhqYmjYWqN9Wh42TXMc0DS5+pqryN4bK3R0RG/81Oduu/dDH/pQIw7c+4jeXnLNNdc89rnPfSX2omuuHzxy5IkLuru7HNodYGx0GDiPyh7wbk1D0K1IEmx92NfXK9FIU35uYf7qB2/ff+dVV111Azbtm2CasbvvvnvyL//yXZvwT97l8TUMjgwPgeH3GLvXpdE2Wr6mhSFqk09OnoA5YfbBfjRko7z9ne9t+s9b/rn3okvOH73//j2jX/7sl1s/+qmPvv9tf/K29Z/41Bf/5rLzN5zncDn71WQZR0tpmq4629rtSk0excBXrVqJeam+jF/WrN0kn/j7T9MfcVy1Ifdq3PPqV7/2fTMzk18G7fn3b3zjG0tW2aPzdyrHaWHykwMkj6V8wQUX7AQm+8HWredMwYRngwJ44wQ48nSyOgMJUTcqQ8hTwQzV1g2Dy9UmDFFwbJHvf+fHcsbatf1/8d6/OA8m34LXPodE333ffQcvufveQzdu2bzh6jvu3PmBM1Z02X2B4HkdvZ1WDTFrspL2BNeuAOvXrTdgsmtf8gfyk7vulQcefNC2YcumWy968Uuzzmr1r7/65a+/niDQ8A1//Jb7Vl582d4f3/yTVVanZW1PWxOoChU6JCHpbnEKeXZ1d0r3smVy1107caQtZaen9/b9+x97FF/kdffcc88H6Cmy9eyzz35o9erVtiOHD//1yMh8t42NB/r72zEhSJjC1HHR5Kgh5Ebj2KQPzWAnz+XI/unvv+k1r/tia1/z+uEj45+AuS+64oorHBdddNEO1tQHP/iRz/6e1rJ+4+v/Jj/44Y+MiKkdTVcEygtQfqiRW8ZgtMemhaz8043flEsuv9K2d99wp8cd+NkZr3jV4f333f1H7FD3vod279r2sY9+9KGyvXHP+LEDFzndPv+KFcsMU0phRE0ma2qKyMCKQUwZgIWdj8rxE7Pymc98Hqc1yC6RVSofi7e+8Y1v/ug73vEn3xsaGho5evToU87tybn/Tb6eVibXB4UIZRg0EZ+Iz5BTTVd66aoWa426i4T23NOcYy2/0jToM9dukQch6gVbLyb4kZJ1a86UA/sO2kA0LMuXL6/j3IRJx+xmm5PLNm7asP7A/n3RN77xrY94gx7PI3sOXoBKdx05Moo5pJHVmAwMniF33/OQ3PDmP2P/nqjsfGgXQZlmx+jwqLucXthyZOj4tS956YsaRsbGy2ThPbrvgYd6G5u8r23vGmx74onDsmnLeXLg0FGik6tIRZhkkiOycfMFsv+JYbngwstttDgu3HDDG6c4bjj33HMHqfy3UOrVhSQexEm96OwtW+3qXP7VX71PfnLH3aAZYYo0ojjIKWHDXhoCHZJt518hx48MW4aODDc5LL5LSGo6t7293QbjtBD57Dl48Ikrzz//HL8mvvX2ryIGsFH+49vfwxluovJonjzzATkxPs/iaZI7794jL3/Fm4xn/+mdP5YrrrzEimZ0jOx+9AwaH/0eQEDH1PS05cjQke6u9vaWoRMzm+3kwO6iT/yGTVtlZHyGQJWFDsFxotBtaNUJNI6iMOTz2Cwz69as+e6KweX/eOZZZ/3Thz/8wad8mt8kQ/+yez+ZsvPL/nR6PhscHHwx0cj/G2kJNg0dOLZiLZI2Q4BmBm9eQ9kaKe3qYsc1HCANDGkktLO7C2TBiVodV9iqjjaor1o1aJ1i70yimklaTlS7OnsiPpKCZuencaC0MDkv2glrbHQSeHLagMYG0BI2Ci9mJqeqOH7W5qY2Sy+dn6aALAmYPIxN7iEiuEZhzdHRY0he7F3GtGbNGhkZPUFUlZ2gs8CcnV1I45BMTA7XUdWHBgf7V3V19RtOtLa4eOKJJ+i/Y7MQ1DF6QiYS2jrPI9oqr1ShDjJOiJ5MQtUQkUhETZj6yMhInXZ2Fux0Wo87MD8mcQbjdZrxWLo0FQFHc2p6HnveionTbYTWjx0fM2BJhRQ1R1v9mEMsTm3M1EYqg2qyyfGJ2sx03ELQyDI4uIJdOeaAREmR4EotTa2WEOfMEhHWyi69r2YOaubjFN26MgihMOMD1r072tTwj2DwO8477zzMxdMLCT5XzjztkvzZAyRgcGjTeWvuGj0y9cM1a9YXZmamApl0JkQVfuLs8zbumBqfirIIbNjyFZy7e4i2J5BoEWz8KoxzHCLvQXJ20tOvxu/VgeUDlYZwgwWmttAgtBpPLpTPP3fT/vHxWDiRSFe5dnXlyr6jnOvMZlMWysuq9EXJLl+x/G6w8BCNgBxg/KVNmzY7m5oa/bNzs7ZMOklcpFLdcMamg8Ojw/75+RioT6oCwy10dXXGpqYn3al0vErGXemVr3wli3EiT78/GwxfBXIb6uvr24vW6chkM8S86rnVa/vuTCayfnJDnPoc2L2lF7/s6oP79z0RpglndSERr7K4HgMyPQwE1861qJOoJLacvWnH1ORUI6CHDZpU2tqj97S2RBMjI+MR7OYqwFT17K0r9h8+NBIEgqwlk/NVWj3Mt7W207ArSTvkShV8Hxr13k06bQkEJYiTWSUKeaC3q3f/zNxkBzB6jcWU2bxx611TU5Mh0hvssfgCyYX1AsjRT4Eo73U4LR/52c9+dhcAQnHHjh2/MdTk2bz0q37/jUvyZw5szZpt/lJpdg3bd5xPQcPoS1548Y7v/WDHxUj1HrDmTCKRu5VAXhQGvZDv2Xp6eh4+RDwcZruWYorQ1q3nkjZeP0zTIIRMdfXuh3bTX9SaGB+ZebC7u+1CGNNNQKYSS2Ye8rmsy2DANiJxiiZMAHX9hPTdC9g2sZ/04Dwmxvc9Hpt/fHL+MsLeDu5Xmpwbu/fCcy488/DhI1HdhaGYzx/DHs1wzbVsVGvZuHFjhrD2d9mzs3P//v3nA4dawL13onVGHnnkkWtTmXgDwbGptpbOH7m83q3DI0dXeOxs8xKwxYeHJh5etnLZBezs7ELoaxTwLsaVgNGv5fs+Xoe51g4WzsXknveQApFZt3z5rfc+/HBjW3PztmSqaG9pbigOj8bu6e2KbCE/JZwvZdn4wjFUZxN28t1Xcz0L6bHJ3PzCrc5QqJ/fXwAt69Dq3sF1g9PDT4xcS2JYoKmxdTwQaP5JLDlyAehrv5bssYnWfDgY/AFdePP333//krRUfubc/669t1x33XU2VKABbz75qhrnmVrn5O//Xzt2kINACEMBlMSLex5PaX+lBOPW5ZvEYVLaAi8ZF9MvaXJSk1/lJdY9rtjac5Ozpmb3nU+pd5+aWl1395m6xPJc/3A/a1XZieV5+tT4WM/6cvi5zlrp0zmv3v+cbaet3vPk7PGco+s+5z6x5Mx5a749apy+GXMlPrGvPd5rXX1m313sRoAAAQIECBAgQIAAAQIECBAgQIAAAQIECBAgQIAAAQIECBAgQIAAAQIECBAgQIAAAQIECBAgQIAAAQIECBAgQIAAAQIECBAgQIAAAQIECBAgQIAAAQIECBAgQIAAAQIECBAgQIAAAQIECBAgQIAAAQIECBAgQIAAAQIECBAgQIAAAQIECBAgQIAAAQIECBAgQIAAAQIECBAgQIAAAQIECBD4j8AbAhCj1cBpy+8AAAAASUVORK5CYII=;" vertex="1" parent="1">
          <mxGeometry x="-50" y="652.75" width="137.04" height="140" as="geometry" />
        </mxCell>
        <mxCell id="hO4Qf1rNJJDb-_p562cl-3" value="" style="shape=image;verticalLabelPosition=bottom;labelBackgroundColor=#ffffff;verticalAlign=top;aspect=fixed;imageAspect=0;image=data:image/png,iVBORw0KGgoAAAANSUhEUgAAALkAAAC9CAYAAADvPNxKAAAAAXNSR0IArs4c6QAAAERlWElmTU0AKgAAAAgAAYdpAAQAAAABAAAAGgAAAAAAA6ABAAMAAAABAAEAAKACAAQAAAABAAAAuaADAAQAAAABAAAAvQAAAABJe1caAABAAElEQVR4Aey9B4BcZ3X3fab32ZnZ2d5Xq1WzJFsNy1XuLabGFFMSCDhAIMD7JkDeBCKS0EMgAUxC6JgQ7IRmjDFgW8ZFtmTZslUsrcpqe53Z6b18v3PXso2BLzFaCxLutVczO3vn3uee5zyn/E95RMzDpIBJAZMCJgVMCpgUMClgUsCkgEkBkwImBUwKmBQwKWBSwKSASQGTAiYFTAqYFDApYFLApIBJAZMCJgVMCpgUMClgUsCkgEkBkwImBUwKmBQwKWBSwKSASQGTAiYFTAqYFDApYFLApIBJAZMCJgVMCpgUMClgUsCkgEkBkwImBUwKmBQwKWBSwKSASQGTAiYFTAqYFDApYFLApIBJAZMCJgVMCpgUMClgUsCkgEkBkwImBUwKmBQwKWBSwKSASQGTAiYFTAqYFDApYFLApIBJAZMCJgVMCpgUMClgUsCkgEkBkwImBUwKmBQwKWBSwKSASQGTAiYFTAqYFDApYFLApIBJAZMCJgVMCpgUMClgUsCkgEkBkwImBUwKmBQwKWBSwKSASQGTAiYFTAqYFDApYFLApIBJAZMCJgVMCpgUMClgUsCkgEkBkwImBUwKmBQwKWBSwKSASQGTAiYFTAqYFDApYFLApIBJAZMCJgVMCpgUeM4UsD3nbyzBF175ysvar718fdvms9fmHnzwYOUtb7imv24NZqampmpLcHnzEiYFfo4Clp/77Xn65YbXXNFWqhbXi8VtrdXK3lq1/uq5+cRgZ0fjrV6Xe3g2Fn+1x+vc0djcsNPh9h/5yEduOvo8DcW87O8gBZ53Jn/9689vSswWPul0eK6Ym52z+v1ei9PlC8/NTYvHaS8FQ/783HyhoVBOFxobw5mNG1f9s8VR+tvt228p/Q7Oh/nIzwMF7M/DNX/+knl7v91qu+jY8aFoa0u7FEtFsdnq0t/fLk6nw1kpFp2FXFFesH6T+557drtsVovXtFl+noTmb6dGAeupff2//rbTXY07Pc7hdWtXS6ChQQrFosSTC7KwkBKrzSZ2j0ecdqtkM0kJBAKSzRf/64uaZ5gUeA4UeN6Z/F++8rMjxXzxu3PxWDGTSklrc7usXTMo2VRNxsemZXwkJh6/T9xenyQyWdn10EFZvXrNc3gE81STAv//FHj+zRXu73I7Jiv5enk+NuWyWutSxtpeiE3L5lXrpFioysz4rBRKZfH7gpyNLWMeJgWWkALPuyTXsc6nFn40Pxf7caVqqcDEtUy6IMGGqExPzZZm5mbL+XxJqlWLJBfSFqvF2jd6UJTbzcOkwJJQ4LTg5Bs2bCsV0vOZzs6Owy632+KwO/q83sDhSrVyo9Ts+wuVYke0uaPscHpKbo//rIqt+tDu3XufWJInNC/yO0+B02Ku3HLLLdXt2+WHImt/HB8v1Mv10rZ61Tna6fd94c6dE3Nnn332tz0ej72rx7V+Phb/SClf9v7Oz4xJgCWjwGmR5DraHTukvrqp2TO3kHrNxMzIurnZbE86k6v32oL3/Ost3zv2wAMPD2/eskEmJ2ev9wcDt+3Zs/fxJXtK80K/0xQ4LTb5SQrX3E5vppgMNnibra3NIXu1Uu3OuopPSe1MJlMvV0rV+YXYaVt8J8dmvv7vpcBpZfKLCw0xt9Mzls4VqolUtuJy2UZvuWNn/Gnyeh5x2Z0fBD0fffoz851JgVOjwGmVmL0X9JyTzpf/yuV0hJ0Om83usLRdevG6nQ/tPjqpj7Fnz57aeRds2/21r910/NQey/y2SYGnKXBaHM+Tt7PUbe6Wxgafy2GXXC4vNZs1YBeH6+Tf9fXzn/98+Zm//za+v+661zeJTIvfPyATicOWLrul8sVb7niGRnp61Ne+alu0WChZxZ/J/vjrj2ef/ov57nRR4LSaK7lqtV6tV+rlagXWdojUa/V0IX+6nnVJ7vPKl209K5//0b9YStVvxea//++uquvm8azrg1dddRWM//PH5S/f8uJCJfcVi732LWsl8NdXX3fOmT9/hvnb6aDAaZXklWpRCPZIvlwUH3kqBamKo3o6HvPU73HddVv6MgXXeps1tGne9qKrfG3/4c4s/K30VW8Wh6RCgXBr8Lrr1iQzrd0W/7S/npCxK08cG/lwJBpcqc88NT67raO7+8pLXrzxqxapnbDYrVaPx2kMrFqqSrFYqOVrtp33f//RyVdfta6z4qhtqVZdtrqtfvg/v/+IiTSdwhSeViZfnNG6uOo2SWWzUqpVSbf1nMLwT89XL7vsrPajJ+b/vuaxXuKulxxSeMAdmZiSlGWvFOoZmUlme4+PPvxuh8uSnjzwkCXg9zocDs9VwVDDAJ6HuN0uibSESGEoriUI9oF8LlVxiM0Sj2VJcaiKz++Gyetlh0Nec9XrrypX5qc/Sm7DNdVKVhw2/76XXbH+zf95x2MHTs/T/u+7y2lmcm5nr0u1VpcSJstcfF5cbW2/9VS1WKpdNafn7GI13jCWikiTfVJ89kFZU9glzohXxqfiDc394TfaAjxe0inWqluyyYwVa0yEjP1qFUldKIoTC+34sWlfV3eHWDEUQ6EGiceTIpW65FP5sq/Na+m11dumyvVzvU5pqKPmuMg6h9s7CJFMJv81OeW02uQkkkutXhOryylzqYRYLBapkM3y237ESKWpWL0WW84mFk9KZjMZufv4YzJtKcg9jzwmlZpdKmmxZofz1tpYyZocmbMusICtPB8uiNQqVfG63VLF/5SalxydiiT4GR+LSSZTkYVkRqZmZywuV/Q1C6n079ntlkClUhZL3S/VitXIu/+Xf7nBsX27nN75+m2fmP/m+E4rhLhpQ3+f1Wq/LpXPeWcyCXE7XdlSuXjz0MGp0f/meH8jp73wouWrJ8ePvsxXsPrPO2OZlGHKcLBF7CSVhSMOsdSK0hjwSa2UFywTae1qlVgqLV6PT0rFkuRwrh0gSiWkeWNYc+ozmCgusbuUga3i8fmkIRS2lqu1FTWxnDM5OdnQ3NzCd2z6XXvZYvE/se/E+nBwm/uy81cn129u8w0Otvkef3zMRGv+GxxxWs0Vu92G7VmSJJLQZndKPM8c1Z/3Crz/Bhl+9SlveM1FKwhO/UnV1tFi9Rdk5sSUOHuaZFOwKgvOiMRGcmIrIrWrLrHYA1J31WUhnwNeDIgP5s0h/cvZitjtLgk3eiSVTIgDOoyNj8rgyuWGZrNZHFJjcZSKZafFQVjYG5T4fE7EWpZ0KmlbtXr1VS5X85VDQ0df6fLYj1vqbvEF3XPvfOM1f/WpL9xmJrL96ukz/nJamVwwTTK5rBSqZXCVGhOP+uf1t/X4wz/c5nZYba+/b/fQi9o8dQmEAnJgLC+BUkoegpm91oxMprPislokW8xJtKVVJhemJY6WKhRrkownxI4EZyXLXCFLoUhROrt6JJVOS0OwXaYmkgaUWinNilVpYbFLfHZOfFaP+LxeSSRL0hDokENPjGD41CxOp7PD6Yh2NLc6ZGIimXdF7fe8/e1XHd+3L/+UpNixY0fhJD23bd9u37F9+/8Ag/DkiJ+f19PK5AUcsIl0XKxOp1EaUYO/67/FRnk43GSJT882Lu8Ni9PqBfb0SSw9LJV8Sjq6B8TmqEhzvUmoS8W5rGhwS2JlpwTcTeLjuZLJuHR2tsDiONs8u3KixVIXdzAgNR5+ejqJmdIsNn+j/oW/YbL7IQqvVY+FBeIEhcpIb0+nTIwMc05N0smCDPQ2is9T8Ny/69Bfliu1taWaJ9fU1GopFUqFbdsu/TYm0PGLzon6P3vjjWdt377tju3bd2SeH/b5n3HV08rkB6dHcKQq4nW4F60UJrwsp3UIz2lWKpXWmj+YGYsvIIXzcRgyIBUwfgECLYP5kxuPHV4RC8yt9arxXMZgdBvQqBXo0OVyS7lcxt/G4a6q5rIbzrYF3Fx/1Oa22SwgLchpXfFwt56jCyKXzYmXRTUVn5O6IypnvWCt5JIpGR+dlsceS4rTE5S29s7mY8OxP7KITUbHT/CdpKVer18TDTfHitmYwx/0nR2ytF/5/9764hnGYNGxJHI5YMtFU55fT//h0JsCM/FStJcsjpole9MtDx9+PgeyZBx2ww03kI1SvJzKn6Of+9yXfsWgCeI7AAhUZCHddFI9gMO/rcenP/3p4of+4k3/fuzI6DWN0fCWTDaFs+wA9/YuMmOtJHYLvrsiKDBsApOlAoOWQEZ8br80+5rxQfIGkyujl8sVg6lLpRJ0cEhLS4tBhzqIkx4wqPFjBV9UCpX1cycmTCbNIslLxO+X1asGpIADm84WZOzwqLgcbouHwFqgTryh3ohWcayOzafk0KFRzm2V6VjqC3OJhWqJLglNkUbg2yICBtSHe9kc+op+AOpU2MYYBW9sxvwsjkfhXp0q1UYKidoYm5WFaTHGqN+vPX0Nvqtr1biW8R3+pg/25MHZYoG5bfWqVDnJgurLVqsTV750zdfT+WKSsViUTtDGUikVR372wyP38tVnXuLkpZ7T65IxudOZ77TZHF+q1y0fv+66645qocQvjkTNQyWBzZDoOplQ7hdP+y365P99+F+PvOedL79lbHT0jAZ/0FtpCqm8RdqWxe1x4TgyM0jpQqUmeWa4hrfhtjsMCa4TflIyV9Bg0AeGsICoKKiFCaOmmnIzh06uHirRlQEXf4HRSywgnNZkoYD5UuI8oMh6WRqbAuIcxk8I+iWVLxiaRKpO5IdeB23pt0lPbxPR5XxnjUW3EIuB7IRZpHYWHhiOFXea8ajWUAbWqKwe1B/CyMwPn1O5tTguhqNwr45NX/VHx6jnqoYyfn/yGsZz4l/w6y89eGrDVLVaiROjDeczma5UqXiWg+LfxbiCnlGzWeyO71x6Xf9jP73lOIGEUzuWjMlDoRbZ8/A9zR6312FzNP/yUcH2ZSYoX6jgmBWA3xqk+BvRmb98eL/i03q9WrnPardC7Kq3rbkJFITJJ/cmk0+Ly+YUt9rO6YQhnTBAhJR43EQBXfHA7EUYnfgmJo0u8BIF21wQBrOLHfhQmYmUHqSami1ISZWQTzKUDQHgIqaQJZkt1OCSBboZOJ0gKzBIDe3hxzmdnotLsWqTuhVTiFer0yIUndDioyY7d08cPvfszlQqkzMkpDJmicWozM0HrC+959PcqNFZleLK9joORmi86th1jFaYv44ppt/QGAA35TNdp1Y+g9l5dWBuGYLsycX7bJqqaUVYQUBfpVquS9jhE5+NRVwpSVkFAbRi0dkstvpoRTy/RFA++4r/9e9LxuSJREKam0Osflv9GzfdrMvbuPtVb7/KNVucre35/J6y3WUHTqtj19b4gThIQ6ddkeXf7sPhwURxeQzmy2LTKqPlgAm9Xo+UtAgbEywFLFolmquayVDLOunKMDBVIh7DTIDxkexNTU0qFg0JiLiC4fFKYB5lGnVe9VBm4g8slgJSVT8AqcmkxA+pphZi0t0QEWfNKW1NzXLw8B5x+pukXgWHzxFgs1tLaJU5lMUP3v66jV+r5Cwjns5uwHiPxCcn8CUWuKALRioYzCpWt97SOKp1some5nnui8/BeQz9qcPNZwrfLJ6m7/CvjE+efhXj96e+8nNv9Htu0NGCxy09ITQN/9179BjD88DgOO/1Clf0sAiquTtvObQkDvOSMXlLKCmP7RoVT7Da8PY/fU3HwktfWk2Fvb7Uvv2vCNZkmGf7Zq1eramz5Qs6kGiq7qrNmUz6one9a+sDn/zkzt/idERUfKVmDRPIyfAfsXbxIA2RY+KB8RbKWbF4HUwNxgoS2ZhITIwCjZJsFo8UcCK7u7tlZGwMCewQpxtJakemcQ2XA2mPja7fqSMZ1QQwbHcY3QKnal5Lnuv4A+S3YBMHgw0yVUxJj/gkRK+abReulSPjaXniQFz8nnrWbnX8a19n2496erz3v/eD/7EkTPJzXPo/8JclY3KRpPR0DEgyNf+H+3Y9tM3X11sHGHbA1xuZmw/oHAZDrr7Hd086srmaNEYiEl+YWdh4Tuvh324Gh6eBwWHNmaNH4i3RRk1QQT0joctoJDuRy9nZpEynYOS+Pj4rSDwVE0eDqt0ybC+SBSNXaax2PDEwcbpsshBPSzabN957MDtU6jsxTTSZK4PUVhPBhfZQye3H4dTfVcoND4/I8oHlciITl77GsARqDmn1NsiGa1sfv3f3yHcvveqsj3zyk7fkd+36H8iNz9OQl4zJTxxuSFotiS9X6xOvnwq8rLXPflBScq34ix+VvKe5dt1bN7dmF0qv7+0PN/gDURkdHZOuQLAsReuoPtvKLT1bz33Beauq2OgOoDnjeFJNlstVSRNAUQisp7O70tjS8NPt7/nY5OJJv/rfd771FataWjtegFNnnYs94/ST+hd7MGgPWk6MjUx3jcfv2L5jxy8NnPztR7+x74/feOUHCrHUx5o7Ojpi87M2fzDoqKDbi5WihMIOWciVJZeaROXaJBRwSQ77ucLfgiyCplBQXVUStJDyoBvlopUgj1cySRJesMtd2LHqwFZAYioWzByYucpiIUIE+mSTQ/v3y+bNZxmQZGo+IcNDw9LW3VaaziSqXX6Pta1eHOtqjr5x36E7d+87dPQpgvzT9lcH9x+LXeFwWnd99os/HHnqD79jbxYN5yV66PO2rnoJmUxf8oVDodZ2rywU6zJ+ZFgcmcj/W/vS4JeOHpj9aSKWOEMIrKiKLuSS9Y6e5n/dsvG8z37r5v941z98+DMvjzZH61kgM3XWajWcOGA3hduK9FDUZqEPPfRQ1uv1bq/5Y9+NzxfIyaYOOh+TfM4jHmIq+TwVR15XrbPg6RybGf+7Ky9+xblewuupNL0XQRCMoI1h75IAhfT0Oj2W23/0w4Q/4Pprnyd4h8eTqXn1ms849Ne3/J9/nrjsrHPbV5zR0O7wuf/x3p2HzsYBtTpcLmlsbpX9hw6CeDTC1F4WZEYaQDIqmDGjI5PS2tKGE+piDOo42tB2cQkGQowVZsbh8gb8oCNWUgAySHPcPTRFCXs8vZDBPGnEjLHQxWCMJql9EoslpJgrVjdv7run6Ai/Y1k4K8cPJoo/+NneIx//wOtfZK9Y572RwHEo5kml8m++c9foHy7rDH+kra3h3/PzXtn+mc88Y7U/4yH/F79dUia/4NxNV8/PT91UL5TDFSY1KC2yt/ywXLzqzJs7u5u/vfPBw3+HNBuYnknDuHYSmEgxzeBhRzyPzi8kl7tcLr8iEsp8apdacJCUKRVeU2RA4bgFnDgcs+FKuTDbt5JJn5xFOj4JQ/IS7QxJZj5Xr1UqAZfLsaYDqE2dOD30urpgFAorwzhVglEOoq9TXAN0Ng6EdbS3tasem54mmWqxc7TeN9IeBb4DFuSzps42y9TIVC9OZ7MiKIfHJ4WFKWNjExKNho3clKbmNpmaioGI+I0syyymjBvnNUaYv7WthUWwALMrrm0DOWHxAVEoiqKYswaG1O9MkuMSZqGkU3kYndd0EufMxSvSHknf0hQcz2YqE00tHuz1INohJ0d2HexffV53Ilhtj+WyCfvc9MwGf8BrLZaro2DkU+tWrSjY6qFv1uuVPUVLfeTDn/7ynNJl+7vf0E4eZef37r5/avfuY2P62f+mY0mZ/OUv2nS1N+S5yVtyhMuOmmTAQSvYn9lsuQxsOJ9J5Nsawm45dHhMzr/gbJKQJpFoESnXFEVgZhmNFhEoYynaQB63YdNqeq4yeBn4ze3G88ZMUMb2uHzkY4MWwMPzRAbD0SALgrA60m90ZESaYDKHD60BTLd4fRBuFkwFc8Wah6EwH/KVPHkkAQIrR+WMwZUSxdFL0cYuAzMlEwsSbQqLx+sCXXHK9ExclvWvkBMnRnAkO2RmYV5G0DrRxkY+G5WOjlbGTjAIs2p6appWeH6Yl8CR1WlI5+PHRsg8tIBCsWhwTK20fUwRxQzTMs9qU6e1xKJQVEbzWBRaJFpqcTNml4xPjEprawtaICu5UkYafaoJCsCKeelhjL04xT4WUrXMM2WALXFuXaAV6uBbuV6czMf0TEZy5VqitdOfLiZc91U8+R1nLFtl/cmO+68ooBzS6eI37N7L/4qSci0qL7e89uO+lhnYXWNWM4/LCrrIE//4tfvGb71uqwfhYdlz6x7wldN3LCmTv/bl515NKOMml8MVnlyIywKppyo5y+RTKy6LmjUcqFSiIqFGjZ5pDkfRCItrIEBVtkpbIygA5yqEW9eAA/RQRkfwGn8/iSWrra7nq6TPZTT6CFqLScOaMmA6IGMgMRaP4rgsHB2LMqAuEBv2rt6vgrlg/I797/P5pYF8lEyhRv63n/qOCtK0geSrsoSCPhZSHIe5kfcNQhSRbEMYDqZW+GtiYgLmbTYWI/1kZGZmlqIIcl60UkLHzz3nplKgTzpei6Qz+Bd9IVmYI2PRG5YciIkNxKXEMzlJe7CCtNRtMLmQrTkXMxZPd18XCM0EwRQXeTROaFKUTKqEJvTzDDaJkkYQRjvabC2SqeXFik/Q4LFJgXPyDeTMZJwSbse5rbQB3M3VFogiLXDteCLjoU8lwE7t3173km3/8N07xs/sbZXKkSnbOY5KzFZ3h6TmPhPVl3/g/MiNX99+izzF6O9971vCqekRYOCc3HPghKxes5nkMp9k57JJFsRTiNklL9nSmIql3+kJ+sOWSvmr9/xo726DMKfhnyVl8j/+w4uuRjze5ITJR+OzkoCBi4WyBEAPRpB+Crm1t7fxfk7Wndkjex99AvUdRfIGDZtbGVYPQ5KjwmtIYA0fn8zGtT0ZlVMHVCXh1NSkwWDRaLNMU47mh9ksBBRc/qDMzC9IK+gDfPzk9Vg8LJKTkcUqrXXJcDXMokAwJDGkdGMjgZ4CMR98Bl2QEa9bIpGQDB05gsPbYVynq62dpKmU5JHCOH6cX4WZQ6AewwaTKwqiAZ84C0JREU23PcL3NYRfytUl2togMRATes6c0vROTcxLcwt2P4UYxKIwY4pSLVjk0jPQJmQxkvcoc/luefXvnZB7dpNeUJhnrFGJzc1KWSV9OIDWIv+lrQ0hVJYTI2ME6YqZyZnJY/hL62Pllvm+YDw6vewdktX8nN3bpa+j9xsr1ne++cYbFxO+3vCaK9Y//Mj9e0MNLQgMjR0AsBIvaEAzdfT07YyE5y78PPERfdCtV2wYYEJvPXF4ZGVHf+dtHpfrTffesWfqlIjw3/zykqErej+idgAFFos6UGkYoYbK1KheGemqjODRhCY1FZjfLOdEmyIEVMCBgdhUqqqDpVEztUuVIYmV4JiVDZtVE5q0yl8jcou8XoUpmWSkpqp1vkLhQsCw4QdWrhbP8LjR3D/k05AcpgnSvgRjq22tiwjbwNACcD1StSApxlPgWuvX9svQ0TFxoOIr5Rw4doN0sBCxbXGUc1LMah5JSWI833RiTjzg4G6e0+/34BhjL7PIdPxBJL+m2aaJhIbDNOnF/HCCpS8sJDB/oANjPpWjo0t37Ugbkc4KWi7Q4JWsPSPH81aJ2Fmw/nZpjkZlW25Gxt0peXSyAXw+KJFOOgpXwsCc8zBlXvY+vpdEMxcIUZhF0+wf6O1Zf2T0CWkqtUY9sTQI0HFptEWkGmmXluaAbbCjzUdco/rqi9datn9m55+Gw80Iro4PNjS6/+nQRKm269Yd85de2vfnw8NDl3Z1vogZXGRy0rGggbPua/AxwzKVIwftVJ7/uXz31MTJM+70J6+7pJGY7rvg4i3KiD6kWB5IrEoykUb07ITBNRGIgBAoQkkiTTABq79cISeDMDWdbmFopK6aLQBuBiNiqNgxKzQMraifRgjVNtdr6LVwVGGoxUfIpTIy0D9AWir52tipCap3VBOEDOYr8V4zNDT/QlcPKAv3qhAa97h9SLFJA+koVizSiDnR09Mnc5NTpMzaiTLCwNj1+jV1igs8k4aup2JzwH9qiqg5tbhgdAEvLmIWLJ9plFNn1HHSZIEZS/gcKsVPJmU9g4TP6a36Li7Gp1pDizAMoQBcOYlz2+lcbuS2r9zglKZvH5XAuqDcdsgiUeiYYSEkWAhBqpasIDnhxghz40QA1KDDiJEUNoub0+pNS/v6PunypcTnHKJ+wyJTM7HIQrK4Ys2yZat377N1BIPRNy5f0eM/fmz0C+jigyt7G72XXNmeTxRCY66q4+Gv/9vNIycfqmd5hJxkeRVtu3ExHB949O59B0/+7fl+XTIm37CmqxMO/DN4LkqQmucRCfsCRmQwrVl0fOACUVAmUNXq9apjSXiZsLbNQu4HTJnL4fAhVbMwqfKHh7C5Rg2L2RK2Z5Zc6ozBJBoF1EMZViW5Mn4ORzGM2ZEnz8NKFJE2dLBfXfp62zivTOE0tjcMl0gtkL9RMtAOdfb0/urwzeG4MgxZRmRy32OHcDRZhNj4jTiVRZAelc5axuYmHK3SurmxGQ3AeGBctfVVTauvQGED91tEe/R3zU05aYblSQWw29g+hrK3U2XyAhVWqh3U0VQbX0vtGhlXKGKX9o2dUuHZrlxJJ4GPFKX1TI8cXt0omfKENHoDYsktsHh1wZaNHCIn48+Stz5DwcZynl/z5K1Ov8wdGZUEjrC7bJfelW3S298V4NnWPrjr0IXHh0+c63c3t6XSmXpj1Ftl176rDg1PvjmWtGfWrTr/gS986etjxiQt/mMZOxqb7xxsfEc2nW4IhJw7J47FH33G35/Xt0vG5C/Y0hehQ9arEOJRFXuGo4fE9NAgK9AQMNJPM0yymiQ5GDfS2GAkMqnTZy1pViJZbyUcPqSKBcaxYjBj22Mb5w271wF2rPa0Yt12JKFW0ehRq1VgLDfwXFK6u7qJoi7ILElLJezIShm/By05NR6X+ZkUi6sE6pFgwYA65KugJ2DRVN/MTCeYWD9ahQQlTA5ikoYWCGBe+cnprqgZhfZQTFyr7k9m75GVyAKhkAFTR1Nw1LnWzELWEssLHoQYSgcdt74vAvNZcBrdHrSRruJTOFSbLBZr6L3QGtDv+hdn5G/OcMtZu6qyNjcuE/fkpb0pLqljJbmopSZXHD8u59ticv4fl+WRo/iRdMhWM08PF4a9okRedwUUCZNG83WAQseHZ0CtQjI5QSR3ZoFkNJG+/hbp7mn2FatzdCVIWgul0vJDQ6Nnbr1wW+euxx5z+MK2+oteefm4s56zHTs2U964efWfRu2eIXvY8WpiC90NoYbDoV55YOZY9tRstsWh/5f/LhmTb97QG8FDvB4mjKqjqPaoGgj6nxPxHkEyelH3FTIQlREjTVHjb1kSnJxlqyxb0S8PP7xXlvW0y8DyThkdm8emdsggnx86cBS7L0IwpBOJQ2IRozZSSpFkFsLlKtGtTPo8kF53Zw8S1WksjnbszJYIpWQgDFEcrQCmi5fJi4T90o+Tqe5ZE4UQLY04nnPAmYxvWUeXwcTtFBKXqADywrxamqaL0cJ9FqUy94M7LHwWBNFQ7zZD8EY5xsrgFAXS59ZDz1+U5vga+AZZtJgvgF/AtU7p4Frg3Wg60B00m5piDz7ikqN5l1z0ggXJfrVHPBsTkpokW3GVTSb+fl5CPXU5cH5Y/vGWHqmngWKR9gzQWIiaM8NbNBPuCkE8XdCVQgpQICLBkA+/wg3tWFjkJSSyJIwlcwifIr4LZlzQZ2vr7ZKhEwT+nK6BAwcPX/bwrr1nlKyVLdf+/kXxVKLw8rHphfuCLu+t2Wzx6pZo2+ce+OHBA6f0/M/hy0vqeJ68r0ovRUBOHqq+1fEL1aziDTcSySNbDolXKOU020waowGkHedAaA3O6HfR9EhRbHDwdh84tQaF9O+Kn2sQxpCS3EAdUrVDCpkccJlLDjz+iLR3DRiOYiKzALJxFIbiPEML8F39hYsfKp8wkI8czqQVKebyRyXPtR4/9Lh4SDuYALnpbW/kfCSx8qMOiEOLBpRpF58JCBJN0oqZFHC65MTMlNQZvwHpIKgXF4TxNWPsJTRVOBzhu5q9x0OcwmFjIWtCl4taU+0IYMHksLRUJTYblHfsrMn73jMpiW90iquwILWfLci6y2vy769xyU9uaZXWjqwUM+D3T97/meO0Y/ro4qli3mm5H1m68gTRXLAu4gkNFF5EqWmFsQMe5orCbdJlJxAuQ0cOYe65cNI7beecvTmULk78fiqZl5/etuuyar0W3XTBipu9fvetrQsdgUCjs/tXPPqziXKKkmDxLief81fc87l9fJJYBjb+JJOrqlaGUMawQjxrHUcOpuqn6HeerQ5HJiZJzy3wQ/sGQv06+Rq8UHvWyhZDddSwhvM11F4ADVDVrCaLBUmm11Xpo6+AOuDXAcwdFxNvhUlnJIRkXrNxgEuqeFrMg1YVrza1fnFRjSHBmMIjx8ig9ASke+V6eeLgcRaJ37C5m6MRzlepqT/wL89z8pmM+/PtGnkqYaqFbK0dMgziUuRcdb51sRvPwbPouZp1mCa9oInd7jQn/VSOPH4KHbuMGIQLTaXwaoA8MF+7B5/GIoW9FEnPPiHt6woyf4x03yECYpPLyRdCi9DrRTPF6qTW6qHjXHzDv4xbc+ADdrQuvkuNHHUX5uBqNOrkdAw6gYUPggbWwd6LRuY5mHtVwq2k+6LRZubHiQeMsnVlCNTJKZvPW71KBcvQ4cNNGJqrylmrv6UY+r9bL1kd6uxq/0Hfqg0nMoS958aOOTPJ/FXlWiWi8iQZmz/20N1DdzCiU7PruMCSMrkxqRBJmVUnV38/+V4jjXkN/GBL10AG3EihKAEXd3OnzBON0/MLRCGzMEygwW18TwsDlKEKJD8lEzmCHgoR4mjCWMa8KNNhq0udoDTOYYuaGJgNB48Os1doWioNQXJIQBFUFT/5nyZVke8nJUwQpZ76CHOzcZmmQLiaKktbR4OsWr1KRo6PGkEZRS+QRAaiooyq99cxLT7f4iKzsGiL2Nh1rukg4kovGWN8+vx6rh56fhXYksouxnjK82Zg2w41paA3611XOhFgt9jQTOE2sh/vm5M1Z6bloXOaZPVG8lv+3Cers8fkkcomsZMhacsnAQOI4TDGk8LJGCjU0cXIH/iTpvaGqG/N4NBraoKf/BxlehYrXRdqTq9Mzs9KDi2LkjYWRwPnq1kH/7OQi3L48DEj7z5LFHn58mV+J5VJ+FDLisXy+4eOHHvJ3gP7hlw2V33NmjO8k9PTl/o9fueJwyec5VLhn8994Yp77//+4fTiuH79f5eUyXUYqt710Mk1mJ7J1ffK7E4QgDLRRCWsi2COMibgIhPv4sHVXnYbzmaAniVGKJ1FoJG8UAOZV1w2ih194sS0CnvjWLw+9+EeWjQ8hbmg1TLaTDSJw2rnel4v+DoZfWrWuDlHt1KsYmK40TTKsJoolaPwsIkIYp7AjgN1PT01IbSi4HeN2DbzGQEetIiaUqoFDK3EPQ24k+vWmLgE0c/xqVmwfafhS5QVu+ccXRiL2LnSAQbiMzvnqJnjIsNwGEyeYbIKHNLUgnnEYpmcGpdKzgF2jS/DLtZTMxOSXSClAZ60WFVTBXDciULiVSu6FEIzKLy6siUqh2cd8rLOeVn24ph83Xmh3H6bBX8mJ2//z1nx7CXZDbMwam+Xcce4OIiu6hiVyXWcSk8MROO95g41RhuAFadJJchIV1MDcQqRQ0PHpb1xHeafXZKgM0miqlrlpP5JGEdcs0V1vrU9dwa4NQma1d7ahpMrpEuQgSnzCK2iCiT3yjUrNwMfb04uJGXnzgekvaeZmEoajSqzqzdtePAn377vlBlcGWXJHM8VA20RoljX221WEjFUUi2aE8ZEIz2Hh08YpqoPBzSj5VzhkBGiTpN/MUUyUo7XEsvfRafXBC3kZpCuiocX+TxD0YHTbZO5uRnJ62LBgbRRQ1VIM2mKryPKstjkGsCJE26vw3jKWNRQia1Cc9E4CE2RLRQTRbL5FiSfxaaGKfB5qbgpSwpnOAWDZ5jFRjhOnaoKdm6YxCcSKo3kK8XHNYKpEVgVnApb6sIDWqdtXIIfwvKYSmoOqWnjQLor8qILenZ21thtWheFagbNuZnETEPwk4/Syka9LqKE2hAUKQd2HQx6SPaKirfBxrPbJRLF8WtoplsAtn8YW5iI7NTMpEFDlZphcPzlnUCfh49Q7GyXC88uyC3D7bL7oEUGyTsplB2y8wDRzY3kuhRDVCrN8yztLFaNHMOgPJOmO8ySihAkLbheRdKTYuAktnH82DgJaBGczDQQb14GlvVBc3Ju8KcmiNxatHWGCi3QMC2wdgP7kv5mlOLZGGcVAvkCVE4xpw04/BRaM1cZhA/PMDWFSUiEme/3LesRB46tj2fxun2+XC6dcjfX7opPAMWd4vFsQ//XvtwLX7hhwG9330rkcqX2FlHEQyWEdszS6nbFkXV7cZVE40xwX383SVC0ekCNPR4bpYEm0lzxZphabW4wCs4lvwQVb0M9ljQAhOTV3GubtyLBSJi004K4bSWJwozTkxCLp9F7qpSMkGOSpFWb6s0IE0dLOiYph+rNQnS/hDwNRGWzBoPNMulepKHa/i5sUCV6hJyVKtIsxLmKrBSIfvp4jgJ2qouJ1L9pPGCC50pzXa35ZOCGlGcIuAFKA7XDiZyy4BS9wJeDgcCdCdpkiZxqJqaTwghdLHroZOjbk5NSU4+X61TzVP+zwBSvL0EDLRsscc2QOrwspoDWZrJA08CmgSAaiNXr8zVI7UlJrXi/XrWM+edmERURFBr5deKoJxAKCsPqoWaUmoSJeMGI4C7mxtB1FwDAikno04g155HBKKPQjPgucj8oTmDXur0mCwg3vZcXZi/gF2luUb1kwVm1kcuTkxBF4BU0ufKCMrnyieb2WBE4ReYJncfzqWYAzgxGv3fnfQ/9gSxQjXOKx5KZK8fI0MymVXrzYJgYOsEk6zNHTDTMrRixlyCN1ndqDrU2wVQMelnvMuwQv+zftw+zwWIsCLWhaZkmdlQcX4fBICe8p1qhDNbd7G6QBqePjrJ+OXxwP+VgWe6BQ2WhOgcoS3NhClS3z8zNYwo4JTdN1h5miRcp0oBZlCOoVMYBrmGCpAhU+Vk4Tsa1amClYU4cHTqKnY6aTiaNxbF27VoJggpNT46jfUaxTTUdmOxKFsU0ueM2zBVDwsPA+rw6fnXaIixEQt48exFNNkw6LEyAyWON14FGlxvcPD4xIRk0zM/bxYvMjiFmLHj4nHNTksRpHVy5ErsYOgIdxibnpYzQSCEUVDpu2rTRkMC1SkL2PXqYLEjMQ9IiLCAxiwtHx6VmlOL2OldltAZJaQ0NRtBLmfKRRx9kMTJG6O312WXLpm0IjbQ8QoBM83nUHE0gHCrUtZaQ9tbCHC3uiLoyn94SJigO6zFbVTb0dojFR3EywPr+vYf5rgehREozC3f1qhUstDzNleg2Ro6P+hUu5o8RGZpZYeJx20h948Z+2fPT46fI4k8LjVO+0IY1nQOzyeytTDJN5xeRBWV0RS4UbVEqq3TXPiVrVw/I4EA76hHIDY9lPB0ziKbFA1oYvGgSqCYga1EDMdjE2v9DV6S2UEuiJuMwNjVmNMu0AB0GiJgWUHcOQ1ob9iX3DmCbW3D0XIrTQ/zOKIWzOLYalczDhH6yDjV4U0FVJxNJmJEUAyS+DaZX00TzTHz4B6oBtNOX1mWGYAhFTqxEDI9PjZGAwXc4X+10w0eA4TRNoYBU1eJudbg1L0dpUKPZiDKbHVs8hXmjjK2BJT9wnNLs2YdKRXV6KzyLwqZO7jM3N0c1k086m9pYtNxXI5Lk7udhmhx56ioIFFKloxY0A8d2cg1ofLL4RDWKQR+65dpwPFVLpVJJpCuleDx7UzPtpOnDqK0usrk4ATog3YouZGIKmFB6jmrVeQRALEV+ElNb5xnLPJtqNls5I26ETQofokjRcxnULBzBBAVO9DWybOkNaRS2cA19fjXLdEkrZKlXQJTR8Tclh58Y+rfG7p63HH3oaOrZdHmuv+tVl+RoCwYjjc3+65f390aboh5pa4ngcDRLgCy8DMQgZkOcnodEekRCXpgFJxDproXA4UhQYprRp5AhSVRwlAImKC+1rWEeFobasyrZuyD2Zd2UhSGRT4wlsVvDMGwFOEvNEK2+SeJManIUECROVgX7UAmo5gEGA+PRwmIq67mXQpd1JFoBBnHTENxLElY6gWT3EVxBI6nkaY42Es7XZvi0egCp0Sgqekqy5NxM0fJO818UBaogBfmKsRiLIDwa+FEITTFnirVRz/RLAYXI0saiAQ2UwiHTxC1dADU+17/9wg8MXuRzheY0wJZHkrc2RqWvpZdYAx298E3yBKwqNdS/D1t3geAUgsKPqaJtMRTzLrPYIALPDnNDS07G39AYhsKbdRzFBNLca3xP8+cbQnh9MwTiEA5sni3zc2RzttGvBbNInfEsqJWakopw+WD4KVIErGRXWsh714XWScrwDQMDck57VU4QaY6RxlALVqSIn+Or4HCTPpxmrjVPXzv6Kn0WSBbDYsEv0Fx80pRnZ2JkR37hwANHdi4Fc7Lsl+ZwNdBUHsmZQnolE3mjoiWBdPRj6/b1dSMhwqhPJC+qXhOXNOd4noKHaYjoJWlEQ/hGwxvUljonCEacRlATpIHaihZs9jp47Z5EWf7uUFbujlelDKRVrmBSuDBnqpgs2KZF/BQN6at01R4oTsPeI4cchjuO45pBaitEZkU02vlblQkPkM+holLvOz8/b2gcVes+mL3KoszBkIkEzKTSGkaxI621X0zeuBbBH70TdqQuxhrXUZhU7UzVXB4QJaWDIioa5CIiCONhP2vxg0ZvYRajbZq2TnvWT0V7k9u8MCXEAF5d1twnA9FuqbOgE2gzVI7xY+ccTUXIgF4oylQjH0eLnnVcFXJbYGfjvf6udnmdsRm0QnM1ALOqaaeNhApUPmlhigoeXRT6HEqHAiiTmmcFsH0H168jtZ2K8vCzurENDQqD1rL0ewnJHtIW3nB4SG4AyTkU7MMWx+HE+SzVed4GdhfhHosmHdpZtSjXD6BRFXp12r0ycXxKFqYzjQvppH9gYAA86dSPX9SRv+Y1t25dNlBIFW5FZqzU1szKxKrCNVPQYBYeZoycbSvq8YzBPsyVDiNRSvOQa0jHMapdZpFUalroA+c5n3UP4yE3sHmRZ9iKMAkawYWUUWzW4cAR1KQpGzWcOJluP9JG+yzCXBqA0E5T6qwqdFhBQ6hzG6FSJwI0qfxRwFZW00hVvKIhmoqrUKNW7LBprsxOzVHt084jYWfTho2qVEOiq+06hz0+logj4U5CiUhKxqgt2JQhNBKoJopOovokasrksySbweghnFq1i7WYRA8LEKZaKzoZan7ruXoYzMk5inLoAmnHr4ioZEQLeaBvjlz9PBmdGi8JoL3I5UTyk34Lgy8uqsVMTXVSDVNKTRkONRPUcVZTCUoZ91YtxBYwMHEd5AdfBpo5CTY5obE6oEY1Fd83YFPGfhJGrdWx920VmYlPSwIGriGk1ORzkOeO0SI2gniaypGMabo1qBj0Uo1ljEe1GPyg72lKJcOHJmViOCZdfe1D+ZjzVSOTTzxiDPgU/1kySZ6CYZRoHgp5dZsQnaLmpiZDhiijqQnR3g4Mhq3HDnBIZrUJsVF5SAM/5lVNAiPJCSK4YBQgi0UJro3zmEvYnwAGOdoF5F/di/rUYMhiOVsFiWtkAKrtDKNqUYTa0Q0gISFQgf5oi2BIEQUl2sj9NSqJl4OBzITBXUWF00gOc3t1fJgJaAMrmoNIPBA2iwT7mAwE7HYmku/FWVROHDq1qyzAZ+oxkJRgoBCqQbRq32izpvY6HKRmiTKG+hi6iPXQRDStzK8xAJWOdbXR9EdTNtV51yfmHjWksR2tNYuZRfs07GPNwUdqw0x5Mjc1WzNfhLn5z4rZoKYDSwxmo6cLklspp1JZ0wD0R7WN2uMKvyoZNKNR6a5zUlLzi0VgRSCodlI4GD3KYKE9eTmqBapqO+EPsPQ5B+gWOg8098hAex9mGY49ZmgZxnei3svMlX63ip3Ovn+6wgxaVIiY6gLTUkZFoHIEl6amZ/ElOmR+qlzrW9tyyra4QWT+WTImd4Fm5oCmFgD2yRlG8tTJ7pvD5lMECMsYGzYU9oJj07Ae4hZR2bOzCWxlvH2Ip6vdATG0eWbdUPk4cEpYtK7avHXlRByoOqpPHUaVPMPDozAJORvIfBtoC8LJgA3LQJMNdjcYcZd00xa5heCJl8mpYY+qjVtWHlJpz49GIfVHbX/9GSJCVwHKcbpgdrpSuV1BGaFqZgozhl0ywIRhZJjOwphU5RuhPg33PeNncbzKAioxa2iEOFpIEQSyGnGSFYMfGzmBdkEw8FWjUxvMBvcs/vDeog43z6hBHicMSWE2ODr2K4gQjyBztKbIAy16sb+NHHVSY8dn6ICLlNU7q22r0OVJrXBywp9+pS2OOtTQIExHLk1zfuLgkLEotC7VaJLEgjgE0qTvVdP8ssNSwlZhi5iDR6fk/l375fCBCYmNE2E9OowjnKW8L2aYd6xl0DWv4cRr3EDLC9Vf0DpYNS/T8Ex/fw8Prn0cIUBxSSwVY8hLxuSK2Gswp4zoU3hKy9rU8Wsln0N9yWIB+xqJok0nVXywIzMqFaePcjNiFVIACagzq3VV3XwuOJh1dlogHIQUQNLY+RvSAUMdSUFqKzTw47wKxbrak3AuNm2k4NaRENFGvyzrJMiCw+mCug4kiJX3dqS9Sx1CrsqygvhqXxPlxCvWHxvnuVHRXooR5mfnaJI5D0OC74J+uAiAqNRFIFNDim3JeEqMT8fzCz+MycKmVjX+rq861joSUSFA3Qysxnsfzp6Fa6oZoGvb4oDBoVfdCmMCwemPjR+LJmCBSJfJeUdAywztNzSIVOf3AF21ZqbH8YEWGJcGb9QBJlUYyeBg5Th4Nn1OK+c++wcAG5NSNQpOO6nCHqRpc4hgF+MZG2MBYver86mZmXo9VusvXMMKPUs2wvs+zLfijCRrtJQOoJWsiygVu7bSl0azMykWwfzTGlntaqw2OcSEPxCMuTSOKI2WqAfQ1tg5uhegMaw1x9MbC/yyxfVcPkMULc1RSLJHJ1dT9dPR2YSkBobC05+ZmTbsOnYlxsEDQUB92TEzHFTkOIku+n1Bupsqo4DNIi2MKnZUvNrKFZ0cXlWI6O96GDg8NpzmkNts5Lxgmuh+mE5VrWiPhgCt3JBQBTx6P9uSQE7D/NBvs3UmUpOrIbGLMMHT2PSipILN+L6ff204ZKAqdPpy4lPECY500B1M7Xo1W0pMuJOopV7DikR/9qF2uA7XBVSpEc4AtrRKfU0BVrPFimS2A2m6wfvZvRdJ+WSuj0489zb8Aoih6Q4FgmO6Cgj4GpJZcRGV6BohVbte6UUDc+iB+eagASnBJU0/0DQKRYg02IIl+AuHMpoCvG7ob0FL2jyL/RxDxAMscgLbGb8IvyNIlNWN9lGPgxv9wnX8OmYc9j4cULfWlvLcmp8zyXPbMfMCfp4dYEFTjNuinYxXE+maWDMIPXL41X9IUAugsRX1O9THIr9oxlpWCbI0x69QQs/94ss6mwaCoeqtc/OVlWrrKYw2QKhWGwUFYDz1pTSf+9jwhNGd1U4pvTIQ3SnJWcGJYqUbqAuEUWekqPoNVaqHMqP+qOrVV500teMcSL8sksCFqtaCC7X1FTNW+86Fmm8ANVFnEm1rXJMrGYzuYGHoHqIGk3NNvYvi1MqQXW2NBJFi2O34FzByIRuXM9b0yiOPHAH6Cxl1oNriYjEfhQvzvWcfOraTDpW+Kl6v2YfamiINlBkivE2XXCPyZwc9OhlX0OvomHRhKzpUYjEaXXF1gbAYlC0rOMVuFnMPQa9Dh4boHtBqCICFBfJVlmHPzmHGqJ1OeFwPTRb7ZVap0lJ9mKouUpW4pC30M18jY8QusOe1o646xH2YEBM4okrHXzxgcBzPOhpcG6LaNa+d6+bwHVQAqA4Koh3mZufRKloMAyNb0aj4bvp86tBPTEzKhs1rDJjW5wzK/j1DhVA48unx0cl3/+L9fr1PfnGGfr3ryLatwYHJGd+tTkd5JWgb0hv7FbW8fHm3HDt2jEqSbmhtl6PHJ7C5KGommSeVXIT9vNiqKmDVkdKwt/Yu0fC5Eyml9rJKPwXCDPuS81Saa1SxUKCOEyZqILE/kVgMFachsFYilYG7kJkwAN/jOzbGYwRVsFMNSYnJotdQu1yZX9WncX0YS6VYFZGU5EFaSZoqYx6VcAxVlilqoXixIj1u0JMiqlwDPtp2WF+ZY+PQ656s3NcP9JkUVdDJVZ9aA0wqjbX2VPFqlWL6t6eYj3MrSDuj4T3D0wQxRVRK3MCwz8GkNR1YSwX1MK6LPasOJssE+bD4XMb3IYAKED1Hg0LK3BoJ1XwVP9fUdAYtztbxOmBW7dIVJBimfpRKbzbYZYyaZbiY1GYEnIy7Mi7o5lCHFOKoMFkEDjALGUWZ5C3Vxh60rkKmIY1pcB9uzX3oowPsOBsbJ4IbJj8nKBNHaRRF1DQSDt9LVPkPdu3aNfzkbU7pBXIvzaHZJL3t4evpiBlN5LWbFFAd1SRapqUheq3vHDp2AumLFIVBPI4AzOKgaoc01apu+afRMdoEE7wpGwRfVOMW7FT1wKrYkIr/KrMoYytTavQN2c4EqgVCgyJsXDVdyjAAtzV+18ohtVO1WY+WsKk9C75nmDkG7s13DWwZ6awcqiaX5lSozarfU7vRRXTTyvedjL3IwrJzH/UfykBrCjfm+Uw7ZCmmXsG3QA9xHe23TeAI/0IhNg3MlBhjCcbROlHN3FNVjbWKVqC6h1wO7dmuIfYsmkgXje4uAftzD3wBNF+RbEoNbGnhsi7QKnkeJbZGCSEtSzyzRjO1xVyFc9QsWGxQhE+j32Hsmo2pAZgKY9B7azFKUf0bntmOiWGkAPBcWvdqYcGonb8If/JcOLIa8zhZyL0oaFiEmG6GnQ0za6CPPGr8HExSBJSmMWuhuCFIWNmamekBDtbP1YyapbnUpk1n4dw+IX3a9ffojPS09+RBsL6497G9wNFLcywZk29dE4mMT85dT+uGaCJuo3ghxANrYs4M5Wx9JDERGSNooVLAjXniBr1QYcNeTkaETm12DVGralWPXwMzKnFVQuh5WgmjARa1/5zguerk8il/x3aFcLpdiEotrYyHBQ18XlNl1R50IEkUOjMMRgis11abePF6i6FxFfcqBZVJ1F41JCvSX4s1NGjj8zdgBlC6RnG25t8YJoBxTdVaGs1UacxSp3rG2B2C6J6aUTWQGgsqfRFvxuBgRWr/RmOdYpqor+EG/VkglB0JRw3JrM+kQkGxe5W+ShvdJEvHr02RdKy6J5GB9qD608CZaovrVomK4btBR4wxcp4DZtNrGbW0fHdR4GDK8Dc1uSCV0ZJCtaoP+JRlwjk4rvg4SjelkTKldlbQonKNpioddD70XDwe4+86VzpeJ5qOpzLGoYysC1j9kQVKHrUtCQqF++nGAnNEmElwmxiVFYMr5ejhEZAzezUWjx9t7Q5+YmJsdpKLL8mBglmaY+uGzgHqK2/N5BIr0+xyoD1StG2aNv55/PHHIQw2HZJXbfWcNrdBkuuhCTt2q/ZPWaz6UXWtDLbYamLRBteJVrNFJYKqzRL5EZpbogSEM3kl6MN8KROovceHhg2pOeka2dQcZy82qqpqDU5pCqzeTychX9A9N1HZBFY0Z0VNBGV0leaau6JMq+pfGX/Rtk4bEtej0t2QpjoG/d/4h+sqPkxUk+e3wPhqn2skVwNPda6pWLk2HNK0VO1/aJgASP9Gcjg0ycowM6CB2ua6kFVbqWBQR9LIf9G/cW19VpXc2p1A+7ioSafPoLW1GsFUmFVzRNzECDSKaWinJ2dbo8sG7eBw1VR6vlfNFr6vNMmSgKWbfpUNO5wFhRmEeQAAGrxJREFUx/Pg7qIhVPojmaGFbtxlbFGJ4NJn0h81UXX8uqBcbqqRyEPXBWIsbE1r4HObCihyxi2uAiYK6QTQNxHPyciR+UT/YMc3entabv3ezff+WGeTnyU5lkySr+l1RR4+OHx9pV6PWoHXEJZy+PgJstcOyCzecwLvOpMlqYewv6aQpklQUshs+epeGR45TII9+1fS8ySRmaLGEmnrUggOB4aMOjI+kBe0mLBTRR6GSUncypHfrDuwqXmjpkuxEJOzt6yBgCmkFwn/EZXeaQibYu9M8iRcmquSxOnTRZCRJvqNWEnTXb2KHitzY0yyg4CVlwnVKK2mg87K+edvZKLTLExK1lpotp+YID3BK11d4Mp58i2seXIwvNyHRYdU6l9G8jZBjxr3DYc0Lxy17MZcsKUk2MR9MWEyQIAWG2aQE3pwDR9VOu1drXLs+GGCN9i9VQIpmDUCfNg7GEWlj9KmboG8HBaERjOBE32enHR1N8Go7D7hJ0EtRAs+nr8R2gT5Pcw1y6UF6eoME7OYQQtZaN/Ww7hwftl3qMIe6U3N9Gl068IuyqpVXcwH9PexC4QXH4frqaQdXNFpvE9npg3TJkxBMyM0TLB1a1cgBNh/lOcN8Ox+5iwQ1P7q6kMVjQQ0zcX/6te+JuvXr5Pv3fo9WbVmQEJt9HzB8e7Foc2R1z87wV4TaVe2f3nbh6+9/Lrt//LZrx3hJkvG4LpKlozJaTIRsTjD16cy2WhizkrQRxNv8uICy9UcYSv4cw3Joxi4VXFT7L71G1ezp/xiqVq0JcxCmGd/zDb6JFLsi+fthWheEBnFWktIEY291flulOSvydkpRo+0Q3LOkazUTvbc2RvWyNAhisCxC5twZEiXlpXLB4xIqh9b/cz1Z1CJc4Ri22aCMWMURfikp7uVrMZ5IC0WCxIqnZqRhfkZ+b2rL8UxjsnwscOyrL8L9KZAKkKf0ZqZ2KX0dHVIhEBGgQQpIH9C9knDv1i+rFdGh08wBpwrVvoCeStZzKauZf1yhEXvBXO30b5ZKd/V20ORCDnd3GfZ8l7az4F3Y+8XSHHQBdzURl4JzptqItUOczFaa9DV6kWXv4D7kccOPh4wNFQOJKsb5iZDUq/b2cazYFNDQ5eaciAnWAg40eTgk0LsROqro5kjOavOffS5YtCTkjOuQYkhr2euQ2AQI0CpycrBZUb3MDsOcgE0y851O+jOmyKtoU6evdGumsal0xRyqGmimvUtb367fOyjnySC2SbnnnuBvPjFL5bPfO5G4g/TsjCblaGDIzIzEaP5cai07tzmj7l7o3//hY994ZdBOMqnp3SoUbUkB6FkgJF0IRTsgDnGcUOD0mhvMZZkGhRC7ewobd00hKx2c0X3p0FNJ0jZDPhBR9grU0O62oV1anKEySEPHFNCG2wGA02yQCKWqt0S7RICVM6AwSc4l9VSlf7WsHOwr9c/dHAY6MtHuwu3kT3X0daBqXTAQCG0A+w0hbjLl68F0pqRBrYA1wzCOaKynV2d7I85zgZpC3Xt4xcIRAOgKI7xsWnu3855mCA07J+YoDKJ3jHaEi5GxFGdK7WnszXNpiQNdiopy5etxvaMVAq5Ehsv49ThcEVbohHFf7UYQBOmdGco7VA7PjaJJNSFSk8TbNaOjk6QDYI92MIqzKameP7GKDFeT+rYEP3JKRYu+GoRL36BdgR2arU8Mq+5qVtmKNzWnStCIDYPDz8ig4OrGC9IFotAy+bmphPS3taJjxGmv0+uqPuPYj9aaQ0XSsTRqkQtfaQtFylqaGvrkYMHj+A7qHlJEGc2jZbqoEqIRYq5oqnPc/Nz7CPaKhPj6oxaDBp+7B3vQlqfwXURZgigiy++HI1QkB07drAo4V+NJEuzYVrZg769Wy5dcTsQ8mi57vq32z99u2Kdz8uxZEw+Nnb02MaNmz+fzSbe3NLSte7EiWH5sz/7c7nwwgvlbW97m1Hq9IFP/q1cfNGVQEdVuWfn7fK3H3o/0obWynRgdQEpebGhx8bHRLMWNVuRbctowTxqFB4oGqCOpQZipmbis8uW9/8NDXWO9jKJTRHvudjs/+fAvhmfBlAqtHzQfGitkNGw8VlnrTPszod370PFxgxoyxMk/2MOyYT92RRq3b9y9YoPzc8uJJraWhxslfJaUIeXUnBhxaw1zBU3jrRuHDAw0CvNrREWxYzMTmv+tmLzaCsitx5s7Ln56Xpvb++ttrrtK2NjI2VPc7RhOjnzF2wCsE5t3EaaKmnutsJzJQJmgysGjOSkQ4cOG/i+lpipY6oIVL5QYCjO2wYGer7Mc5Q2dXdS8xF4Tyw+dmYFrNzDNobqPyxmEWJ6rVnB9SNy/LgXrH8CXlNkh1WABGaTVbROMr9ixeCnY7G5e2qWUr2zY6A/m515fyqRbjUcQpo2FbDLCwgXbUG3bv0qYxwH9x9jzAmg2SA+AIIGgVFjobtIpfjBT+/huqTRYutotY86mAG6JszNxni2FbJlyxY588x1xnwqbNrc3JSplOp71py37G8sqYZ7UnNzlh07btcV97wdKKOlO/bs2f25aLTldTgh/xCJND32wQ9+GLv2QtTV+dixPXLZpdcwcTgoSEA7MWpFObSCRle+QlJUcCMxFYojzwGJsZjoD0qBqlanS50bTQPFycq57LYd99722B1fv3nnHaRD7aKBaMVPboza5zVqFIvkdRgpp6SrqsTWeyge7AG+016Elqq2FmIRYB+C8MyHXI133PrjR2/v7vvRD7weyxDbeWMmkMaLni8VcZjw0LS/iR5sEGs4wepMBkBdjJ7imGK6faM/EKj7vN6jJAPcdteDQ7dPWCd/BH/NOUE8dE+gJFVJygzqeOrz6HOqz6oOsDqY+py6y4Y6hoEGLQsrHvPVWn/w8F0Hb28Ntf9IrAtz2r9F7fdMGvsf51b3GYrHCKkzLrWDtFhDhYRXU4W5RxG0RKFVh9ODzZff/Z0f7v7R96Cd3Ra/i3vjZ9KWD89dA0PqqCpEq0iXOvtaoqc5Lh6QFy1XVBhVzZYyz+5jMYZDERi3lefwywUXbJPf//2XIwwW21mrVrrvvvu0c26dm5RvuOGGn1599TXvftWrr3vD7d+86y7d6xUp/7wyuM7XkklyvZgePNRjl19++fvx7L/FpH0MG+3C++67n4mjulsbzhM2fsUrrpNkdh6Cwmg4kdqIX1tJaLlZNNokw8eHjUJfZfKuri7MDJwn0AJlAg2BK16RSOSxPhePTA6XMlutqFTTPGo1mWZnxw17d4FrPrz7EZxOUlxR5UaABonqBN6z2ZPg2WwPzk5ViVrGuN7k5EZblY2A2PTKqrnWapJ4SfLSlgza+XX4+AhmwDhSt4A9P0DIP4YT1yJxmKKGfYt6ttJ1AM/xoF6v6snrliuBbIKIpzK3ml9ztE8OU8iti3f3rt2Mw2agRUbmIqZRkPI9hencbhCTXN2WyTyq81RNpqesc6ls1kaUtFafNtouaw64Bpk6Orpk374DBlMqCqJIUBxfpZGejQ7Sc3M40tWKFeWnMnvxiM1rAyF7XiE9CqAYXwCbfxLGxRmfr3G9fbrIDITMyMrEtNKijAXyWhT67OjoZk7AnhBWOncpimPIAZfXve51RgXTww8/LJ2dnSrl76WE8DsgRP9Bb8nJ7du3KwZ72o4lleQnR/3jH/84e++99+5atmzZu/v6eu+NxebZCGtErrzySrnqqktlENxcbUgttPWSA16DmXUgGu0sgEl3tXdKC8ze19dv2Jkq2RRqU1hNpRZdZudo9/yUDZe31nbCjHf6gv66Bl8SZEI20BYuoQ5pWzu2fgsh735aE7egyofRBuRkk6/hoTq8DraMj0A98uLkaz9tNMX3scP3qcmjkj/HrXRS9ehEI0UiUVmxYjWV/xOodQqzx6eM9OIgahqn7SA7Mn/vllsOGGJ/5x3jcfoM3oTxPKtaSJ9DtZeaTQEKsPv7lzG2AexqFkoMVQ9zauqxbqpF+wpLwB+c9fvJvOL45BfviPOnm9B7cx4v2YkKycLk8fgczO00BAI2PE7o8sUII5FgxbZzOMWMG/Lmd7gd9fv1WnrcdMv9h9EE36LPZEGDbYqp68IeHWVXC2il/dr7+pYZEOs0abC6+FTQaE5LV1ef/OBHd8q1177Q8FM0iPWCF7zAuK5CxmNjY/Le9753nue9DRj1ne9617vYxf3T46ebwXVAT0lDY3RL/M+xY8cmWMGHZmZizo6O5tmR0YkuopG2IiZLV9cy2XbxBTI1R8clbFuV2spQigerqtbJUyls1EnC5GrPqRptijZlwcs//Mg9R+44OdzlyzeXOzq9/lQydwm7qznT1HvWsPM9SKY4rYzJzTMqfhZ434bzpU6ThbxtDwljAb9/dPN5L93+8Y9/5qnefBevPTedqZSXORy1F0xNzpG+C1RnqH4rDifQISbRxPiEIX1LMKMugiLSTTfGYt+gb1Wd6W/t3n1i0bZhkGvXrdYSwJfmC+WIOpjK5FoIoT3a1ZleAGJVTH5R26lEXJAWSgdBqHd197e9/z9v2hU/+awvve5Pk8XCxMYKTTbHxygiJg4QjnhJQaABEJFXRTamESCKl2vASttM+EGpwqFwkZyZzz4xUn3gxIkTT0nSrRsHKLByXrIQS0Xi80RaqbDC5IRuVPETIda9i1QDRxobjWtpjgv2IjAv/SOTWtlTl6NHj8kuNNInP/kp7onTaSENUeq3I8U/zrx9Fok+hGliLNSTz3E6X58XSf7MB/jOd76z8/Wvf+3byId4bUtz5BMgA4Xjx4/LvT/7GRBes2Rw/paBx6rzmQaeUuRAe3UoioKDIuedcy7eOzWWwG69JCW5ne4Db3v3e2/CvtPKDONQ2y4YWv+12Gz5OiCrfBiMPAV0ZyXiqlVBGuRwUPzbEIwa+SK6iKKN5JuvWF/r7Brc+cUv/uSBk9d65zvfGfr7r30tF+1ZcxPow1Af9wzRQiKHDR3RnStgHsxc5pK963t6jWCTHbwfTVG1OVxft1sqH9KdGN761rf6kVqa0iilTGa8rbXrrta2UFX7O2oxQksT39WNv2BKzSJsalKN0wRzUtzbHIUOnmJrV+v7vv3Fu0aQiOQnG4dl+/b3THr9g7eFG9szA8u70Uj0NcQZbGvuAHbVLRdxhClcWL58NWm4YOdonWYWXzjas/+8S16/85k28A9/+MPgZ790585S0XZzV3cvsQNyYxAuRj4QklkFjUaB1eQJk2RXY6xhktQUQXnzW/+UZx7EsdwsX/nKl+V97/tLuf766xdIkZjasOHMj1577bV/dOONN35z586deMC/2eN5leQnHw3CFpHIWdozPIjt5oxGG4M4ReVbv39bsA6sFGEHM90GMEYLCbXNDSfIyNGgR+GRo9jYXunv7ZcTJHf9zXs+sXvX3bvWAY9dgef+GEd6+/brnPnU1A1f/eZPvtne1HBPc2vjq4gmOiYnFxv46Dg06qaJUEePHpYNoC02wO25+ZzF4W2ONza6f7J3797EW9/6pjNR+3999h0/jn3qH/5h5+atF7gSifmzzzxjjWuS7lhqYmjYWqN9Wh42TXMc0DS5+pqryN4bK3R0RG/81Oduu/dDH/pQIw7c+4jeXnLNNdc89rnPfSX2omuuHzxy5IkLuru7HNodYGx0GDiPyh7wbk1D0K1IEmx92NfXK9FIU35uYf7qB2/ff+dVV111Azbtm2CasbvvvnvyL//yXZvwT97l8TUMjgwPgeH3GLvXpdE2Wr6mhSFqk09OnoA5YfbBfjRko7z9ne9t+s9b/rn3okvOH73//j2jX/7sl1s/+qmPvv9tf/K29Z/41Bf/5rLzN5zncDn71WQZR0tpmq4629rtSk0excBXrVqJeam+jF/WrN0kn/j7T9MfcVy1Ifdq3PPqV7/2fTMzk18G7fn3b3zjG0tW2aPzdyrHaWHykwMkj6V8wQUX7AQm+8HWredMwYRngwJ44wQ48nSyOgMJUTcqQ8hTwQzV1g2Dy9UmDFFwbJHvf+fHcsbatf1/8d6/OA8m34LXPodE333ffQcvufveQzdu2bzh6jvu3PmBM1Z02X2B4HkdvZ1WDTFrspL2BNeuAOvXrTdgsmtf8gfyk7vulQcefNC2YcumWy968Uuzzmr1r7/65a+/niDQ8A1//Jb7Vl582d4f3/yTVVanZW1PWxOoChU6JCHpbnEKeXZ1d0r3smVy1107caQtZaen9/b9+x97FF/kdffcc88H6Cmy9eyzz35o9erVtiOHD//1yMh8t42NB/r72zEhSJjC1HHR5Kgh5Ebj2KQPzWAnz+XI/unvv+k1r/tia1/z+uEj45+AuS+64oorHBdddNEO1tQHP/iRz/6e1rJ+4+v/Jj/44Y+MiKkdTVcEygtQfqiRW8ZgtMemhaz8043flEsuv9K2d99wp8cd+NkZr3jV4f333f1H7FD3vod279r2sY9+9KGyvXHP+LEDFzndPv+KFcsMU0phRE0ma2qKyMCKQUwZgIWdj8rxE7Pymc98Hqc1yC6RVSofi7e+8Y1v/ug73vEn3xsaGho5evToU87tybn/Tb6eVibXB4UIZRg0EZ+Iz5BTTVd66aoWa426i4T23NOcYy2/0jToM9dukQch6gVbLyb4kZJ1a86UA/sO2kA0LMuXL6/j3IRJx+xmm5PLNm7asP7A/n3RN77xrY94gx7PI3sOXoBKdx05Moo5pJHVmAwMniF33/OQ3PDmP2P/nqjsfGgXQZlmx+jwqLucXthyZOj4tS956YsaRsbGy2ThPbrvgYd6G5u8r23vGmx74onDsmnLeXLg0FGik6tIRZhkkiOycfMFsv+JYbngwstttDgu3HDDG6c4bjj33HMHqfy3UOrVhSQexEm96OwtW+3qXP7VX71PfnLH3aAZYYo0ojjIKWHDXhoCHZJt518hx48MW4aODDc5LL5LSGo6t7293QbjtBD57Dl48Ikrzz//HL8mvvX2ryIGsFH+49vfwxluovJonjzzATkxPs/iaZI7794jL3/Fm4xn/+mdP5YrrrzEimZ0jOx+9AwaH/0eQEDH1PS05cjQke6u9vaWoRMzm+3kwO6iT/yGTVtlZHyGQJWFDsFxotBtaNUJNI6iMOTz2Cwz69as+e6KweX/eOZZZ/3Thz/8wad8mt8kQ/+yez+ZsvPL/nR6PhscHHwx0cj/G2kJNg0dOLZiLZI2Q4BmBm9eQ9kaKe3qYsc1HCANDGkktLO7C2TBiVodV9iqjjaor1o1aJ1i70yimklaTlS7OnsiPpKCZuencaC0MDkv2glrbHQSeHLagMYG0BI2Ci9mJqeqOH7W5qY2Sy+dn6aALAmYPIxN7iEiuEZhzdHRY0he7F3GtGbNGhkZPUFUlZ2gs8CcnV1I45BMTA7XUdWHBgf7V3V19RtOtLa4eOKJJ+i/Y7MQ1DF6QiYS2jrPI9oqr1ShDjJOiJ5MQtUQkUhETZj6yMhInXZ2Fux0Wo87MD8mcQbjdZrxWLo0FQFHc2p6HnveionTbYTWjx0fM2BJhRQ1R1v9mEMsTm3M1EYqg2qyyfGJ2sx03ELQyDI4uIJdOeaAREmR4EotTa2WEOfMEhHWyi69r2YOaubjFN26MgihMOMD1r072tTwj2DwO8477zzMxdMLCT5XzjztkvzZAyRgcGjTeWvuGj0y9cM1a9YXZmamApl0JkQVfuLs8zbumBqfirIIbNjyFZy7e4i2J5BoEWz8KoxzHCLvQXJ20tOvxu/VgeUDlYZwgwWmttAgtBpPLpTPP3fT/vHxWDiRSFe5dnXlyr6jnOvMZlMWysuq9EXJLl+x/G6w8BCNgBxg/KVNmzY7m5oa/bNzs7ZMOklcpFLdcMamg8Ojw/75+RioT6oCwy10dXXGpqYn3al0vErGXemVr3wli3EiT78/GwxfBXIb6uvr24vW6chkM8S86rnVa/vuTCayfnJDnPoc2L2lF7/s6oP79z0RpglndSERr7K4HgMyPQwE1861qJOoJLacvWnH1ORUI6CHDZpU2tqj97S2RBMjI+MR7OYqwFT17K0r9h8+NBIEgqwlk/NVWj3Mt7W207ArSTvkShV8Hxr13k06bQkEJYiTWSUKeaC3q3f/zNxkBzB6jcWU2bxx611TU5Mh0hvssfgCyYX1AsjRT4Eo73U4LR/52c9+dhcAQnHHjh2/MdTk2bz0q37/jUvyZw5szZpt/lJpdg3bd5xPQcPoS1548Y7v/WDHxUj1HrDmTCKRu5VAXhQGvZDv2Xp6eh4+RDwcZruWYorQ1q3nkjZeP0zTIIRMdfXuh3bTX9SaGB+ZebC7u+1CGNNNQKYSS2Ye8rmsy2DANiJxiiZMAHX9hPTdC9g2sZ/04Dwmxvc9Hpt/fHL+MsLeDu5Xmpwbu/fCcy488/DhI1HdhaGYzx/DHs1wzbVsVGvZuHFjhrD2d9mzs3P//v3nA4dawL13onVGHnnkkWtTmXgDwbGptpbOH7m83q3DI0dXeOxs8xKwxYeHJh5etnLZBezs7ELoaxTwLsaVgNGv5fs+Xoe51g4WzsXknveQApFZt3z5rfc+/HBjW3PztmSqaG9pbigOj8bu6e2KbCE/JZwvZdn4wjFUZxN28t1Xcz0L6bHJ3PzCrc5QqJ/fXwAt69Dq3sF1g9PDT4xcS2JYoKmxdTwQaP5JLDlyAehrv5bssYnWfDgY/AFdePP333//krRUfubc/669t1x33XU2VKABbz75qhrnmVrn5O//Xzt2kINACEMBlMSLex5PaX+lBOPW5ZvEYVLaAi8ZF9MvaXJSk1/lJdY9rtjac5Ozpmb3nU+pd5+aWl1395m6xPJc/3A/a1XZieV5+tT4WM/6cvi5zlrp0zmv3v+cbaet3vPk7PGco+s+5z6x5Mx5a749apy+GXMlPrGvPd5rXX1m313sRoAAAQIECBAgQIAAAQIECBAgQIAAAQIECBAgQIAAAQIECBAgQIAAAQIECBAgQIAAAQIECBAgQIAAAQIECBAgQIAAAQIECBAgQIAAAQIECBAgQIAAAQIECBAgQIAAAQIECBAgQIAAAQIECBAgQIAAAQIECBAgQIAAAQIECBAgQIAAAQIECBAgQIAAAQIECBAgQIAAAQIECBAgQIAAAQIECBD4j8AbAhCj1cBpy+8AAAAASUVORK5CYII=;" vertex="1" parent="1">
          <mxGeometry x="670" y="620" width="137.04" height="140" as="geometry" />
        </mxCell>
        <mxCell id="hO4Qf1rNJJDb-_p562cl-5" value="" style="shape=image;verticalLabelPosition=bottom;labelBackgroundColor=#ffffff;verticalAlign=top;aspect=fixed;imageAspect=0;image=data:image/png,iVBORw0KGgoAAAANSUhEUgAAASAAAACOCAYAAACR4tWqAAAAAXNSR0IArs4c6QAAAERlWElmTU0AKgAAAAgAAYdpAAQAAAABAAAAGgAAAAAAA6ABAAMAAAABAAEAAKACAAQAAAABAAABIKADAAQAAAABAAAAjgAAAACMw/XlAABAAElEQVR4Aey9B7xV1Zk+/O526u29wS10uHSkIyBgFysa2wR1opkkpmqMmX8m5puSTCaTmF+K0STqmKKxKyK2CIiIgHQu7fbe2+nn7PY97z73wAVBRaVcshfse/bZZ5e137XWs96+iOxiU8CmgE0BmwI2BWwK2BSwKWBTwKaATQGbAjYFbArYFLApYFPApoBNAZsCNgVsCtgUsClgU8CmgE0BmwI2BWwK2BSwKWBTwKaATQGbAjYFbArYFLApYFPApoBNAZsCNgVsCtgUsClgU8CmgE0BmwI2BWwK2BSwKWBTwKaATQGbAjYFbArYFLApYFPApoBNAZsCNgVsCtgUsClgU8CmgE0BmwI2BWwK2BSwKWBTwKaATQGbAjYFbArYFLApYFPApoBNAZsCNgVsCtgUsClgU8CmgE0BmwI2BWwK2BSwKWBTwKaATQGbAjYFbArYFLApYFPApoBNAZsCNgVsCtgUsClgU8CmgE0BmwI2BWwK2BSwKWBTwKaATQGbAjYFbArYFLApYFPApoBNAZsCNgVsCgg2CT4dBR5++GHPOxs3XhGJxFLyC4cbPV1d1NfdCXrqsmEYblmWd7zyyivrPt3d7atsCvxjUED+x3jNz/6WpmlKfJd77713ws6dO29avWrVOH8ovLShqUPq94dNQ9cU0YxKsig1CaL4vqqqH3z2p9p3OFMUeOCBB0RsJp7Pm11OEQVsDugEhF2+/MbcQLj/itSMVN0hSdM6OlpnuFxuMzsjc+TBA/uz6+rrySCBTMFJQB3KzsxcXZiX/ZJp6q+98cYbzbitcYJb24fPUgosWrQIjKt8ESabC0Kh0ByH4tY8Xvdbuq43d3b20IgRw1vKy8v/DmCKnaWvMOSq9Q/NAU268EKv1y84ncmOHFNX02W3m5ySaEiyo7inu/ve+vr6GUlJSeT2KKSqUcrLzSF/OEIxQ6T+QIgU2UGKSyZJUHbt3fXB5Xt3Dbn2tys8iAKjR48W6urq3LFYbJxpCmNiEdUbjWoLggE/tba1kcvpivX1bX7m8muv3T5q4sTHD23dakLcDq1ZsyY66Db27klQ4B+PA1qxQpre2TRKIWWWJMpL1ahRCCApEQQzQ1EcpqzIhBkvqampSe7r6yNN1Sgc9pHDqVB6Rjp+EygcjFAo6CcTzDlmTHK43E2yQpe0NzbuPQna26eepRRg8eu1Va+dF9b0Ubqm3+vz+SZFIxEyTJ08Xg/NnD+LwpHIe22tLcH05OR9yd7k6t7e3mBubu5rTz31VMtZ+lpnZbX+YQBo5rxlM0Q9Um6QttyUhOmCIGRruu42VCYBRCmgSSQaJcx+JAoCqZoK4ImQGo1QOBoE0IjkAodkqCxZSaRpGkQv2QIgp8tDJJqPN9ccuu2sbGW7Up+aArPOm3dPS2vbf/n9/QomJkvcXrhskdVXWptaSDAMU5Eltauz2yguGb7d4XD+WhO1ff9yR9beH/2IpIqKZ2xx7SOof64CkDBhwgTFlZJdpsjiYmDLAkkUro5Foy4DXzRDJ11V8QkwARcDdhskMpnzwb6BT4MCfj85XS5wO36KAoQUh4NESYbYhc0BvY8okSAK2CSIYCIASHi6ev+uGz6C1vZPQ4wChYUjiwTT+GsoElyg6SoBa6w3yM7LJ0kSqb2t1eo/bq/XmrQURaHcvDxyu71+TGQHQ+GQIklyi2rEXpEEOSobynvbt+ceInqGZzFbuQ0inDM6IACOIyMjI9Pp8UxQDWNxLKZP1VR9NsAlXdc1CoWipAN4mNMxATDxksBfg0x0Lv4NMj0NHzYsGIlE3BV7d4siQMbtTrJAh/uMiI7HBVYv/BHBJQUgmmVQbk42Ve+P39X+e25QwOv1lmixaLmJPoA+Ba43ZvWhYCgE0VwlWXESfodoJpAIfSD+UG+fj/r9gWSI8zNEcNaqoU5Gv7rElDDxCWr/5GkNa53ivH2qbr4CTrpKFEN927ZtU88Nip38WwxpAJo+fboCuXsCxKG5oUhogqYb56nh0FiQITkaVUnXBHAzYYALuBrmdgaKAS5ncOHfGXiANvgU9s2aO+fh9ra2B5qam9M1iGJOcDyAJwoFguhsuBZAxYW5H6fTSRnQDckypj+7nFMUSM9O13rauzQZbS45wQGLHotLjkbC1nsaFscMYImGSZYkikUhomGCMjDRMUCJgnR4wmKRHf0l1SHKVwGwrjI0faUoa3VQBWyZOmPWu4Yqvr9r1ya2nv5DlSEHQBMmrHCkZPTNweQyRZKEi33B2HQAQoqmCQ5VNwQ1wgYJBh6IWczVDLDNzN0wB8MfAn5Dww80dPyTxSic0+IQaOXMyeMPPV1TfUdKiieddUJeb7J1HSucI+EQrufOJJKKT1nEDTVwV6YC1tou5woFWBG9defO8zQtkllX22BxNzLARQTQYLKxPk1MTBr6RywWpoCvn/IKCoKpaWkVXV3dMxmIeNLifoiLsXE/AwfO3JRgTWAFkiAUiIY4W5TlL5FCTROnzdlo6voLQnJ445539/SeK7T8qPc42wFIhG+GGI1GS0xZXqzr6nBRar3UNB1TDN0UVRUzjRYXq5iDiQMMwIePMZwwZ4OjaHpgkcltT4okM/T4Y5FYP58vQJEjyGIEJ78ry+Zv9h3Yt+P666+nFTffdqMp6n9xuuTRuMCD5/G5mNXYwUeHzhleQIZKbqc3Bs7pT+GRpT+gtz+K1PZvQ4kCFRUVQjQaLnR6nKI3JQlWzyhFMblZnAx6AOsDZQYgcMgMMG5Yx3Jy8trnz5567VPPr/4O9EXfZPGd+xj/jwOQBUG4mnsl9sGho4iirnlhhR0jCMYYSZJuNwOu2onTZm+VJXOL1+l5y+dTqsaMSY0888y5pzuyKMBUOFvKvOXLk72RSFp/f3AkGnC8KJlLMPAXYB7JUsHaMtBAHwjOBkCD74wmACFu5T6IWSFwJmhLoUNTY/XoJKLDIUVFU1wfikb8DB8Ol8N0Sc49/f2BRtP0wYhhCB6PqlZUNPUcS4MLb73VK/t8K8Oh6C96en2wgoDzgSm2u6OV/D4fxDGT4Cf0fjAY+xIEsEaYYgFqdjlHKCBcsGzZsv6A75HOjp7iYACcNfoac84iRG8H3DWYC2YORwUX5IEiuqSkeFNGsuuKF154obeobNzPZUm4G5MTWCF2oodGCNdbWMR/Bo085spFcNIiOCMAkHVf/l2RFIh2IjpadBuwbBekuHWC4NiJCbh/5851fecCnQeR4cy9DnQ5qYYkjQfxJzkdnotUVSslQysGwqQxoEBeJs2EAhBcBxrcEAQJ0pa4D19jDqfcGY3GNmB/L2aWNtxDlJ3ejhSH3lkfiwmO7m4DzmWRT/t2d9zx1eJANPg/vv6+CwP9falgs+nggUPU2NQAmR8WVtPQTEFodDrd+0XR8aRTTn6npaUCPPuZL7fccsuNCxYs2HLXXXdVn/naDM0azF48f1ZLbftDoWBoqoUbAB+eeBzQCbHex9SjlnjudnsqhhUXf3ntm2s2AqTM7AkTkpKi5v0wWlwNBBoLbh1XmRDZIb4xclkjjz8AOEAmBic+BDOIxR9Z7Dq+I7SHFAVPxtV4bkiQ5DqH4qgDJ7YB3NfbKR5lz6ZNm+JKqSFI4jMGQBCt0jTThHlTnw9gWQIT+RhAv8PQRQeUyYz8JMO6EItGQmieFkHQtuimvhcTyjY0WBScy55oNEnzeML6mDFjmD1lYftzL5DchEceeUR+7Y2/39TSWPe4IDvJH4pZrDdEQ7DlEctMb6DOAL+o0+1t8bqdm5yy8RzquXbPnjMjy7/44ovDnnvuuS2LFy++9fbbb3/r0xDGrPhNEmWPx8jIFyhrd0gQrj8hjTvW/iYpZ/FXA5/mOYOuYZUAzItnRykqKipUFNcFaON/7+vzFbMFNCk5jbJzc6H/g8IZXEuSWyG3y/UfmOT+iK1ucM3ZSAJraiYmzUncV/BpJnvSRVx7GQAlR4NpDWZ6w+lyjFOj6liMAx2KaklxyB4VUIS+NwBODH3YB26xjxoOs3JbRdhPCH2uQhLFHfj5ZS0SeA+i42dtg8GvcMr3zxgAYWA8GgoGb4vBZBBWY5CeDPgHSn2qKvSD6dkAQjd5HEqVqoofQOrqqKjY9CER6ZRTZ9ADVsCDOicn575DVbXfaGhuzfB6k/7U19/Xi3peAgVTMfRNLrDiIrghWM3QKWW2qknV6E5roCx/AWC0Ozk5uW/dunWnZYDNnTt3SnNz85vZ2QWXffDBpi2DXuVDu6xwHT9+vNwWi7kMX7hEU6TZmWb/tClJvqVJyU4jKSUbRqCk+ki4/81YqFs0dHhvQvGqGRoGlaQ7UwqLIGRc2B6hLbt6XU+DFFvS053deJAOfdoJQWtwRVJTU6djMH3V4/F8FV7op31GX0ErpB0jd8gulystGAwuAFhcBvC4BEHFuTFYtAQTvvMQuzKzc2jS9GnwAWpjriUkm7GDcD68FvF/tYPf52T2c3MnedO9QqEqaIYTSifwQJdAsZ3scrvyNDIWISQEPq9yLixrYIigspYh3GFaECGisV4SlQMfBbcAwaxEn9tBhvQuOKW14JyqAaKxUzU5n8w7nujcMwZA8+bNmxALh6cEYjGNHCBfRAXxnRUUc7WdabA5EbH4OMSZOZWVtVlvv/3GKv4+cuTIbFVQZiqy8zKnIl8ci0XzMUBdCCkDS836Asxasgs9SNoPMfEtWM6e0xShsmrHjk6+/lSVpUsvnVhbU7M+L7/00o0b17x/7HOQTkRRJbVA1eQCsB3j0RHmo66jcN4kVXEmu8QYvDerKV1EOArcxTApW15jJht0WCJgRRyLC+AEFHR/7NB2vZQOBNNJMfVDmOy3wpt8p6ZH18Fs1Bbu6WkD0J0QfNPTs27ETe4fNqxozu7du4PH1vdUfZ8wYU4GtMBjBEWYxdw4dIfjY5HQOEvhDN0OO5uCS+G4PxP6PoFFL7A+8JTXfalp6d9LcuY/8cYbfzpl9S2aMCFDEZIUMRaapqqxJExoo8AZTYR6cwQJcrYsimmwnKVJAoaRgxlIAdKDA7pS6hdE+T0oCNZpZrRC1vQKySs1n20+R2cMgE5VhzpT92V2O2oqI7VoaAq05BdjdpzDA5r9j2JQQgJ8LAUjPKnZfbYSnXqtaGh/7+oStrW0bAt93vX+7ndvT37774c25eblfmf16udeP/b+P//Nr+6QJfnb4MwwAMVMAKSC0H5m/KF6AxQIMZonHaIcwQ8AsjKRoNpAHgtWrQ/rlhAMoKcArkg67YqVUW2sCDOxYOlJYrEIfD7VZnCG3RgRm01Ne/z73/8+gyHf6KgysnT8CsUl3vPNb163+K67Hvjc6TH4YXPmFLlVNW8a6rQsrAsLUPnx0VgsG0YGKQwfH3A/Fqg6WFUjCq3AoPdlp7wuLy97cld315j8vPw2t8P9UmZO5jOPP/74p9YvDq7TyeyXlJS4HI5UiHZmututFEO8GyFJZia0BQvRnmnggMaiTcGIO4g9uKE9YrGsEa37PsTGClERn92xY0f9yTzzVJ17tpvhT9V7f+73HZhZ2Bf6ALyyn8MnD+ybADQrTI2mmpLo5I4Ndj4fAzlfUsx5DsH4TkaGfjAzc+KLUCq+un///h247kOD89NU9qc/fdR/w02X1yQlhdzHux5+TzMcTud4NiuzLMHhJ4nCoIKOzFhjsfjsUBeHHv7+4TmLYctSneI3drtiYwEXiFSQEIwiQVCKENQ7GWLqNHBBl2HrSDwr8ZlflC9lZaVsbW2lUzSgV0iTJh0chzpdpWniZeAiJqma5oxENCkYtvQzFqeD+phORfFBr7IRTOwqzTDfMIVYS/XBm2KTJlXIKSkpMmimT585XcV7HCFa4kVOw+eAUYWdFnmrwCZApypWVVX9BCKsF/azMljKhkOMuxQVLADQzlB1tQCS222GQlFZx8xCdFYA0Id7E2pml8+TAtOVCRPEKaqpXoXZ9CL07xEgehJ0XrKhxmBq5VmW5XiKSpJjQ8xUfo2A+20U6u5Eh4KZ7dMB0o9//C/p7aGq94EM7zz4n29+6dg3+uVDD/3W6XL+SwKA4qgHcdHigljsCNNcoYJS9T7ShbiugZWwsOAcUyXuQhDHBJ326SV0KFqM73gnIJFgIt4OFeDCoStaNFILluj8++67r8k6OPCHFf0/+MG3vpyanjbsnm//8F8BcvHqDD7pJPc5NEdMh2YlZkyVTGEexOLFEBvPg79XEpvNY/CUj6kR6LFEPF2MINdTFM4cu8Hk/VE3w++0HaNQPsnHn02nCyNGlBcpiibFIsIlLqfQlZOf88Lp0kV+HCFsDujjKPSZf98GHyPaittsLSub/lOHR5+qCObFkOGX66JrOFxjvextDdBxgg1ZKkrGBRi8labi2TBm4pR1EIi2GeFwLcCIXbw/cYkqdfkvP1lR6HR5V/zTbde98sRjz740+GKA3hHlMMY7fBvAmKE7mE5ymlEqjNWRN1JDUSOGKrLPS1yfdTwOKAZWwYO75YgR6jDd1CHkglMycR/Wg0F8w70h4gGKTAW45BxcD96fOXPOCofDuD8jK+2Je7/zmeZEYerUqcMBKeWSw7UkGtbmwqI6BdZWJ3RzFIEjITunsnUVXF1IFlzVCOfaAp/59XjxatmIbB/gLo6t4lD+blZX720ceIGH+HPfwX1nzfvYAHQam6KmZhs7Kq6jFSs2TDp48GE4Sk4wNPEiWFcWwZpWrmLAwpwP9kEYg5l4DHwkb8JAaUNQ5JaJEye+UVZWFsrMzBwH68y74XBYTk3N3/n4479t41dgpTIU5KwZtkrljoz8gE8XfX19qd0d4R9BXKj/4Q9/uBfnCDhX+P2jf8zHwLTOZa5HAqOiCxEARojyo3VUEtoEg3iEdEsPgtPA+cDtE/+OLiaAxhQcCLo0KU1ooTGAGdk5npqVXAqDc3Lg3hYPh2dB/CnKSEmagTtUD76LqQvfPLC/YRgwwIfjJ839lJaX50LumAsl7CWQ+ebAP2ZYJBRMDUQ0OAlquCGc/JjLRB0QsncAAASdmLEOgLvdMIIdDZ/BT2zwe9j7J0+BY/vTyd/BvuKzUIDpLwJcUuAmMtuQhKuhGL4GgyiTk1+xHwhbm2QBcSeSoruRjwgDCdpFB3ABoYymuXPWzIUPDyvNz+tobb6krrH+XWQAaHTJ8pVIJzJ+48aNuex/MmXqVMSzeZtgqWvOy88Xenq7XQsWzB8rOGXYH1nfg78ACkUIU0qomsYFt5CiwdFWSMagRVAl0InPYXMv/hzzvgAWYGZMcCEdv59cukJd4jCqcE+gHikX3AasRgAADo5xKiIFg6HtdTUNj4TDITEYCGoIYRi+Y+vme2uqa515+YV/njp15r1EwR6YjmM33fQv6VMXlCn3fPmenvnzr3SnZSrXRFUV5jiiSCgihKJhFWJdua7HlgNeCvEcORwKCTEOmWBwFR3gvKBbJ/oA3NcWgPlqI6JvaWk5xC4d/DK82eUMUuDY3nQGq2I/mikweuL0sbKpw3tWvxiz9FiYWtORAha+sPgHUzfMvwRfFXZ+Q8S1TsOGD6P58+ZSMNRPdfW1PMkDEExqaW6mTZveg0JYotIRo3CNm6BApbLSEivR2txFc2FaZvCA5AcRyaG1UnGwgoYHDkBogthl6XqgnOYxavWSuAj2Ua3EzA6i5CB6hahfyqCDbvjLKKWoE8zYEH0ExUvVNbVUV1drvUN1VTXlF+TTO2vXUiDgo8JhxTRp0uR2+IFVQD91AHqyJXNmzUlpaG7cvXHDRjMWUy9Oxjv4fH3MTYEeyFAQDiNdrgpnUIhXUPLj3Q1ktQyizp2yTNsjqvmi1yW9fPDgQf9H1d3+7cxQwAagM0P3j33qpEmTvLCaTTAFaYmouK+FD8pYuP57W9vbKTUlGUCkWaEgsGxY1ptQuM/yHmcjSEZqGjU1NDDXg4BJN7W2d1ne2vx92PBiWrLkAsrPzgDwSBylSxmRaioMbKacaIPFdRG4GdivLOCxFEUDvYT1P8djGQBNrOaxiirAZ8iMgPPRKCh5qd45iuqVyXBFSMU5UGKDVanYV0H7DxygpqZmSkbO7XoAUjAYABgV0vgJ5RbQwrnPekeOKmfdDfJzo27xvE3s2sCPQ1pUC3CteplmB/yw2uCcvB6Mzeuy7DhYXV3Bot7xqhyvrP33jFNgoNuc8XrYFTgxBYTpCxbkTR5TfkVzW/u/Iw9xTmlpKbUBiLq7usH5BC39Bhz+EBYShreuQmnJydTc2EgjR4wAO+RAQvUOC4AgtdH8+fPosuVXAAxMimpByg7up/G+TeRRwxQRATwADpiwrHvywLZsWMf2EhbFrGEd/8ES4QbOYZ6JgQ2BKbCowZ8GIlynXEj7XVOpVxqOXyHuwfr0t2eepX1798BCrNHV115HK667lv7nf/7XyjI4ctRo2vz+JtQB4AoRCtyQBTTgjKwUuOwykJ2VaXFA8EbfADDeDYf6v8KZsAE+B2w9PCmF/YlJb/9yqikAwd4uZzsFWhsaAtu3bd2+a9MHz2bk5dTCpNwd9PeV+oMhZ293F8QZD8QQHekg8ik3O4/aWpsgnsUIeWkAUl2Q5JBUzaXQxfMW0LBiGN6cSB8haZTbvYnGBz6AeARnNTa1W6gCCIGBLO4aAFQZBD6C6QKowLwuQNwB15P4kTmbBAfEx/gSvhfvsSjnMf2UobZSAGjW78qyorw5b5PP56cgRC9/Xzd5PS6qraqkaDhI11y1nHp6uqizvZN0NpkjBxMngoNnL0TIMgvYnDIFxowe/bv1a9+88Tvf/Ppqf39vo7+nx9fT02MxbWd7m9r1i1NgUPeySTKUKLBwybIfBQKR73V0dDj8fp8VHFtcXEwzZ8+hv7/2CkAICdOBCkhTa4lVEOloxU3XU0dHgCKt+2hebicVxxpJ0QNIkOUGVABEmLEB96PDpycOKgwyRyQYqIxwHhc+h8GFFdg4Yimoj5x6pFPxtXweGDGLMxLoEI2l13ryyYhJlOxx01NP/pU62xopLS3N0uMgJoz+7d9+QJWVVfTYH5+wdF7spuBwuyglIyOUl5P749ycnIYkt2frn/70B3b8tMsQpoDNAQ3RxssqKjwItqDH5fZmYYDmgePRupB6pK0VVnkEVYegU+HsfYwPZWUjIOJcB2nMSWlyP01VKqlYbWBogI+PAs0xB1vgRIg8UCjhGOemQTYCiDxcWPRhpS9MVqQ5kmHt4hS0UCwrEJGg1EESUguZLB2PdR8AF64RoL+BnGTxShw5LiO+zIuwDSdEPyGrHFHlBQjuzKSG2mpqQ3Anr0rCYuSuXbsJnuWE8AhGRAT3OsibnAJncvkXu7Zv+rcD+/bs2r17O1g7uwx1CtgANERbkMWy1qaGTfm5RWuwVtU7WDjxb25X0t+KCouenz135rh+vz83Auc7JOmna69fQZlIms+Ka2/XLhqb3EFC1EGB/T0U7JXIj4HvSc9G3BD8fuCEaOlepCSAClZ7YF9mEcpkoZS2qONoTyif9iLgdHcsl1qNPArIbvI4dXgX9gHskLsGcdrsGwQLFhkRZIwUUsnXjjXUAtAtyZlkOFxUmKpjYUeFus0sSilIpvSUdKqsqqUUcD/5ufnh7u7OCCLSOd0Esk0KKlYn3ehQXF/v64n9KRTqZu9wu5wjFLAdEYd2Qxo7drxXj1fgzSoz5kyaV9dQn52elUGqqZuTJk4UiotLrPzVYZirs1PzSUknciUZ9MrmDtoRzaEf//zHlOwVSGvZSz2715PY1QgdEnJfCyEsuuilD/oz6W+VBnUGDkF0CloiXQxcjwDRzZPkoEm5KXT7GAN6pX4KqArFNBc5UoeT6B1GSaPnUmtHF33ru1+ny8bqdP2SclI9TpKh64nqPlIiThozehxNnjQVOqtOWnLBoh82Hax56u1NGz2mGYWUZ7IPYVtl5d5zIgNgop3szzgF4jy2TY1zggLTpk0bB9P9u0g1nCFI0m+nTZm6ZeGihT+CaFPMaTM0pJVIlYI0I6WFcmSVatsCtCOUS7ff/QAvSW3RAPFQFOntILOrisJNe2jze+/SX96ppj31GP8uB5alBieDosBrWgJ3g1gq+N4E6I4lZXTRsgsoK3c8ubKLSc4F0HkgquHcOmSqXXHR+fTlxSV04czxkBB12tAI87uRZnlK63B0bGxopFWrVlE0FKjMHp5zc8XWnRy+YpdznAK2CHYONTAUzj+DPmgOHPN+Xrp48Xef+93vti275KIbIFIVsVc163k4PEJB7Fa606TM5BQaWYDcMXIq+TWRorCcaUg0Zsgwx6cXUZOaRo++uok27DhAfV0dVFhYQN3dPdTd2YnQC4kyM7Opo6WJOmFpC7ryKGvsQjrv4qvJDXFOUeC1DdpybIjp66ZxRj3NHp8DFyMHtQcVOujDMtcQ2RAtb6XuGDduHE2bNpW2bN2cieyYC/ILi97pgob9HGoe+1WOQwFbBDsOUYbiIQzg2fAGvhpxYnuQkuHHa371qyjHhyF3LbTEUDaz+RxKZywkTJ1hD/mUABXAFC/7VArufoF+/8pmemFHO6U44XOj8nlW7BZM+zkALJOC0CfVwRkwEAhYHIwaDEF5XAkHwqCVP4eNZc8+/Vd6DhuvKOuFhSuKrDoj85Jo5bxhNLEsBadE8E+g2qCTQtATibC2sZ8Rm+vZ2valf76d9lbsomefe3YEUoUsxUFONcGn2OUcpUCc7z5HX+4f5bU4GRoUJbeB88H6aNobhw4dOspCxODDYk+MQQjK4ZCWTPX+DApB4YyvEJPCdOOisbQgBxDR66fLl19Jd999N91+++2UlZVFLoASQM0K5eB7cdgDm8bZ6ZFDPHJy86ylkMpKSwj5uS3v5tdef4O2vr2Kxrs6KRnmftPAoo4AmvZ+kVr8XkthnWgfTvMRDkfgrhSjlStXmopDUfw+//m4F2JM7XIuU8DmgM6B1gXXkw/wmQfw6Uda2z8mXmn06NHmzv37YdXiODIgDXMdABAN8WHNWialKL00wukjNeqkFI9M999yAT21sY4q6+ppz76DMI03k6+jHQGmUUoHV8OiFpvfGYz4k7kk/pflMKitoRqrh7ppRFkpeWDVWjRrEt00r5RmjYCeCNdzLH0E2bBqu5H4SMW8h5zZfC0XBjWO5+r2+TtGjRr1zqjSskWVVdWz8F5F+Nn29WEinaPFBqCh37Asv1wE8JkAjuS/kc/m8IBdv349pWVni3GgAP4g7gujHVAQg/OhTM0hmL3lACWZsEhhnTUBJvTr5hXRml1+eqoBep2ITunQE2U5k6k/qlGBKxVgFbIAg8nGQbHMuaTGuigNv8EPyRLJxo0ooH++dDJNzoTDItZTh4sjzlaoNShTaxTe1PC05kVqWPjiwiZ7/nboUNX/jSwu/LeQP/AVRPT/LxSUc3D48PvwuXY5tyhgA9AQb0+seuCC5Wslth5sfxj8OvAcngZHxIksfnGxRDE4BnIxZI16kG6jKZJOI93t+A1cCUDBAXfnCyd5Ka9oCglFs2n3nl209qW/wKyeiZita6koJ8vihJIREMu6m2cR01W1u4Fmzp9F186ZR4G2KpqQHqOx2KwIdWtRPoL4p1CVz0k9EPgQOALnR8AS7OvsSc31ArdD2z7Y3rds0fwIch6tQeqR7xmyfDOq+gS2uOmNK26Xc4oC6HV2GcoUgDg0EfqYGRjEG8FJtBz1LqbJcRhOi8PAIOeBzhsXJMSnIDmoMZZMQRWL7CFwFOl0IC4hmh3K6fPzozTe043jUeoOx5B/R6XNG9+jgsJCuvPOOxFRv4y2b99JXT2dFEJcV1JWHs0qH0G3LCijSdkq6RGIdgA7BXjHFv4OhF60BBzWcsQaPK+tyPZBdWKQ1PUos0QCxLsG1PkN1PUCAOx8q8L2n3OSArYZfog3K0zvD4LTGA/u53stLfAkHFSWLV06AqamWzjlBgdzclgD4w9zHRyproED0UTofyCUpUrwZMbvElKw8rr3GrIhqp0VdABhEQcaA/Cohkdzfz9t3rqZ9lXso+eee55279gHxXKIsLIEkb+d8sMHqMiFtDsAHCxahURqBueZpRBEux2+bOqOeuD3w9wY1godVE8GRfY2RAbILefPn/P26tWrY8hdJOKdrgHAaggwfWXQ6fbuOUQBmwMawo1ZXl5+ITiFqzBQ/w59zLpjXwUDG+EMGOoMPgAhSxHNYASdiwqvIDaBcSrVOi2dfHoyOZARUROxQgSOY51I5BNKohvOH0lXl6dTUX4yFZUWU1dnF61e/aoFQsNLhtPIMeMoVYnQLbNzaeH4TLAvcb0O10WHuBVTwtQUcFN90AXQiet6EvXkunFdEgW4eD6Ax8oZDZ3WdgBlK7YbpkyZMipxjv15blHABqAh2p4l1tpQjm+D+4EqRfxDTU0N55s+qrg8nmkypyRlELIKAABcSTxBKrgODYMfDEkfeKDmMBKUAZQkOBgm2BNwJHB+dtDKqybTAtijqvfsI3+/n/w9bdTu66RGWMvCzfX0ncvLaf7EIjgWMqbF9U38OAlgFjSRBbEnBbmHwBUdrke8Nom/CSCCGJYEMLX6ZHt7ew1+f4VdC+B7dGHiXPvz3KKADUBDtD1zc3NH+/3+GRiwLdCZvHu818Bv81i0SZi748gC/QtW0RSgAxKQ2EsCCIlIGtYKdVFjOAk8CzssHim8rA4nMls+s5CuHOclJ0QtPxTGIV+AYg2H6MoxHlowpRhcE9K4QoTjtB6JgiANcD9Z1AJMcccAdgkcTJww8MkAxBu4HREi1+HHOxyOxwFAyLSqX4T3tX2CjqHbufDVtoINwVbkdeqxiOH1GJiZGKQPIl1p6/FeA2uJq8CEY8QcgASco5Ft40hBlLwGTqcZSyunGYfIDfU0+JXDv+M5lo7mi1dOoHlTsqm6DfoipNUYgXzOZflZMM2HWbFknYOPw8WnI8mY30F+WNicvHoquCsLDAfOPXwidljkQ+T7mO5gdCq+buDfamtrdw4fPnwbwOl8ANO0xHH+zS7nBgVsABqC7bhv375CWL6uAzBUw1P5d5wv+biFRR5WsUCUShQGJMYWFsQYg5jzAPpQRBGoW/JQWzSdRriQaxnnIEzLOpnTazD3ApiiUaW5NKEEi7viWAyZFFVwUhJyCnGKV1ZuSxDx2OOZk7l2hxzUhmj3KJ4hQ+uEwPY4rvEzseGvVfg6fgBi1hTd0DIGDvMHp974C/REDyIf0QLsv4ftiIyHL3YZ2hQYPA8O7Tf5B6o9FLRTMSjHQLx6FIm7jgq7GEwG5NPBMOfBzfPMwAZTuwkOCGtxAQNY2azDCREpVmNY/8KQqclIp2AYJvSYDzmDfBDRYhDVEMGFTUGMGCtzolE4MiLXjxCD3xBW6ZBMWM7g7WwghYcYxjLkyFMdC/dSo0+mCMQvL64zYd5nLidR4opufj6LZnEw4poC2ZCI6EgB0P4VINmMd70AWR1dR36x984FCtgc0BBrRV5yGJLVVzEwWU5680TVf+CBB7BghpIzaMzzOEeJcyrM+fDYZ+ZDQFCoDkDiQNWILlFbsBernPYxz4LzFTBQceCw0rQyd3PMtMXL43DhNeEdhgOJ6AXygRPqChcjrxCcDvFznMvBLnNVFtLEn21diEqwhY4dE7Fe9XU49hfrOP4gU2JvSUnJW9j9YigUmo9PLCpol3OFAsd0pXPltc7d94DC+TJwDcsgfj2FuK/dJ3pTLOMzGiEY03VwKAw8cfCB4IUdS+wCKoBDAvBo2PgTa44BLCJIKBY1Usilxa1kAhZGFJHwnjcBqToIuGdEjt6wYBc4KCi1VXA0zDFp/RSJRcinYXWMODahmrwTfzYDlrUxMPELDFSQnRE1DSsbHl1QNf015pT43Y/+yf421ClgA9AQa0FwEisxIGOI+1r9UcvPAGQgtXDoKQ96Bh7e4i8b535Y/BkABPygDYCQhmOhMJTFKgBFU2Cqj1nOieygKEFck3AfmdkYVihDZDOtTwYUFqVY+6Na68yrgociyDHEAMjgwRsvp3Ns4SpZ4thA5WQ2uR1d+JR3cP1ObFekp6enHv2z/W0oU8AGoCHUel/60pfOA/AsRdxUHaxC2z+q6gApxh5L9GHRicsR4IkDQgIY+JMBREXOn/5AiDpDAgWjBpbMCVPQj+Sr4IpE04MNOaKN+IY1EsGRJCElRyo+U5C03osldQwK+MD59GvU3xeFKghgBFDiLeGNnQDD49WdQRDK7Ln//u//PW7w7yNGjOhAHdfhvUsQJ3b74N/s/aFNARuAhlD79ff3Xw0OCNjjee+GG25o/KiqwzwP/GGuhBkI3uIAxCCU2BIAxJxJBFHt0LGQ4ADYZKWTM9VBqcgdnZruIsUFXyA5ctRmIocQeCUgHBTPIn4TkYDeK1FSMkI7UhVKSkXeZ1jWFKTtAKpYHBBXhZ/F0fmJOlkVO/wHnJimOUVRw/qCR8q6des0OFyuB6hGwNVdvmjRomO5pCMn23tDigI2AA2R5gJoCE1NTbmI9zKh+3kVSuYPyzOD30WSRmPtLqcKroIBhwsrglnnYnE7ELFY54NBbW0SlnhGBDr74sDKxeIV++3wfyxaiNyGBiziRzbk98H676IBwNICZGqI/0KCeU5sJsP72ZSQsIxXRwWY8ZN5mWe2tvFzLY6IOS4GQv4+oCQa0EtbHgM6V+KYAtDdCR1QH95hChTTZcf8bH8dohSwAWiINNzkyZOza2pqzgujIO7rqKDTY18Bg9uZU5B3DZaUcCQ4DR7wCY6Hz+c11zGgrU1RZGvdL0sUg1Iay4rhMoAVrGIcjnFYaWwpj3ExfuOOwz7W+NX6tPbxDIY49ojWkYZDhRQIjgb6JaR+RUJ8Bjleb4zPOcIJcW3ihcFIlCWHpoUXJY4lPpHnqAH723G/ZIDmjMRx+3NoU8AGoCHSfgjSTALnk44czRu3b99+wiRdt9199/ivfOMbL2NJ5psNHetjWIBwJOjTysEDczdEGWvj10+AE3NDrIdhIIoDF/gX5lYGb1Y0+8cTzbpmAPSsEA3mvrAlQI8/GYwsFunw7fA8XCNLrpzDh47swEimvwg9kILPkUcO23tDmQK2LD1EWg/6n0mwAGVDCf2h5Wru+Na3MqaOHzMdDoKXv/7Gm//U09WTlpaeRUker8VpYNxbAzsuiMX3rdfG8YQlLEEGCF7UB+uWDsWzLsC8bkFY/NfE9SyecaQ7ryfvQIiFyVwTgI6LAW9nWVABZNBBweGRhThgiqWEBuRZgMNAxMUSCXmfgQobG9ckcFypaelLf/3wo7M8CrVkZ2cLEDv777rrrn68+xb4P0GyFBaWlJSkgSuy1wqzKDl0/9gANETaDqEIOdDZKBC/DvvJrPjKV5J6Dx1a2F5Tc9t+U7+kuKTEk5qcTIH+EPxxIP5Az2NxMxjkzJEwN2TJTol3xiFLvEqwIQwU2IcnDzABQhWcCS30iOMFH0UwhkQRiGZu6IYk8uF8DyAGotUAZ8TcFIOODvDhR3JIBl8usFoH4CIMrNDBVWAujIuKgFgWyxiQDCipu7u6p1XVVD03c9rknvz8fBGhJ9v+6ep/+vYTLzyxa+rUqTtAB7fX6zUAQNb19p+hSwEbgIZA2y1ZsiSzubl5BRJzib29vechP07J97///ZbfPvTQ73y9vcuppzupp69X2LxlK7W1tkKZnEzgGqi0tMTicDhOiwuDAy+5YyGCdYQPJnaAD0AM8CtW0MbhHwbAh8/i+8QALB1IXBgRM6hM6WE/adx30EnW7fAd7IzJfj8MKvjH3I+JXNDGoHPZ8ZALry+Pmln1Y6Bqa2+jmpq6wub6msLW1pl08NDB8T1d3emLFy9+Szf0rI629kxwQ+yU+BS2QW/Ad7PLUKKADUBDoLWQ9TAdqTfGBOCjA0+ZlPyyMXlPPPn0t/p8wRv7A1FRQsbB5pY2mMzTKIr1ulobWyknO49SsdZ6Bo5ZLkEWZ8KD/NgXPnIswb0IiBdTsYKFG1YtCFS4gC8CMCE9qyakUZ+eSgHNSflYHdUp+QEvDEOs02EeiXkZ+BCZDlIRzepgTgqXc1Qai1jMYyWKFdrBABX/weKAYsEwVe7bT3t2bKf0VKSL9YXI5/cLCAe5orWr7wp+RsDXy8B2/9KlS1996623PpQHKXF/+/Psp8BpByCYj8XNmzcra9asiZ795Dk7aggFtFpWVmp4kKFQNWRnqL//D1iBYnQsGgNPAW4kFIXzXx8YoS6L40FQuWV9amtvt6xbvHrFiQqLYHG/nPgZltgFUUnDFhfBBlJoAIp0RL074RGdisBUQ3DCDA8RyrKYxzkgXnsVpjNgFVZZxWaBDt+WEYgV2czpDEJA5qj4K2/AFSsxfWtDA/l9PoiPMQrjvSqrqyzuKSk9HdcL5MG7DBteyulek/BeSU+vWBG4/plnjqDaiV7UPn5WUgA95vQWp9e7RJEd940dM9ozcuT05srKPZHTW4Oh9TTO/YPFTae0t7feWlff6Ha43YLT6cppaW2FWohDHcBtBAPwQoY/DkYyexrLipPy8gvIjUUD2Qwe9++JcyKJAX/kk31xWIzia7Hhn4TI9lFiHblE+P5AZEr8prPpHgDUriZTHxLZ5yr95MTqGvFFn+N0Zbce2dSoTs2kBjUVoRsw2TO6ADxYx8P7/FWCWX6wVzTXs62tFcs+d8EpMoQloPEZBdDhOHNIWOseJnokzUdMWhRLAxUV5qfAH2j8601N00YOG1nT3NbcM7Ra1q4tU+C0A1Bp6YgrBUm+B9PrZQibvmrsuHEZoyaMb67cvx98tV0SFBhRXj4sJT19RWdnz4+62zu+1tPbn6NiMIaR6oJXmVi25AJqbWlGitReWKyYmeR8OnHfHla98Ln5efkWF6Jr8FKGkyEP/PigHwAbRiHrSj7O0MN3wQDHicOkdsqSuiFMwZVooEgAFk1zUXMEKXvgcJiMhPZeGSk74PPDglf8H/Q9yLhYEcU68jEAkAU48V+AmDjnSLGUzqx3wrOh26IOrDkPHQ+1Y0l4f8BvKcgNvJOAFzZxnIEyNTUNYmU6gcsT6xsaR0Vi6izR5ZyTkprVSmlJ7ZHeXpuzPkLis37vtItg4ZhmGkj/AFbdqxjCRFmRJiLV1T2XXn3ly7Ig/RE9fMfLL7+MpDLWeDjrCfg5VlDCUsS5gqLMVmP6daZmLoF4lMNJvzBCAR5YZQIiUEdHE4WD/fQOuACY5ikzPYUgsSCHIcIpkCqVHfw4ABSKWkSkR6msCLmaoez1+33kTUqOcyPHVpqBaBAYReG/GBSxfDLuiYbCFgcqEYHqBkzwyc5O0jyInA8iERkASoTOiNuUIQy2L5yPuiAtB5YYO6oMBh8GQuaWuL5hcDztWIGVLWARRNY3NjciLg3Br5ajpEQOxYEQD6ywChBKTU2h8okT6c03Xsf7quRJThG7e/vPw6NfdopCZV5ewSpFkV5iz+mDBw8ifN9eU+yoRhj0hblr5NuW+/r6RCx/FHvmDIiyg/vEoKqdut3yKbPucTodP3U4nALHKzkcYK0lGHLR2WAN0REItAGd/g+wcrz15JNPtp+6mpwVdxYBOnkQP8Zgdl+MuKnrMCbHsRexCe6CiwkA0hCjFYNORAMng8xgFifAIgtoxKdgzMa6wP34wGGMhngmJ6dlAqg66Ysrb6PJUyYjqDRIsKKBqwiA3g5LL3QYcJjzGQAfvhkrUyIAlKXyBzTVUYkFBVEPmNgZMFicUuE8WBnIpU4sr1ye3EdZLqyigevZv5kV0BK0UhJEtxf8M7Hm2LDDPDZzO+x8yIX32SGSQYYBqB/6q9S0VEryeqkOie5fW/OqxbH19vZY50kQ3yQk1/e4PRbosp5Jh4sBMihSZk4u7ojvcTTDC4T5/jHQYxcesQYK+BcCklTf39Bgc9ig1PTpdyoZGbXZJvoKOhRyiqvn6aZQCP+vX7+3bh1bFU9rOe0cEGbp3dFoZJ/TIU9wIFbI6XKShIHkwPriGICS5HQtQgeaDT+WXdffctM6SZT/+uQTT5ww781ppdbn9LDCwrGZTo88B/LJYtXQF0C5WobcPJnIumMxG4wHnFcHAZgUi4RJgaCMGR39BdYpDXFYGFn8G0DoDfjEPIrPA4gSHw0geRScTlIgHKbCYcWUk5eFocnck0C5ebnk6nNaq5q6nLw8MvvpxHU/g1+LZyROxeo34OmjImSCORoMeBaiTACjAYDRADBhAGQE+h/miHAFJGqr6hYXE4MCO2S4ePFTS8a3AAd1SBQr/QZ0Vxq2GLi0nOwcABByEEHBzO9ZU1MD8bIJnI9Ms2bP7mxtbnuqquoQm/PmKrIwgjklpwfL/IBOQVjE2HTPXJLL6bTWL8P9HaDPeVFVPw/M3+1Ok/YXlJT9XTMjGzrqW7ahHv9wYtqyyy8fJRqOhUTt89SYPMFUjVLQP0uFTo3dKMB114Eu5z4AVR3Y9VZpafkSqCCvjajhy0MBYaHk9nqcMjqPy0FhRSUHpnGHosxyisp5mhC7/eIrr34y4Ot71CEIXW+//XZzoiMPpU/OZAigmKeSvBySxMWIjyqBq7EiSiLUJOD+wJkwVxPBKqMmlMACOB+ITlgz2XglNSWrBgNucW9PTzqOrQJ4MKMSxv6fERrWPnLkyBEdHR3343sScxlJqSnNySmezIb6GldWZhYABOCA0ZoEEYyf4QdHxDPPYM4nQUsWuxDFRQEpGdfBtM5mdAZGFAOe0VbKDPw+MS1IAlKuIksHIS+r9Tv/YaBSyYU4eSzAjOeyDY3N7Qx48d8hE1lJ0rAoIjp/akoawEPid7Xqw+leWQ/UBSW0Cd1WY121s6ioeP3ePdue83ocYwFSjwJcclU1poIDKnPDMROcXzcU8SGA9jBN9hBCVsBNpVnPx4RXFI6EimLh4GKIZuH84uG7FElc7ZSUlyorK08Y0mJVdmj/ES69+upRetSYgRa4HmL5eZqhZmPyl0FrgQOROUA4nrESVs+Yetr1wYn+cEbJPGHqzMlgxb+GWXQ+LCQlYIIgnQF6MJBYORnCbM6mYifML8led5/L5d6AQRTFQFOdSUm/mT5p0rYHPi4y/Ey84aJFclmD3yuTf7SgCMtRhYsxEqfHNIH9i62iYNZmQGAugAcl9nkUdsPdb5PTNF/QTPPNrq6uFj756aefljZs2CD/6le/Omr2vuKKK4YfOHDgGQDQTCiae2Kadt9//PSnb7+7Yf3fsIjgjHlzFlBWVi6FwUnpeBYP9J6eXktflBCJ4rVhVROLY4iOB6dTJjXSRfJ2wAf6JZvWUVhsQtpD5Hp2UEjIoGQ5RsNcaB9Lp8fWMIhKuD4E4PpbaBHSsiYT3gMidlz5zIDH78vhH6gGJhyXte4YuBpMOhANEaz63qb3OS2IH7zwlu3bNo2IhUIl6RkZPQhDuWnXrl2vo63lN998071x40YdYRrT4SNVDH+nLaBBl8uVvBI1uBYDazy4oiTJ5ZbdbhdEP4miyOTIuibm05BwBPFmUhB1eRVc4B9N07s9M9PZX1FRwUnwz/rCupvjVRI6QVdycvIwfyw2VpaEO9CeF6gxw4NIGauP8eTGgKOx4h8NgHfXohGkjRPFWk1Xf99Yc+gXx7vvqTx2hC8+lU/5BPcuL5+VixXI5xq6eT4IcgkqVoZuwlpOq8iSSXm5WdAR1EGhGsCgyqTMzJxab0ryT3PzCraMHjved/+3v1r1CR51Sk8ZN25cfkgUx0qqsBBQswSjfgreJ4klEOYE2KzNOhPGGsjfFIUiFaUNnWUfslBsFCX5uY7m2l2fpJIYjOL69etXYYmeS9GZmqHf+RJSdqyBc17mgcrKV999b+PM5KQ0mjRxyoAOKR6awSDgAw0tMGAkGCgskln6FQzQYUIbXe74AOMVxyDi4AdYo5gXisLHhxXUUBLDF0jBmmIIzsLvcZACL0P95KVngvMpJCZBRY1rBol7DEKsLFcUiFvQ6bB45nBg3TCPmzrgt7R7926syOr9/SsvPXvnqFHl47q7W54A1zMDQLMR114HkGhL1Pd4n1CmumMxaQpW7ViEIbYUNTsPdE0GFuE50Jmhmjo4L+jN4hwgsFCUlf2SpKzFO25A42xLblCaKujsBKPLrrz2or4+30w4JmgaJi4VonoEk7RTcZpuj2tBSpJ3um7qucyp8sQWQ6pc3jgUh/scGi6k6WYnQLoCwcqIKxR3OET3xkOHTry4wfHo/HkdO+06oBNVfO/ezaxwfmEFrXh534Tq30SN2BwwhktFwVgEn5HhOhSjUaSJCEV16sXqnAVFJZD3vaVuj/eXLS3NXWNGje7/9n0/WHVg/4G3ivLSd8BHROru7g5hpkSymlNbysrKUiWnZz7se4ujprFI0PQS6EuwTjGbkJ1xBzz0fFa6CvCjYeBRY1ovBt8WaFbWYAG/96OKWeVvbuo+mZqCI7gK4RmXBiF/QOy4j8GHr3/33Xd7x44du7l8zJiZO/bspzD8aTDjxwccfudB7wFngDrA1wadGAruRGGdkQkuJ0zJELlgySKYw8HRxLMqsqLZiSWc2f2R98G1MbBali8GIfgAYW72Y2WNKDyhZYhvWC7DOs7gxhtzITI4P4cDHK4VWcaiGfyZoNdhM3yyx6llZaY8zRdVVu7djxn9ZtT3DYia86B0/zIOP8C/naiABmz52sRbQcHo32tmeDqCZxdGQupFejRaDrHNIchuJFnDIoygCfqWBEAsx4Ath6L9dnBn9eowfdcwaeT/xcL+d7FCKyf/PyvK9Tfe+MX29p4H6+pq05iWaWlplmXTMCOW9TAK7iYYjoILBS8KLpPToGh6rE831G5McKCJWCGI8l60Zn0kKjfW1e0948G88V5zVpD3Q5UQaMUKcdzevTmS5Fjq9Kbcgk5yYSfMtf19UDxiEGVkZELRmk8FvEBeWRnt3rXbqK2pUXNyc1pSU7yS1+Xogdz/lsvlbJBl5+OPPvro5wpGxcXFpRBjroP17otIfTM6qkOjgyJDqS6z7wpmW55pmdNg0QcJ4CNOh1iPDvBqLBZ5GKc2YMCwSJWQyj5EhI86cNFFFz0BELoVYRq8eN8VEF1aE+evXbs2a+/evc9v3rpzQcmIEZb/DKdcZQ6EO288GT2z4hD4UMcQgCEuYuEYhMQMLNVzrfM9ckgBfI/n8Unc+6M+eQHCGr2IVodnAJicuGdct8NWPM64yGIfO0haPkHgjFh5zOI2i3579+7DNbEXX3z+uasHPUPCQPtvcHffQaL9d6CgXjjot0+6K+IeKRBRJ8F/6Ouwny1RVSONOSJWfPPGYASQg1MnAnlRGwUzBbytUSG0FcRheGjvxMOOsIuf9Mmf8Ty0r/eFF164AZzuDa1tbYv6/VEH6mQBeQbr9xhsWDTmiQPcNVsrYURoVkThoCzIz0QVdb2TqAcTVA+WcOJ+xht65tlRzmYAOopCy5YtL/CF/Kubm5umdLa3WhSMQablxkhHQxQWDsPMyln9PNZg51k57O+z2H2w5ZSRlf4zf7/x8/r6ppjXq4cxs8YwcAU0CmtQP0mDCAUFBW7J48k3dcccLBFxlaCpi5FEPYMd5XgWl5RkdAYoYWEiZp0DBjo4XwOe3sIuDPx1kqQ/L+p6BQJFWRnxmcrKlSunQO+xBiCTAyD7lc/n+xZueNR7/OUvf0lf+867q1JSM+fl5eeB40F2Q3TQOADFzfksYTEoYUFACmDwAZ6Qb96kVC1C17k2kQexXvpJAtAhbTi9HmUAYjcBpgXAJxgkBQOeAUiBZG0BENrOCeU7AzaYODpUVVmXk5Z0/mOPPdY4iDgCQlEuxYTzNNpMxfWzIYYfGPT7Se8WFhaOBke9DMvGLscAmAwzP4ORk/sOi6AIcYGuBH0LnCq3J5oRC0uLm8A9vCoa8muwvVVi4mC28XMDpJkzl2RCYJrhlMQU1IgZfgAAIERJREFUXYteBp1dKnQ6amnxsLI5s2ZN33/gINXV1lFnr8+ygDIHKoOeYOB0LL/UiVi5PVj4scLlkN5wSOZOiOUsqh7VH06aUKfhgrNGBPu4d4XOOaCGQ70aWMwUbzKABcpPCToNdGL2j/H7+6mzo41cbi+lpKQSFJd0sLrWUmBHADHO1o5vuz1JF8pOyM6k7EdgY50E//5J02dXgwXfJeqOmgMHthwWgQoKpnvSvZHRCEZIwQyoRjXW5ZgLwDzMhVhYzAv9SegArHiF4wtYXnAVsX4rzSnSYHRi3j/gcLoOQef8WgydoqeqCu6Cn1+B5/BSiJiZAB+squx4C3f+UGe7+eabe++9//77olH1RXBgWTjX0gMwAAF1DleGxS72qUlOSgIrH0GgKegpOSgggsU3UO3jqjxZ9MKGe7J+IXE3dsfpowyY6SHmIHg1Cl0Tcz4MPgw8XAd+Pl9niYW4klO+qlqoLycn43uPPfzwYPDhOpoQvWpQ/3ZszHFegmOfCYDgE3UI9zg0naY/0ljYM14wjfnRsP8CPRaaDEPICAZJ9pcyBbfFISLfkQML1C9EvReakn6PabhWFZaNrkKrvykZ0b0AxAhX9NOW8vJpk7DU9c9csrwIYI3XRT5tcKaCGKSqmibq7fJRAJ7h/fA4ZWMCF+YiZaeoexyOx8DNPZibnXoIk6mlUPy09TgT1w0VABKqDjZcFomFJnFYAc+eTofL2iJg7XlWZ6e8wqJiamyst0QK7uBpaRnwEvYhULOfuSQRMvEk7vyGJkzjgWKZIaNGGBFK/aQYNVOmTHsTt4GZX8LsE16omeJUDC4HNjzCSMUs6EQcmyU2QNFneRyzOVMLg6nHaJQFrQKVeRtraT0Ny89BzKCBtrhO4nNtWwALx0HNhwcr5wc6CADlJYuPWy698MLNa9957yGM8h+w2MXAw7MnK8LxWhZs8XcLlPAOLI5w+EXU14dzcEsA/PEKx3TFfzv6d76XBn0OL+8T4Rg1OD/C8dRSADN3xZyiVfB7/Lk80ER4Oif938Sx455/7DgPQ91aAFwHQOtStPNVcDv4bVVV1VHWwONc9rGHthEGbDOxwn8XlNx/Eh1JRaKsLceAvgyTyDRk6PcwSLIVjbk0LqBhdlSL3W5ENR00uAsKlx2lpcV/d7k8CFvTGqJR18aGhj0f5/QoYZXXfLdhqKrDWwQT+e/hkTzVAd+mVjiMMrTn5OZCGZ9CLc0NyLmtgiuDwyfaj73cuf8DjFmnGAvHog+1dHVVIIZ3SJaje89Z+grDhw9PNw1lPao3kXU/THyYD9EpoE/ArM0+NFC+WEATDgctlj8L6SiSvB7ywLuWQYIVrVaCLhY3wAPxfZi9tgo+OD0omtVM8rpMCT9gohHY1Z/FFsvAjE6o4DmGDqsDwiASibxQlyYMq9VIifGyFvRtBGfSf6rJePXVV49rbGx8HYNwGDrj18EJ/eqjnvnzn//crZLyG7zjbSGAAhfLAsZ4gMI8CDv3MT1YFNOd4FYAsMtCa2mY0gK/HtAK9GHI4MHBJQ5ACTBhCuE+oClbxTaExtOr/WWw2PspBeDDv7Geh83xcHviy63bOKH/cXs5Eb72dNjtvf1n9957QoUvAOJ21Pm3EMPC4FCW1NfXf+SyRPGHfLq/bEkzJGlcTDWuwktdAe5wSnySi08+IIVFP3YSlViRLsmmF30tFoPsLQi1hiCvhhHg5atvun7vXTfdZC2dPWHCeXmwIl5m6OoUl1OC06gxxTAkTRSkJNw/pRWBuP0c/4bJ1Ol0wzEzjbo620mFOMgZALgPs6KeWyvRdxUHgmAU5SXV5bp9qHp6n4C5/nQNd6qu8npzsQCV+CWQPguWJistg4AOzfusPGXLSh/c9tm8y6IXOgSyAvbFdRoAHPY3YbOvhpU7456fPHlDFWzJFuhNsNZwKlEDC6ZH4KgTVQ0BjkjkcEPfJ1vHAWoRzEJhyGLhEHTJTRhra6A7+M+AIvyrr6n+qZCvvxLP/8yz8iehITiAL0CM+AKUpn5wBt+DiHNYdDze9a+//rr2r3Nmre5J8hTLcmiKGqyD0IN1vhhy4YzGYGoVfMh4sXAIVhUMLlc0QAKi7FUsPojICxh+4avNp2Ic8HLN4Aut6+HQDK9IkfojJjVrybQ7kkUdQSdlQExgjSgPGC4sfjHYWUs4u32UlQ4/KEP6W//73V988Lf/EZctrDOP+6cLuqrroUzNAhdUC+7vhFzfca8+iYPgmjV/f39ryO9bW5CX/Tg8uyskAblH9JhHi4UdWiwC1yUTYhDcECBqMhzHcBJ0ZcgoK2aCUnP6+n0r+7p6L1y27NJYMKZ+E3Fs/wUTxa0A6ZmAqRGaKXhhXUw2BYeTuVEEaGMSYL0cLIwgVxQ6MxV9Dj+RC5Msc9wcYMwe5zwRygApNuhhG+uSHZme4qK3g+3tQ04Ei/eMk2icM3Eq9DFZTm9kExpjJBymrEbhlVtYhOAGYucqgAcGA8CJGxEDJaYONB4GQVpGlgVAPBXzgEsUFgGOKoji5gHCA5JnOdZZsD6AC1uKUlPT+xWR7j9YV7m6t6Wl4ahrT9OXlStXugA+6/ft2zcTwPMSOK6rPumjG9972n2gsfNnhyorvtwU9mLiTQc9WCw7cgfALcVA49ouLK+MwFcv9DcOGd7Rio7kY1HQg2kmkAuKad5jekaQZTEMe7wft8JiPRRxZVBuVhGlgXS8qI81Y2NUJRTPAhKopbl6zfMmjH5sfFnON8fOv+MTWSdhyXoW7XEtHA9XA4xurqmpOeXc5hHKPCAWFPzfKE0LzgS3eyHqsQyvnisiJIVX/GDU4HcFylpcnoyJKwXpcYEQVixeIuka044JziIvJ4rDTAfdmxeiLxK4AXBCWJ+tp7uDIj5/HHDQwRUAHYM9P8NS4INzZKdN5ib5MNqkITMlc97u3ZubjtR3aOzFR9dZXtfy8sxwR4/vEFSlIzl2rLuzG40DwQDmYk5qxYGsHDIgMIsKNt9AcCvPIjGcwwpQlzsIHYTbAqgPgc4x724NrwHRjMUU3ngA8eCBad0JEWDCsKKRrwGAjrny9HyFZWQqthnw/YmhXo+czFOHzb0+/Lv/uvs3+6rar0ktnZAnImbrCBzH78QWLw1pN8RANxTS8BNCXkQgPEAZRh8zCScxhZgJgsk3vktONWjdJyK4MKAgFkNsNaJ9FJY5H1AcgLhB2NrGnw4HVjqUUp4uNH3fHTv//k8EPvxMmNE3YiK4FqEYE2GSH45De/j46SkPGGjyg3jWwdzc3OfhuDgK4jcMEuI0vNTNeDdXdk625VfFNGJRClZW7KJfcmc8XEADFJ5AeXEjJglbTdkNQcWkyfrKMEJlmBMCxwTwhx8Zi//Y54BczgHFBoMj97R6tNYVDA5+yOGnne07QwKA5s6dG61rbt6ze8+eSzV09omTxiNxeS+1QG6OBSNIoAWHOFawgvPhmYW9QxmgeFE+njG4E1jsf7ztB4bQkabh2QVKZgywQRIphxcMzFTc2Dx4Ojs7XRj8X4VFZ8WEyef9DsR7On2X9+A6WoeHn54CRuya/r4QcsALB5Ed8aT0IMuXL0/evL/zmve37sl07a2nCy++2JpJOSiU9Hin5oERg+jlD/THQQfAKwwABw8K3uUC7GLyWCUKj2j2keYBJYKOLOqGg1HM6uBKB07je7DYzBxlfU2tnpaesWnWf/34I0XH+N2P/MVk8ji+fQ0DvwxANB/7FdhQ+dNbBpwT2S+IN5ox5/xh4VD4Qu5jTCPW18BIDlqxA+cAmfDJwDG4sM6NyZiY6Ji7DwZ83OvAsTusmDb4wGFCBWUBPAxs/Iwj4MMNwDpRjbwplnA8+PZDYv9oipylVV60aJEIk8NSr8c9r6GpkSoPVpGvzweHxB74l/gtHxPWA3HjR6JhK4seN5TThcBEJOJi7gVWCsy84JTQ6BgK8UZE6x9pzIH9xGw1ELHFwMP3sgrOt1hnw4D8Ii6E/88X1Rx9HBwfO0eOLOuFYph9Q05ZufPO+1I725t+UlNbkw09yu8CgW74pHz8AJw+fbpn9OjRl4NreuJgZc2NPb19UmdHR6S7r1cfVlSEZAQK8AHgYY0Wgzq726m3DwDEwMsPAJfJwMPvzt95O7pwN2IA4hKnL3+yRY2NA0xjtibhU929c5eEmYSFlqQRI0buqq2t/sjQCuuWA3/A+URwz/G4zwwAWd2FF174GkTRD1dn8EWnaJ/jsWQ5qaRgeOn3QJCrMAG6mNtmMLAK6Mk0SBQLakCHw0eY1oMKA0wYeh92suU+KoOThEurRTtuB84HZWWPcELvBBCPT7RY3RbOpZlZ2W8VTy5/qnr37iGnAxoSAASvXvP1t17Px/rll/l8fknFkjO8lAuDA8aG1aiIKY83HMvGLJKhw8MlGQ2HjoBBIMN8zhYxE3I355fhwn95cHBf4PPYHMzf+b5w7Imfwz8eU5i9Zo4LuiYH7jURlowrMUSn5BcW5WdnFTW3tzd/rj4/icePGVV2S2Nj0x3tHa2dAI2fRCKhusRvJ/qcP3/+5fBpeQDgcy8Ut8OwdaDzPgFx5o+lo0a8gzE9p7mpxZWBHEKs3AwA0NvaYfnCLJ4olsWPOcQTFOZ8GIAGFx4gDPwcDCpZK68qa6OR8C8RKmPCIlkc9gfK+vt8l6SlpGtKutQQ6gvFzXODb3KcfQBQFPe+hZXRcEV4Ae9zGvVAXCFTGDdp1eze7u5bRcn8RUzVrwgEg654OAvTKNFfjgYg60r0K6tvAbHiFtjEuQB3iGDWJIp+xVZeHawuvOWtduC4LgY2TlUSD6GBqObDa6ObZmZn0bBhxRul/JzVVVu2HCtR82PP6jIkRDCAgvmt733vXSiZD6FTlwsciwSXfwHKURGAEldGDwCG1QHQMlBQWHMyGlYAWEWxuoIbi/U5nIiM5iyDluI6rgwc3EIMQDwbGRBJjjfXowuhE7FeCE59bIXDDIRrMiRdvAagcDmm+jvKp896BRj53IHtm7cNvvdn2b/77rud4LCuaOtoBpiKdU5V+khnPABPGWj1DQzWOxBR72V9BPbX4tg9ECFYdIlee+21ztVvvDERxy9wOT1acUmJ0N/bXWSquos7Bg+WOBYz2DNI87HEW8QHE3/l9eMhSADnAf7Yi3NS+AXhHIDzNkE3H/EbwV89+egjXbNuvuT/tHerlmp69H9xtxJwcv8jmc5/Liot/XVTbe0fcPnhJ2D/QwVgugciSz3qXAYuaAlOePRDJ52iA2MnTpsuSud9ExPORfAVSsWyQw6eDNmKaoHwUTU/Ai7HVodpyBav+IQXB25OqyuAXg4o+cGLWs6tTFlrg2sDL/7o7+0kuH6BvuDu4XDL4J6WmgorvHLQ2dZ22tQAx77PZ/k+JACIX/AXP/lJza2333obZsBfKYo8HToAJGvXwadAQMBfixvi7g5Q4MKDhRmd3NxMMxyK1Suy+9miwtxWcFD/3heOeDjvMTqxZfFiCwWDGM8y8YGGDsAcUELLat0x8Sc+yfD9ueAOOI99i9j5znCA+5oI68RE7Nw9Ycp5TyBS/M9SLLgNUdw8So/qotYNPuEfDLoS6KAmsZ+Tw6n8va2zrfN4l15yySVOuANcC3r8N7ieolasE4b9BtDt36qrq5/ENYfFRE7tAVHirrwJE7yZ8F6GBwPOFcZiBj6vo63l+3B045VYDQc4SRZDLT0ZP3SAdonnc+IxuMA4oEQVnN6kBi0crgQ3hYyXztdSkzKf+OUv/6s9ce7mv6xh7vD5kpISmNGF+3TV+DI0S5PATv62oHjYYrTa/7TU1+9InH/sJ+rjQ7t9wPQAGF2L308lAHErmxMnTh8LIx/AXL8Vlisvr3nP/YyhIg7IcRA5tq4f9d3qZ9af+FlMWwaZuACLbmL1r3gn477Gomw8vpCfhSejc/MkaMJdOqrG9r388gtDjvvhN4+/YZwGQ+LvPffc43393fVzsAzNQj2qzgsEggtTkpIwKcARsbePkiFmQVeAxsESv6mprVhZcydiuL7217/+tYZf8OLLVizHrPv/cM54OI450Jl5rXHLw5Q/WY/E/hYWrvAF6CQWUMV7Gg4AmMCB8bFjy2FdEX7AQLFmOMjrQMnY6+i0v5dMZdvevVvZ1fXDFx97s0HfH3jgARFxX99GYOKPASghiB8XgovZPOgUYuDBO0+Eb9B/AoAuRJQ8e4E3wlr0Is5/CDFj+wef/3H7559//iickw+OSWfFMW+sLD22AGVMAIHZ1t76jbaWthvARX1r47p1Dx573om+F5UUXSzIjq8gKv8SNKKMpHP9kEf+P9Dv2ZqamobjXCci++O/4PivESNWCSfM2XjPz31FjLEzZ2bKMX22ZMYu0QzlC4aoZKroV1a7D4jn8Qnq+HM46IYuhL5jOQ8e5y1wiPss9xmAC3KpIc+DGnDDyGGJYHHuE6Iaow8Kc5UyRGRCJD8Dj9PhxDpwqT708eclt/zdDWvWHHdCsi4+i/8MOQAaTMsvfOELMz7Yvv2dpCSvOxmL8DXU1cFcKVs+O9BxVMNcejs8aHe/+OKLfYOvW3rZTWVaJDgNfaQgputzTE1zImXBVC1qwDvedGFuSYV6zwIiHnQMSuyFiuPoNazChg/HIADizsIl0VkS+0xc9gNxwCcEnTGESOxK6FNedCvKU9u2barEz59o1lq5cmUaAOepnTt3XgSuZhUGHCc4O1wWLVuGIEbpLnAsl2JAFkAvEkZdXgFo/LiqquqE3MThG3wOO2UTJgx3O6S5gmqsBdgd5ng+ya1LsM47HB2/oMe0L2Ktsdkyi3KivAWz/C+8Kf2rdu8+OiUGEpFNRbu8hLxBwwBU19fW1j7zSZ7zSc6ZNvv8cfD6mx8KB1aAyZgL3YzX0HiNM/a5ScwbA58ABRaH0MofunV8CWrmrBPXxE9hf0brHwMLMgW4vS5s6T8LB/t2JHvkryFQeQ6Ly4nJjCP0E9ZD7mWC6OyDo22Dx+0+lJ2b+YKk576wadMzH+fE+aH6nS0HPky5s6Vmn6Aed37taxNbGxs/qDp0yBG3QFhxMi3ooFswS76FdBmPoLDoc9zCnMWqVdtcBQWEZWHCebEY7KYkpjhk6cr+SN83oBRMZmcvjnZPwaoMIehJORaHne9YMcjEG6x/GvyQRAfiYwnzK89iOK7Bn6NDksWtsWjkFwf27Fg/+Lrj7d9www3lCD1469ChQ7kAu1vhfPjnxHmLly37tihL3/Z19xS2t7Uxp3IA59wH4H0LwYmfOeo+8ZzT8Ckg5CaNDNddEEO+j5GdDOYggnCbjaDg3ZwbKFEHOCSmgcN4BiC7FO38Nri9KyGefiIlduIex37Cu7zIlZT6FTgG3gLOOAcBzkjmyEMem+WeMSBmWSMmPmz4Lxs7Plz4OojzAB/LgZDvw4CD//DkwT9LfIrBp2dnVk7Gr8//+2t/eYCz12EJbgDOvZhs7mMjALJAIjVtN5VPm2L1oa1bN6ulJaO/0FjdskEsTA22bNvGwMMPG7IlTskhWn3oL5IgSl3gSU3Nrdq//x5YRQyYmy9G3uj6z/JKU6fOK2jrbX8/Go4O4/sUFhTSNVde9eDmbVu3NDc3XgUYKYDeaFIYWZ0AKJzrGTa4uMKIO2284x6pAXNG3AfZ+sb8E4MTp6GAM08EoZvrceZfAwHlpenTywLHWxoFaVe/fvDQoV+CPW8YN3baLP/oou70hoZZMV27Fzde3traQhF/sBarSjyMsfn7TZs2fe4iyZG3OfV7o0rGz4Id+kFMAFORL8gJvVofuM4H4aP9C3B08O4jE8BzH7iL/4QY1grn0EXguqpPtmZwT1DAbeQAtL+I7auYvgoQhmNxvEfdaxAAcVseH3SOXGENKhHCl6lBrOI1ZgUTvmM1mLzanLLUiF9eRbK2NodX/ODYCPY///nPKatWrdoKkZvzfGOVJgUxsvF4xpEjR2jDy0bOeuw3vzkp/68jNTv79oY0AA0mJwZpKfQjjg8++IC9VT9zKSwe+Uw4GL6OZy34H1HJ8KKrN2xY9yLfmBPMG5KrHGpDrNRgzgW2zMCMWYq5sAgzXqo1ZQKPrAkU11uKalzHnTde2LOaGXG42ePTMsmK0m7Mp6sRSf7kgczk/bQu7twIMBPOX3TBGwcO7F96/sIL9s2eu/D29e+8dUvQ1/+lvv4eJyxc3Rijf5s4dexPXnrqpcaBBwz5D3CxSW53yjV4/6/Dh2g6h4CA89wA2v4OuqG/LVu2bOLOXTvfARgISU7XP1fX1f3tk740ItG9qumcDgn4ixCrluDOxcytIPsB2mywqJVoLbSbJWoxE8PcC3gYSwkMMELrso8TcywsbvGGuK5uGEoeQ+DpWzEtZjlbOgStFqDysY6Xd955pwecz1XgeAmi5XJwQDdg5vJl5mTXYaHJluyCwpV/+OUvT0rE/aR0ORPnJUbEmXj2Wf3M9PTchwEhd7LYj6XW4QQm3NjS0v7U8So9Zsy8ZFXtS4feeSS6cTky0S2CY99M4EsuequMNK24jDkjvpr/MBd0hPSsVJThv8SdGwOuHvom6G+cr00cV7wmI7do6pbNWzbU1Va7ll99jQYdUGddbW1+b083ztbWeV2u/wXX9wY4p8PWLX7KuVJKS8cVG0boZrzPV8A5FgLEQwD5Z77+nW9VITn9/RvWrndnpKU+AovbN8AdfWQwMIAnB/LPxdGoeBlEu8XQ42VbEeZoGCtGcBCnA+LGmwrtBYxDk8EhFe1kcT8AKojejWB/K7wupXbsuDFjtm/bfgH0b8AKnlDE5xubqtlC95kK3CTKkCP7/8GQsHbirFlve/HuDz300Mel+vhMzzzdFx8ZBaf7yWf58wryih+F7uY2VkCzSf7/b+/cYtqq4zjewzltoYNeYAxhKxYLYjdNHAk++GLNEl6c2TROw+bMkiW+6JuXZDFesgcfTOabMcbERH3wRUPmJWZhF+SyyC4IdGE0GYwpY2tLYUDL2nOr398phuE6LfcWficpgXL6P//zOT2/8/v/rpouN5MhOItpix6PxwwjeAUcbD4IlKfgO9qLL3QDvtEIHYAAotecSWHheOnlGQQRApxMiVJXaQeWf1U9PZdQhgRLwe1u0yjqxeAmiDrsjo8KRfs33d2/GkuSheNsuL8E2PNQvkJ/CZ7Kd6llSnnlQ4h/KTIPoIh9SZGtF0SfR5LuaKYz37q1vqSy0vIatKg3cDlrZ2W0uIdmiWtDz4L57R4BRA8FSpolux0ZnxF7FoMADOBB0YZ8uT7E/3SJSWkqGOyKHXn19X2nz7a23EU1Blpeox7zd+GJsYPzAy/5NwG2KQsEK9kxF1qzlzxkbn3wXvy5NbN1nk2Nt/59LakepyckynsvRgDdP3PYGrzxeKOqCrthB3oOXoxGJCDaoAVRGICRX57WjnA/4AtMNwa96Hcq5mUsD6DaU20iF9yu9rId73Se/mH4/gNt/Hcg3P0JVf0EoRQNiG0Sk8geR0vvmPcx32Gf1/PLP04Hv98vjUXj1SibcVRIaS8gzsgHcWN4M1EKw9BDiRbKmBrQDO0T76aXyQKFHijoUBKGltSBgMofsay6Ohi4fAU70zALNo+7dh8Sn7E8p1EwNgTQWGhkJQTQguNsxD8yBzFsxDNd5DnBeHgWVsTjtFQiB7wZPQQXOcT87iiVCQsp1a85jxvji9HRyKOSRaxLKWpjga40IrL5ccSgoehaQZFAHjY8canVDWn+VGKIYkpoczkdit1m+3izCh9igPKnbRVe716LLB/WEsk3LZLFE4sniqcmZ75SUuJn/TdufNq8/0B1KDp9UBIKmvH4cFPZC02j5FASEYYYIslDw2FFhjgcaDv4XzIlqKOiqFyHr+qSaEayr8nUFuy/MGLs+B8/qP2NiFQfDD6nMSFUnresCLAAegAmGBUTWPH/CVUdDzTdCm2EljrL3trSxuUBDESvk9VPVLukZGEtjJoP4+G6R0iJftwPNfCUoJkBVmLQgkgLgx0CDhrtrZ076/o7O88tex75PEBoaCiM+Z+oqalpRTnM94TZ5MuR8YgrMh499uHbx/agqPw2XDYvucLJKEzdIig7ndR9EjtptT9thytI6SN4qx0VXE4lda3XYhFvBQJ9FDdGu2a1oZ849puLE8PoZqt0JqsP8k5z14JBZCJAtpxyJCijNq/x5CXX9moaeum+EJoam7bHrUrrzVC4npZhlOSIoDN4ugo/sJn1L//tts008c30ns/3ZF0oGm5Dr7Eqp9NBxmEjzwrrVyg5aVFDmg990414LGiWCDwOIo6rBXz/EK0F562aFl5Oqoy7yrsfGm0LJUHDsIQOGqmnh4YGL2+m67DUc2UN6MHkNKj7RqkI9Mtbi41uk5RULvljtyfrkT6BjpezVG5BVYush671Xzy1FpPIt2NMyGiHImh/JRPTVXeTSBlBhUKy45DwQd8SyB0B3Xe0mKrLfYIkDOL/PyNlrWP4WjflpK3I5pRsvyV0tYmc87KkRYeDQRY+WZJNPyKy3Jl3W10CsA85JycnztwOTzQ4yraZUPIByy/1+4nwzQOre+T8HR1aauGMIn+O/hJHikvsJjmha7YttgEIoFuFZgsqzqbaEfHZPj0t9o6N5VVkeP5elEXMnDWgRcBa7V0RfFcRiYRr7fYSGEbTLnlkO3+72sfN5/GhpSru2kcCyGtQoPmYXS5n0llsO5FIxE+iBbYwMPC/LXLy+fTzfu5L9+zk/ann3gkgwvo6qgT+VO3eYVJmp9AWWe8qk23ncm+mOTUjbUup5Ws0c/0dWcipMkdxqMJd1YPE3TuBAAufnLpSGSbDAigDlPV6C8mxMgLujsLb9QwqLvrR9uWV4HhwRbxv63VOa3HcwQtIcdC0Q6hH/eyd+MyLu3ftooJrvDEBJsAEmAATYAJMgAkwASbABJgAE2ACTIAJMAEmwASYABNgAkyACTABJsAEmAATYAJMgAkwASbABJgAE2ACTIAJMAEmwASYABNgAkyACTABJsAEmAATYAJMgAkwASbABJgAE2ACTGAJBP4GatpcMw31i80AAAAASUVORK5CYII=;" vertex="1" parent="1">
          <mxGeometry x="120" y="672.75" width="121.69" height="60" as="geometry" />
        </mxCell>
        <mxCell id="hO4Qf1rNJJDb-_p562cl-6" value="" style="shape=image;verticalLabelPosition=bottom;labelBackgroundColor=#ffffff;verticalAlign=top;aspect=fixed;imageAspect=0;image=data:image/png,iVBORw0KGgoAAAANSUhEUgAAASAAAACOCAYAAACR4tWqAAAAAXNSR0IArs4c6QAAAERlWElmTU0AKgAAAAgAAYdpAAQAAAABAAAAGgAAAAAAA6ABAAMAAAABAAEAAKACAAQAAAABAAABIKADAAQAAAABAAAAjgAAAACMw/XlAABAAElEQVR4Aey9B7xV1Zk+/O526u29wS10uHSkIyBgFysa2wR1opkkpmqMmX8m5puSTCaTmF+K0STqmKKxKyK2CIiIgHQu7fbe2+nn7PY97z73wAVBRaVcshfse/bZZ5e137XWs96+iOxiU8CmgE0BmwI2BWwK2BSwKWBTwKaATQGbAjYFbArYFLApYFPApoBNAZsCNgVsCtgUsClgU8CmgE0BmwI2BWwK2BSwKWBTwKaATQGbAjYFbArYFLApYFPApoBNAZsCNgVsCtgUsClgU8CmgE0BmwI2BWwK2BSwKWBTwKaATQGbAjYFbArYFLApYFPApoBNAZsCNgVsCtgUsClgU8CmgE0BmwI2BWwK2BSwKWBTwKaATQGbAjYFbArYFLApYFPApoBNAZsCNgVsCtgUsClgU8CmgE0BmwI2BWwK2BSwKWBTwKaATQGbAjYFbArYFLApYFPApoBNAZsCNgVsCtgUsClgU8CmgE0BmwI2BWwK2BSwKWBTwKaATQGbAjYFbArYFLApYFPApoBNAZsCNgVsCgg2CT4dBR5++GHPOxs3XhGJxFLyC4cbPV1d1NfdCXrqsmEYblmWd7zyyivrPt3d7atsCvxjUED+x3jNz/6WpmlKfJd77713ws6dO29avWrVOH8ovLShqUPq94dNQ9cU0YxKsig1CaL4vqqqH3z2p9p3OFMUeOCBB0RsJp7Pm11OEQVsDugEhF2+/MbcQLj/itSMVN0hSdM6OlpnuFxuMzsjc+TBA/uz6+rrySCBTMFJQB3KzsxcXZiX/ZJp6q+98cYbzbitcYJb24fPUgosWrQIjKt8ESabC0Kh0ByH4tY8Xvdbuq43d3b20IgRw1vKy8v/DmCKnaWvMOSq9Q/NAU268EKv1y84ncmOHFNX02W3m5ySaEiyo7inu/ve+vr6GUlJSeT2KKSqUcrLzSF/OEIxQ6T+QIgU2UGKSyZJUHbt3fXB5Xt3Dbn2tys8iAKjR48W6urq3LFYbJxpCmNiEdUbjWoLggE/tba1kcvpivX1bX7m8muv3T5q4sTHD23dakLcDq1ZsyY66Db27klQ4B+PA1qxQpre2TRKIWWWJMpL1ahRCCApEQQzQ1EcpqzIhBkvqampSe7r6yNN1Sgc9pHDqVB6Rjp+EygcjFAo6CcTzDlmTHK43E2yQpe0NzbuPQna26eepRRg8eu1Va+dF9b0Ubqm3+vz+SZFIxEyTJ08Xg/NnD+LwpHIe22tLcH05OR9yd7k6t7e3mBubu5rTz31VMtZ+lpnZbX+YQBo5rxlM0Q9Um6QttyUhOmCIGRruu42VCYBRCmgSSQaJcx+JAoCqZoK4ImQGo1QOBoE0IjkAodkqCxZSaRpGkQv2QIgp8tDJJqPN9ccuu2sbGW7Up+aArPOm3dPS2vbf/n9/QomJkvcXrhskdVXWptaSDAMU5Eltauz2yguGb7d4XD+WhO1ff9yR9beH/2IpIqKZ2xx7SOof64CkDBhwgTFlZJdpsjiYmDLAkkUro5Foy4DXzRDJ11V8QkwARcDdhskMpnzwb6BT4MCfj85XS5wO36KAoQUh4NESYbYhc0BvY8okSAK2CSIYCIASHi6ev+uGz6C1vZPQ4wChYUjiwTT+GsoElyg6SoBa6w3yM7LJ0kSqb2t1eo/bq/XmrQURaHcvDxyu71+TGQHQ+GQIklyi2rEXpEEOSobynvbt+ceInqGZzFbuQ0inDM6IACOIyMjI9Pp8UxQDWNxLKZP1VR9NsAlXdc1CoWipAN4mNMxATDxksBfg0x0Lv4NMj0NHzYsGIlE3BV7d4siQMbtTrJAh/uMiI7HBVYv/BHBJQUgmmVQbk42Ve+P39X+e25QwOv1lmixaLmJPoA+Ba43ZvWhYCgE0VwlWXESfodoJpAIfSD+UG+fj/r9gWSI8zNEcNaqoU5Gv7rElDDxCWr/5GkNa53ivH2qbr4CTrpKFEN927ZtU88Nip38WwxpAJo+fboCuXsCxKG5oUhogqYb56nh0FiQITkaVUnXBHAzYYALuBrmdgaKAS5ncOHfGXiANvgU9s2aO+fh9ra2B5qam9M1iGJOcDyAJwoFguhsuBZAxYW5H6fTSRnQDckypj+7nFMUSM9O13rauzQZbS45wQGLHotLjkbC1nsaFscMYImGSZYkikUhomGCMjDRMUCJgnR4wmKRHf0l1SHKVwGwrjI0faUoa3VQBWyZOmPWu4Yqvr9r1ya2nv5DlSEHQBMmrHCkZPTNweQyRZKEi33B2HQAQoqmCQ5VNwQ1wgYJBh6IWczVDLDNzN0wB8MfAn5Dww80dPyTxSic0+IQaOXMyeMPPV1TfUdKiieddUJeb7J1HSucI+EQrufOJJKKT1nEDTVwV6YC1tou5woFWBG9defO8zQtkllX22BxNzLARQTQYLKxPk1MTBr6RywWpoCvn/IKCoKpaWkVXV3dMxmIeNLifoiLsXE/AwfO3JRgTWAFkiAUiIY4W5TlL5FCTROnzdlo6voLQnJ445539/SeK7T8qPc42wFIhG+GGI1GS0xZXqzr6nBRar3UNB1TDN0UVRUzjRYXq5iDiQMMwIePMZwwZ4OjaHpgkcltT4okM/T4Y5FYP58vQJEjyGIEJ78ry+Zv9h3Yt+P666+nFTffdqMp6n9xuuTRuMCD5/G5mNXYwUeHzhleQIZKbqc3Bs7pT+GRpT+gtz+K1PZvQ4kCFRUVQjQaLnR6nKI3JQlWzyhFMblZnAx6AOsDZQYgcMgMMG5Yx3Jy8trnz5567VPPr/4O9EXfZPGd+xj/jwOQBUG4mnsl9sGho4iirnlhhR0jCMYYSZJuNwOu2onTZm+VJXOL1+l5y+dTqsaMSY0888y5pzuyKMBUOFvKvOXLk72RSFp/f3AkGnC8KJlLMPAXYB7JUsHaMtBAHwjOBkCD74wmACFu5T6IWSFwJmhLoUNTY/XoJKLDIUVFU1wfikb8DB8Ol8N0Sc49/f2BRtP0wYhhCB6PqlZUNPUcS4MLb73VK/t8K8Oh6C96en2wgoDzgSm2u6OV/D4fxDGT4Cf0fjAY+xIEsEaYYgFqdjlHKCBcsGzZsv6A75HOjp7iYACcNfoac84iRG8H3DWYC2YORwUX5IEiuqSkeFNGsuuKF154obeobNzPZUm4G5MTWCF2oodGCNdbWMR/Bo085spFcNIiOCMAkHVf/l2RFIh2IjpadBuwbBekuHWC4NiJCbh/5851fecCnQeR4cy9DnQ5qYYkjQfxJzkdnotUVSslQysGwqQxoEBeJs2EAhBcBxrcEAQJ0pa4D19jDqfcGY3GNmB/L2aWNtxDlJ3ejhSH3lkfiwmO7m4DzmWRT/t2d9zx1eJANPg/vv6+CwP9falgs+nggUPU2NQAmR8WVtPQTEFodDrd+0XR8aRTTn6npaUCPPuZL7fccsuNCxYs2HLXXXdVn/naDM0azF48f1ZLbftDoWBoqoUbAB+eeBzQCbHex9SjlnjudnsqhhUXf3ntm2s2AqTM7AkTkpKi5v0wWlwNBBoLbh1XmRDZIb4xclkjjz8AOEAmBic+BDOIxR9Z7Dq+I7SHFAVPxtV4bkiQ5DqH4qgDJ7YB3NfbKR5lz6ZNm+JKqSFI4jMGQBCt0jTThHlTnw9gWQIT+RhAv8PQRQeUyYz8JMO6EItGQmieFkHQtuimvhcTyjY0WBScy55oNEnzeML6mDFjmD1lYftzL5DchEceeUR+7Y2/39TSWPe4IDvJH4pZrDdEQ7DlEctMb6DOAL+o0+1t8bqdm5yy8RzquXbPnjMjy7/44ovDnnvuuS2LFy++9fbbb3/r0xDGrPhNEmWPx8jIFyhrd0gQrj8hjTvW/iYpZ/FXA5/mOYOuYZUAzItnRykqKipUFNcFaON/7+vzFbMFNCk5jbJzc6H/g8IZXEuSWyG3y/UfmOT+iK1ucM3ZSAJraiYmzUncV/BpJnvSRVx7GQAlR4NpDWZ6w+lyjFOj6liMAx2KaklxyB4VUIS+NwBODH3YB26xjxoOs3JbRdhPCH2uQhLFHfj5ZS0SeA+i42dtg8GvcMr3zxgAYWA8GgoGb4vBZBBWY5CeDPgHSn2qKvSD6dkAQjd5HEqVqoofQOrqqKjY9CER6ZRTZ9ADVsCDOicn575DVbXfaGhuzfB6k/7U19/Xi3peAgVTMfRNLrDiIrghWM3QKWW2qknV6E5roCx/AWC0Ozk5uW/dunWnZYDNnTt3SnNz85vZ2QWXffDBpi2DXuVDu6xwHT9+vNwWi7kMX7hEU6TZmWb/tClJvqVJyU4jKSUbRqCk+ki4/81YqFs0dHhvQvGqGRoGlaQ7UwqLIGRc2B6hLbt6XU+DFFvS053deJAOfdoJQWtwRVJTU6djMH3V4/F8FV7op31GX0ErpB0jd8gulystGAwuAFhcBvC4BEHFuTFYtAQTvvMQuzKzc2jS9GnwAWpjriUkm7GDcD68FvF/tYPf52T2c3MnedO9QqEqaIYTSifwQJdAsZ3scrvyNDIWISQEPq9yLixrYIigspYh3GFaECGisV4SlQMfBbcAwaxEn9tBhvQuOKW14JyqAaKxUzU5n8w7nujcMwZA8+bNmxALh6cEYjGNHCBfRAXxnRUUc7WdabA5EbH4OMSZOZWVtVlvv/3GKv4+cuTIbFVQZiqy8zKnIl8ci0XzMUBdCCkDS836Asxasgs9SNoPMfEtWM6e0xShsmrHjk6+/lSVpUsvnVhbU7M+L7/00o0b17x/7HOQTkRRJbVA1eQCsB3j0RHmo66jcN4kVXEmu8QYvDerKV1EOArcxTApW15jJht0WCJgRRyLC+AEFHR/7NB2vZQOBNNJMfVDmOy3wpt8p6ZH18Fs1Bbu6WkD0J0QfNPTs27ETe4fNqxozu7du4PH1vdUfZ8wYU4GtMBjBEWYxdw4dIfjY5HQOEvhDN0OO5uCS+G4PxP6PoFFL7A+8JTXfalp6d9LcuY/8cYbfzpl9S2aMCFDEZIUMRaapqqxJExoo8AZTYR6cwQJcrYsimmwnKVJAoaRgxlIAdKDA7pS6hdE+T0oCNZpZrRC1vQKySs1n20+R2cMgE5VhzpT92V2O2oqI7VoaAq05BdjdpzDA5r9j2JQQgJ8LAUjPKnZfbYSnXqtaGh/7+oStrW0bAt93vX+7ndvT37774c25eblfmf16udeP/b+P//Nr+6QJfnb4MwwAMVMAKSC0H5m/KF6AxQIMZonHaIcwQ8AsjKRoNpAHgtWrQ/rlhAMoKcArkg67YqVUW2sCDOxYOlJYrEIfD7VZnCG3RgRm01Ne/z73/8+gyHf6KgysnT8CsUl3vPNb163+K67Hvjc6TH4YXPmFLlVNW8a6rQsrAsLUPnx0VgsG0YGKQwfH3A/Fqg6WFUjCq3AoPdlp7wuLy97cld315j8vPw2t8P9UmZO5jOPP/74p9YvDq7TyeyXlJS4HI5UiHZmututFEO8GyFJZia0BQvRnmnggMaiTcGIO4g9uKE9YrGsEa37PsTGClERn92xY0f9yTzzVJ17tpvhT9V7f+73HZhZ2Bf6ALyyn8MnD+ybADQrTI2mmpLo5I4Ndj4fAzlfUsx5DsH4TkaGfjAzc+KLUCq+un///h247kOD89NU9qc/fdR/w02X1yQlhdzHux5+TzMcTud4NiuzLMHhJ4nCoIKOzFhjsfjsUBeHHv7+4TmLYctSneI3drtiYwEXiFSQEIwiQVCKENQ7GWLqNHBBl2HrSDwr8ZlflC9lZaVsbW2lUzSgV0iTJh0chzpdpWniZeAiJqma5oxENCkYtvQzFqeD+phORfFBr7IRTOwqzTDfMIVYS/XBm2KTJlXIKSkpMmimT585XcV7HCFa4kVOw+eAUYWdFnmrwCZApypWVVX9BCKsF/azMljKhkOMuxQVLADQzlB1tQCS222GQlFZx8xCdFYA0Id7E2pml8+TAtOVCRPEKaqpXoXZ9CL07xEgehJ0XrKhxmBq5VmW5XiKSpJjQ8xUfo2A+20U6u5Eh4KZ7dMB0o9//C/p7aGq94EM7zz4n29+6dg3+uVDD/3W6XL+SwKA4qgHcdHigljsCNNcoYJS9T7ShbiugZWwsOAcUyXuQhDHBJ326SV0KFqM73gnIJFgIt4OFeDCoStaNFILluj8++67r8k6OPCHFf0/+MG3vpyanjbsnm//8F8BcvHqDD7pJPc5NEdMh2YlZkyVTGEexOLFEBvPg79XEpvNY/CUj6kR6LFEPF2MINdTFM4cu8Hk/VE3w++0HaNQPsnHn02nCyNGlBcpiibFIsIlLqfQlZOf88Lp0kV+HCFsDujjKPSZf98GHyPaittsLSub/lOHR5+qCObFkOGX66JrOFxjvextDdBxgg1ZKkrGBRi8labi2TBm4pR1EIi2GeFwLcCIXbw/cYkqdfkvP1lR6HR5V/zTbde98sRjz740+GKA3hHlMMY7fBvAmKE7mE5ymlEqjNWRN1JDUSOGKrLPS1yfdTwOKAZWwYO75YgR6jDd1CHkglMycR/Wg0F8w70h4gGKTAW45BxcD96fOXPOCofDuD8jK+2Je7/zmeZEYerUqcMBKeWSw7UkGtbmwqI6BdZWJ3RzFIEjITunsnUVXF1IFlzVCOfaAp/59XjxatmIbB/gLo6t4lD+blZX720ceIGH+HPfwX1nzfvYAHQam6KmZhs7Kq6jFSs2TDp48GE4Sk4wNPEiWFcWwZpWrmLAwpwP9kEYg5l4DHwkb8JAaUNQ5JaJEye+UVZWFsrMzBwH68y74XBYTk3N3/n4479t41dgpTIU5KwZtkrljoz8gE8XfX19qd0d4R9BXKj/4Q9/uBfnCDhX+P2jf8zHwLTOZa5HAqOiCxEARojyo3VUEtoEg3iEdEsPgtPA+cDtE/+OLiaAxhQcCLo0KU1ooTGAGdk5npqVXAqDc3Lg3hYPh2dB/CnKSEmagTtUD76LqQvfPLC/YRgwwIfjJ839lJaX50LumAsl7CWQ+ebAP2ZYJBRMDUQ0OAlquCGc/JjLRB0QsncAAASdmLEOgLvdMIIdDZ/BT2zwe9j7J0+BY/vTyd/BvuKzUIDpLwJcUuAmMtuQhKuhGL4GgyiTk1+xHwhbm2QBcSeSoruRjwgDCdpFB3ABoYymuXPWzIUPDyvNz+tobb6krrH+XWQAaHTJ8pVIJzJ+48aNuex/MmXqVMSzeZtgqWvOy88Xenq7XQsWzB8rOGXYH1nfg78ACkUIU0qomsYFt5CiwdFWSMagRVAl0InPYXMv/hzzvgAWYGZMcCEdv59cukJd4jCqcE+gHikX3AasRgAADo5xKiIFg6HtdTUNj4TDITEYCGoIYRi+Y+vme2uqa515+YV/njp15r1EwR6YjmM33fQv6VMXlCn3fPmenvnzr3SnZSrXRFUV5jiiSCgihKJhFWJdua7HlgNeCvEcORwKCTEOmWBwFR3gvKBbJ/oA3NcWgPlqI6JvaWk5xC4d/DK82eUMUuDY3nQGq2I/mikweuL0sbKpw3tWvxiz9FiYWtORAha+sPgHUzfMvwRfFXZ+Q8S1TsOGD6P58+ZSMNRPdfW1PMkDEExqaW6mTZveg0JYotIRo3CNm6BApbLSEivR2txFc2FaZvCA5AcRyaG1UnGwgoYHDkBogthl6XqgnOYxavWSuAj2Ua3EzA6i5CB6hahfyqCDbvjLKKWoE8zYEH0ExUvVNbVUV1drvUN1VTXlF+TTO2vXUiDgo8JhxTRp0uR2+IFVQD91AHqyJXNmzUlpaG7cvXHDRjMWUy9Oxjv4fH3MTYEeyFAQDiNdrgpnUIhXUPLj3Q1ktQyizp2yTNsjqvmi1yW9fPDgQf9H1d3+7cxQwAagM0P3j33qpEmTvLCaTTAFaYmouK+FD8pYuP57W9vbKTUlGUCkWaEgsGxY1ptQuM/yHmcjSEZqGjU1NDDXg4BJN7W2d1ne2vx92PBiWrLkAsrPzgDwSBylSxmRaioMbKacaIPFdRG4GdivLOCxFEUDvYT1P8djGQBNrOaxiirAZ8iMgPPRKCh5qd45iuqVyXBFSMU5UGKDVanYV0H7DxygpqZmSkbO7XoAUjAYABgV0vgJ5RbQwrnPekeOKmfdDfJzo27xvE3s2sCPQ1pUC3CteplmB/yw2uCcvB6Mzeuy7DhYXV3Bot7xqhyvrP33jFNgoNuc8XrYFTgxBYTpCxbkTR5TfkVzW/u/Iw9xTmlpKbUBiLq7usH5BC39Bhz+EBYShreuQmnJydTc2EgjR4wAO+RAQvUOC4AgtdH8+fPosuVXAAxMimpByg7up/G+TeRRwxQRATwADpiwrHvywLZsWMf2EhbFrGEd/8ES4QbOYZ6JgQ2BKbCowZ8GIlynXEj7XVOpVxqOXyHuwfr0t2eepX1798BCrNHV115HK667lv7nf/7XyjI4ctRo2vz+JtQB4AoRCtyQBTTgjKwUuOwykJ2VaXFA8EbfADDeDYf6v8KZsAE+B2w9PCmF/YlJb/9yqikAwd4uZzsFWhsaAtu3bd2+a9MHz2bk5dTCpNwd9PeV+oMhZ293F8QZD8QQHekg8ik3O4/aWpsgnsUIeWkAUl2Q5JBUzaXQxfMW0LBiGN6cSB8haZTbvYnGBz6AeARnNTa1W6gCCIGBLO4aAFQZBD6C6QKowLwuQNwB15P4kTmbBAfEx/gSvhfvsSjnMf2UobZSAGjW78qyorw5b5PP56cgRC9/Xzd5PS6qraqkaDhI11y1nHp6uqizvZN0NpkjBxMngoNnL0TIMgvYnDIFxowe/bv1a9+88Tvf/Ppqf39vo7+nx9fT02MxbWd7m9r1i1NgUPeySTKUKLBwybIfBQKR73V0dDj8fp8VHFtcXEwzZ8+hv7/2CkAICdOBCkhTa4lVEOloxU3XU0dHgCKt+2hebicVxxpJ0QNIkOUGVABEmLEB96PDpycOKgwyRyQYqIxwHhc+h8GFFdg4Yimoj5x6pFPxtXweGDGLMxLoEI2l13ryyYhJlOxx01NP/pU62xopLS3N0uMgJoz+7d9+QJWVVfTYH5+wdF7spuBwuyglIyOUl5P749ycnIYkt2frn/70B3b8tMsQpoDNAQ3RxssqKjwItqDH5fZmYYDmgePRupB6pK0VVnkEVYegU+HsfYwPZWUjIOJcB2nMSWlyP01VKqlYbWBogI+PAs0xB1vgRIg8UCjhGOemQTYCiDxcWPRhpS9MVqQ5kmHt4hS0UCwrEJGg1EESUguZLB2PdR8AF64RoL+BnGTxShw5LiO+zIuwDSdEPyGrHFHlBQjuzKSG2mpqQ3Anr0rCYuSuXbsJnuWE8AhGRAT3OsibnAJncvkXu7Zv+rcD+/bs2r17O1g7uwx1CtgANERbkMWy1qaGTfm5RWuwVtU7WDjxb25X0t+KCouenz135rh+vz83Auc7JOmna69fQZlIms+Ka2/XLhqb3EFC1EGB/T0U7JXIj4HvSc9G3BD8fuCEaOlepCSAClZ7YF9mEcpkoZS2qONoTyif9iLgdHcsl1qNPArIbvI4dXgX9gHskLsGcdrsGwQLFhkRZIwUUsnXjjXUAtAtyZlkOFxUmKpjYUeFus0sSilIpvSUdKqsqqUUcD/5ufnh7u7OCCLSOd0Esk0KKlYn3ehQXF/v64n9KRTqZu9wu5wjFLAdEYd2Qxo7drxXj1fgzSoz5kyaV9dQn52elUGqqZuTJk4UiotLrPzVYZirs1PzSUknciUZ9MrmDtoRzaEf//zHlOwVSGvZSz2715PY1QgdEnJfCyEsuuilD/oz6W+VBnUGDkF0CloiXQxcjwDRzZPkoEm5KXT7GAN6pX4KqArFNBc5UoeT6B1GSaPnUmtHF33ru1+ny8bqdP2SclI9TpKh64nqPlIiThozehxNnjQVOqtOWnLBoh82Hax56u1NGz2mGYWUZ7IPYVtl5d5zIgNgop3szzgF4jy2TY1zggLTpk0bB9P9u0g1nCFI0m+nTZm6ZeGihT+CaFPMaTM0pJVIlYI0I6WFcmSVatsCtCOUS7ff/QAvSW3RAPFQFOntILOrisJNe2jze+/SX96ppj31GP8uB5alBieDosBrWgJ3g1gq+N4E6I4lZXTRsgsoK3c8ubKLSc4F0HkgquHcOmSqXXHR+fTlxSV04czxkBB12tAI87uRZnlK63B0bGxopFWrVlE0FKjMHp5zc8XWnRy+YpdznAK2CHYONTAUzj+DPmgOHPN+Xrp48Xef+93vti275KIbIFIVsVc163k4PEJB7Fa606TM5BQaWYDcMXIq+TWRorCcaUg0Zsgwx6cXUZOaRo++uok27DhAfV0dVFhYQN3dPdTd2YnQC4kyM7Opo6WJOmFpC7ryKGvsQjrv4qvJDXFOUeC1DdpybIjp66ZxRj3NHp8DFyMHtQcVOujDMtcQ2RAtb6XuGDduHE2bNpW2bN2cieyYC/ILi97pgob9HGoe+1WOQwFbBDsOUYbiIQzg2fAGvhpxYnuQkuHHa371qyjHhyF3LbTEUDaz+RxKZywkTJ1hD/mUABXAFC/7VArufoF+/8pmemFHO6U44XOj8nlW7BZM+zkALJOC0CfVwRkwEAhYHIwaDEF5XAkHwqCVP4eNZc8+/Vd6DhuvKOuFhSuKrDoj85Jo5bxhNLEsBadE8E+g2qCTQtATibC2sZ8Rm+vZ2valf76d9lbsomefe3YEUoUsxUFONcGn2OUcpUCc7z5HX+4f5bU4GRoUJbeB88H6aNobhw4dOspCxODDYk+MQQjK4ZCWTPX+DApB4YyvEJPCdOOisbQgBxDR66fLl19Jd999N91+++2UlZVFLoASQM0K5eB7cdgDm8bZ6ZFDPHJy86ylkMpKSwj5uS3v5tdef4O2vr2Kxrs6KRnmftPAoo4AmvZ+kVr8XkthnWgfTvMRDkfgrhSjlStXmopDUfw+//m4F2JM7XIuU8DmgM6B1gXXkw/wmQfw6Uda2z8mXmn06NHmzv37YdXiODIgDXMdABAN8WHNWialKL00wukjNeqkFI9M999yAT21sY4q6+ppz76DMI03k6+jHQGmUUoHV8OiFpvfGYz4k7kk/pflMKitoRqrh7ppRFkpeWDVWjRrEt00r5RmjYCeCNdzLH0E2bBqu5H4SMW8h5zZfC0XBjWO5+r2+TtGjRr1zqjSskWVVdWz8F5F+Nn29WEinaPFBqCh37Asv1wE8JkAjuS/kc/m8IBdv349pWVni3GgAP4g7gujHVAQg/OhTM0hmL3lACWZsEhhnTUBJvTr5hXRml1+eqoBep2ITunQE2U5k6k/qlGBKxVgFbIAg8nGQbHMuaTGuigNv8EPyRLJxo0ooH++dDJNzoTDItZTh4sjzlaoNShTaxTe1PC05kVqWPjiwiZ7/nboUNX/jSwu/LeQP/AVRPT/LxSUc3D48PvwuXY5tyhgA9AQb0+seuCC5Wslth5sfxj8OvAcngZHxIksfnGxRDE4BnIxZI16kG6jKZJOI93t+A1cCUDBAXfnCyd5Ka9oCglFs2n3nl209qW/wKyeiZita6koJ8vihJIREMu6m2cR01W1u4Fmzp9F186ZR4G2KpqQHqOx2KwIdWtRPoL4p1CVz0k9EPgQOALnR8AS7OvsSc31ArdD2z7Y3rds0fwIch6tQeqR7xmyfDOq+gS2uOmNK26Xc4oC6HV2GcoUgDg0EfqYGRjEG8FJtBz1LqbJcRhOi8PAIOeBzhsXJMSnIDmoMZZMQRWL7CFwFOl0IC4hmh3K6fPzozTe043jUeoOx5B/R6XNG9+jgsJCuvPOOxFRv4y2b99JXT2dFEJcV1JWHs0qH0G3LCijSdkq6RGIdgA7BXjHFv4OhF60BBzWcsQaPK+tyPZBdWKQ1PUos0QCxLsG1PkN1PUCAOx8q8L2n3OSArYZfog3K0zvD4LTGA/u53stLfAkHFSWLV06AqamWzjlBgdzclgD4w9zHRyproED0UTofyCUpUrwZMbvElKw8rr3GrIhqp0VdABhEQcaA/Cohkdzfz9t3rqZ9lXso+eee55279gHxXKIsLIEkb+d8sMHqMiFtDsAHCxahURqBueZpRBEux2+bOqOeuD3w9wY1godVE8GRfY2RAbILefPn/P26tWrY8hdJOKdrgHAaggwfWXQ6fbuOUQBmwMawo1ZXl5+ITiFqzBQ/w59zLpjXwUDG+EMGOoMPgAhSxHNYASdiwqvIDaBcSrVOi2dfHoyOZARUROxQgSOY51I5BNKohvOH0lXl6dTUX4yFZUWU1dnF61e/aoFQsNLhtPIMeMoVYnQLbNzaeH4TLAvcb0O10WHuBVTwtQUcFN90AXQiet6EvXkunFdEgW4eD6Ax8oZDZ3WdgBlK7YbpkyZMipxjv15blHABqAh2p4l1tpQjm+D+4EqRfxDTU0N55s+qrg8nmkypyRlELIKAABcSTxBKrgODYMfDEkfeKDmMBKUAZQkOBgm2BNwJHB+dtDKqybTAtijqvfsI3+/n/w9bdTu66RGWMvCzfX0ncvLaf7EIjgWMqbF9U38OAlgFjSRBbEnBbmHwBUdrke8Nom/CSCCGJYEMLX6ZHt7ew1+f4VdC+B7dGHiXPvz3KKADUBDtD1zc3NH+/3+GRiwLdCZvHu818Bv81i0SZi748gC/QtW0RSgAxKQ2EsCCIlIGtYKdVFjOAk8CzssHim8rA4nMls+s5CuHOclJ0QtPxTGIV+AYg2H6MoxHlowpRhcE9K4QoTjtB6JgiANcD9Z1AJMcccAdgkcTJww8MkAxBu4HREi1+HHOxyOxwFAyLSqX4T3tX2CjqHbufDVtoINwVbkdeqxiOH1GJiZGKQPIl1p6/FeA2uJq8CEY8QcgASco5Ft40hBlLwGTqcZSyunGYfIDfU0+JXDv+M5lo7mi1dOoHlTsqm6DfoipNUYgXzOZflZMM2HWbFknYOPw8WnI8mY30F+WNicvHoquCsLDAfOPXwidljkQ+T7mO5gdCq+buDfamtrdw4fPnwbwOl8ANO0xHH+zS7nBgVsABqC7bhv375CWL6uAzBUw1P5d5wv+biFRR5WsUCUShQGJMYWFsQYg5jzAPpQRBGoW/JQWzSdRriQaxnnIEzLOpnTazD3ApiiUaW5NKEEi7viWAyZFFVwUhJyCnGKV1ZuSxDx2OOZk7l2hxzUhmj3KJ4hQ+uEwPY4rvEzseGvVfg6fgBi1hTd0DIGDvMHp974C/REDyIf0QLsv4ftiIyHL3YZ2hQYPA8O7Tf5B6o9FLRTMSjHQLx6FIm7jgq7GEwG5NPBMOfBzfPMwAZTuwkOCGtxAQNY2azDCREpVmNY/8KQqclIp2AYJvSYDzmDfBDRYhDVEMGFTUGMGCtzolE4MiLXjxCD3xBW6ZBMWM7g7WwghYcYxjLkyFMdC/dSo0+mCMQvL64zYd5nLidR4opufj6LZnEw4poC2ZCI6EgB0P4VINmMd70AWR1dR36x984FCtgc0BBrRV5yGJLVVzEwWU5680TVf+CBB7BghpIzaMzzOEeJcyrM+fDYZ+ZDQFCoDkDiQNWILlFbsBernPYxz4LzFTBQceCw0rQyd3PMtMXL43DhNeEdhgOJ6AXygRPqChcjrxCcDvFznMvBLnNVFtLEn21diEqwhY4dE7Fe9XU49hfrOP4gU2JvSUnJW9j9YigUmo9PLCpol3OFAsd0pXPltc7d94DC+TJwDcsgfj2FuK/dJ3pTLOMzGiEY03VwKAw8cfCB4IUdS+wCKoBDAvBo2PgTa44BLCJIKBY1Usilxa1kAhZGFJHwnjcBqToIuGdEjt6wYBc4KCi1VXA0zDFp/RSJRcinYXWMODahmrwTfzYDlrUxMPELDFSQnRE1DSsbHl1QNf015pT43Y/+yf421ClgA9AQa0FwEisxIGOI+1r9UcvPAGQgtXDoKQ96Bh7e4i8b535Y/BkABPygDYCQhmOhMJTFKgBFU2Cqj1nOieygKEFck3AfmdkYVihDZDOtTwYUFqVY+6Na68yrgociyDHEAMjgwRsvp3Ns4SpZ4thA5WQ2uR1d+JR3cP1ObFekp6enHv2z/W0oU8AGoCHUel/60pfOA/AsRdxUHaxC2z+q6gApxh5L9GHRicsR4IkDQgIY+JMBREXOn/5AiDpDAgWjBpbMCVPQj+Sr4IpE04MNOaKN+IY1EsGRJCElRyo+U5C03osldQwK+MD59GvU3xeFKghgBFDiLeGNnQDD49WdQRDK7Ln//u//PW7w7yNGjOhAHdfhvUsQJ3b74N/s/aFNARuAhlD79ff3Xw0OCNjjee+GG25o/KiqwzwP/GGuhBkI3uIAxCCU2BIAxJxJBFHt0LGQ4ADYZKWTM9VBqcgdnZruIsUFXyA5ctRmIocQeCUgHBTPIn4TkYDeK1FSMkI7UhVKSkXeZ1jWFKTtAKpYHBBXhZ/F0fmJOlkVO/wHnJimOUVRw/qCR8q6des0OFyuB6hGwNVdvmjRomO5pCMn23tDigI2AA2R5gJoCE1NTbmI9zKh+3kVSuYPyzOD30WSRmPtLqcKroIBhwsrglnnYnE7ELFY54NBbW0SlnhGBDr74sDKxeIV++3wfyxaiNyGBiziRzbk98H676IBwNICZGqI/0KCeU5sJsP72ZSQsIxXRwWY8ZN5mWe2tvFzLY6IOS4GQv4+oCQa0EtbHgM6V+KYAtDdCR1QH95hChTTZcf8bH8dohSwAWiINNzkyZOza2pqzgujIO7rqKDTY18Bg9uZU5B3DZaUcCQ4DR7wCY6Hz+c11zGgrU1RZGvdL0sUg1Iay4rhMoAVrGIcjnFYaWwpj3ExfuOOwz7W+NX6tPbxDIY49ojWkYZDhRQIjgb6JaR+RUJ8Bjleb4zPOcIJcW3ihcFIlCWHpoUXJY4lPpHnqAH723G/ZIDmjMRx+3NoU8AGoCHSfgjSTALnk44czRu3b99+wiRdt9199/ivfOMbL2NJ5psNHetjWIBwJOjTysEDczdEGWvj10+AE3NDrIdhIIoDF/gX5lYGb1Y0+8cTzbpmAPSsEA3mvrAlQI8/GYwsFunw7fA8XCNLrpzDh47swEimvwg9kILPkUcO23tDmQK2LD1EWg/6n0mwAGVDCf2h5Wru+Na3MqaOHzMdDoKXv/7Gm//U09WTlpaeRUker8VpYNxbAzsuiMX3rdfG8YQlLEEGCF7UB+uWDsWzLsC8bkFY/NfE9SyecaQ7ryfvQIiFyVwTgI6LAW9nWVABZNBBweGRhThgiqWEBuRZgMNAxMUSCXmfgQobG9ckcFypaelLf/3wo7M8CrVkZ2cLEDv777rrrn68+xb4P0GyFBaWlJSkgSuy1wqzKDl0/9gANETaDqEIOdDZKBC/DvvJrPjKV5J6Dx1a2F5Tc9t+U7+kuKTEk5qcTIH+EPxxIP5Az2NxMxjkzJEwN2TJTol3xiFLvEqwIQwU2IcnDzABQhWcCS30iOMFH0UwhkQRiGZu6IYk8uF8DyAGotUAZ8TcFIOODvDhR3JIBl8usFoH4CIMrNDBVWAujIuKgFgWyxiQDCipu7u6p1XVVD03c9rknvz8fBGhJ9v+6ep/+vYTLzyxa+rUqTtAB7fX6zUAQNb19p+hSwEbgIZA2y1ZsiSzubl5BRJzib29vechP07J97///ZbfPvTQ73y9vcuppzupp69X2LxlK7W1tkKZnEzgGqi0tMTicDhOiwuDAy+5YyGCdYQPJnaAD0AM8CtW0MbhHwbAh8/i+8QALB1IXBgRM6hM6WE/adx30EnW7fAd7IzJfj8MKvjH3I+JXNDGoHPZ8ZALry+Pmln1Y6Bqa2+jmpq6wub6msLW1pl08NDB8T1d3emLFy9+Szf0rI629kxwQ+yU+BS2QW/Ad7PLUKKADUBDoLWQ9TAdqTfGBOCjA0+ZlPyyMXlPPPn0t/p8wRv7A1FRQsbB5pY2mMzTKIr1ulobWyknO49SsdZ6Bo5ZLkEWZ8KD/NgXPnIswb0IiBdTsYKFG1YtCFS4gC8CMCE9qyakUZ+eSgHNSflYHdUp+QEvDEOs02EeiXkZ+BCZDlIRzepgTgqXc1Qai1jMYyWKFdrBABX/weKAYsEwVe7bT3t2bKf0VKSL9YXI5/cLCAe5orWr7wp+RsDXy8B2/9KlS1996623PpQHKXF/+/Psp8BpByCYj8XNmzcra9asiZ795Dk7aggFtFpWVmp4kKFQNWRnqL//D1iBYnQsGgNPAW4kFIXzXx8YoS6L40FQuWV9amtvt6xbvHrFiQqLYHG/nPgZltgFUUnDFhfBBlJoAIp0RL074RGdisBUQ3DCDA8RyrKYxzkgXnsVpjNgFVZZxWaBDt+WEYgV2czpDEJA5qj4K2/AFSsxfWtDA/l9PoiPMQrjvSqrqyzuKSk9HdcL5MG7DBteyulek/BeSU+vWBG4/plnjqDaiV7UPn5WUgA95vQWp9e7RJEd940dM9ozcuT05srKPZHTW4Oh9TTO/YPFTae0t7feWlff6Ha43YLT6cppaW2FWohDHcBtBAPwQoY/DkYyexrLipPy8gvIjUUD2Qwe9++JcyKJAX/kk31xWIzia7Hhn4TI9lFiHblE+P5AZEr8prPpHgDUriZTHxLZ5yr95MTqGvFFn+N0Zbce2dSoTs2kBjUVoRsw2TO6ADxYx8P7/FWCWX6wVzTXs62tFcs+d8EpMoQloPEZBdDhOHNIWOseJnokzUdMWhRLAxUV5qfAH2j8601N00YOG1nT3NbcM7Ra1q4tU+C0A1Bp6YgrBUm+B9PrZQibvmrsuHEZoyaMb67cvx98tV0SFBhRXj4sJT19RWdnz4+62zu+1tPbn6NiMIaR6oJXmVi25AJqbWlGitReWKyYmeR8OnHfHla98Ln5efkWF6Jr8FKGkyEP/PigHwAbRiHrSj7O0MN3wQDHicOkdsqSuiFMwZVooEgAFk1zUXMEKXvgcJiMhPZeGSk74PPDglf8H/Q9yLhYEcU68jEAkAU48V+AmDjnSLGUzqx3wrOh26IOrDkPHQ+1Y0l4f8BvKcgNvJOAFzZxnIEyNTUNYmU6gcsT6xsaR0Vi6izR5ZyTkprVSmlJ7ZHeXpuzPkLis37vtItg4ZhmGkj/AFbdqxjCRFmRJiLV1T2XXn3ly7Ig/RE9fMfLL7+MpDLWeDjrCfg5VlDCUsS5gqLMVmP6daZmLoF4lMNJvzBCAR5YZQIiUEdHE4WD/fQOuACY5ikzPYUgsSCHIcIpkCqVHfw4ABSKWkSkR6msCLmaoez1+33kTUqOcyPHVpqBaBAYReG/GBSxfDLuiYbCFgcqEYHqBkzwyc5O0jyInA8iERkASoTOiNuUIQy2L5yPuiAtB5YYO6oMBh8GQuaWuL5hcDztWIGVLWARRNY3NjciLg3Br5ajpEQOxYEQD6ywChBKTU2h8okT6c03Xsf7quRJThG7e/vPw6NfdopCZV5ewSpFkV5iz+mDBw8ifN9eU+yoRhj0hblr5NuW+/r6RCx/FHvmDIiyg/vEoKqdut3yKbPucTodP3U4nALHKzkcYK0lGHLR2WAN0REItAGd/g+wcrz15JNPtp+6mpwVdxYBOnkQP8Zgdl+MuKnrMCbHsRexCe6CiwkA0hCjFYNORAMng8xgFifAIgtoxKdgzMa6wP34wGGMhngmJ6dlAqg66Ysrb6PJUyYjqDRIsKKBqwiA3g5LL3QYcJjzGQAfvhkrUyIAlKXyBzTVUYkFBVEPmNgZMFicUuE8WBnIpU4sr1ye3EdZLqyigevZv5kV0BK0UhJEtxf8M7Hm2LDDPDZzO+x8yIX32SGSQYYBqB/6q9S0VEryeqkOie5fW/OqxbH19vZY50kQ3yQk1/e4PRbosp5Jh4sBMihSZk4u7ojvcTTDC4T5/jHQYxcesQYK+BcCklTf39Bgc9ig1PTpdyoZGbXZJvoKOhRyiqvn6aZQCP+vX7+3bh1bFU9rOe0cEGbp3dFoZJ/TIU9wIFbI6XKShIHkwPriGICS5HQtQgeaDT+WXdffctM6SZT/+uQTT5ww781ppdbn9LDCwrGZTo88B/LJYtXQF0C5WobcPJnIumMxG4wHnFcHAZgUi4RJgaCMGR39BdYpDXFYGFn8G0DoDfjEPIrPA4gSHw0geRScTlIgHKbCYcWUk5eFocnck0C5ebnk6nNaq5q6nLw8MvvpxHU/g1+LZyROxeo34OmjImSCORoMeBaiTACjAYDRADBhAGQE+h/miHAFJGqr6hYXE4MCO2S4ePFTS8a3AAd1SBQr/QZ0Vxq2GLi0nOwcABByEEHBzO9ZU1MD8bIJnI9Ms2bP7mxtbnuqquoQm/PmKrIwgjklpwfL/IBOQVjE2HTPXJLL6bTWL8P9HaDPeVFVPw/M3+1Ok/YXlJT9XTMjGzrqW7ahHv9wYtqyyy8fJRqOhUTt89SYPMFUjVLQP0uFTo3dKMB114Eu5z4AVR3Y9VZpafkSqCCvjajhy0MBYaHk9nqcMjqPy0FhRSUHpnGHosxyisp5mhC7/eIrr34y4Ot71CEIXW+//XZzoiMPpU/OZAigmKeSvBySxMWIjyqBq7EiSiLUJOD+wJkwVxPBKqMmlMACOB+ITlgz2XglNSWrBgNucW9PTzqOrQJ4MKMSxv6fERrWPnLkyBEdHR3343sScxlJqSnNySmezIb6GldWZhYABOCA0ZoEEYyf4QdHxDPPYM4nQUsWuxDFRQEpGdfBtM5mdAZGFAOe0VbKDPw+MS1IAlKuIksHIS+r9Tv/YaBSyYU4eSzAjOeyDY3N7Qx48d8hE1lJ0rAoIjp/akoawEPid7Xqw+leWQ/UBSW0Cd1WY121s6ioeP3ePdue83ocYwFSjwJcclU1poIDKnPDMROcXzcU8SGA9jBN9hBCVsBNpVnPx4RXFI6EimLh4GKIZuH84uG7FElc7ZSUlyorK08Y0mJVdmj/ES69+upRetSYgRa4HmL5eZqhZmPyl0FrgQOROUA4nrESVs+Yetr1wYn+cEbJPGHqzMlgxb+GWXQ+LCQlYIIgnQF6MJBYORnCbM6mYifML8led5/L5d6AQRTFQFOdSUm/mT5p0rYHPi4y/Ey84aJFclmD3yuTf7SgCMtRhYsxEqfHNIH9i62iYNZmQGAugAcl9nkUdsPdb5PTNF/QTPPNrq6uFj756aefljZs2CD/6le/Omr2vuKKK4YfOHDgGQDQTCiae2Kadt9//PSnb7+7Yf3fsIjgjHlzFlBWVi6FwUnpeBYP9J6eXktflBCJ4rVhVROLY4iOB6dTJjXSRfJ2wAf6JZvWUVhsQtpD5Hp2UEjIoGQ5RsNcaB9Lp8fWMIhKuD4E4PpbaBHSsiYT3gMidlz5zIDH78vhH6gGJhyXte4YuBpMOhANEaz63qb3OS2IH7zwlu3bNo2IhUIl6RkZPQhDuWnXrl2vo63lN998071x40YdYRrT4SNVDH+nLaBBl8uVvBI1uBYDazy4oiTJ5ZbdbhdEP4miyOTIuibm05BwBPFmUhB1eRVc4B9N07s9M9PZX1FRwUnwz/rCupvjVRI6QVdycvIwfyw2VpaEO9CeF6gxw4NIGauP8eTGgKOx4h8NgHfXohGkjRPFWk1Xf99Yc+gXx7vvqTx2hC8+lU/5BPcuL5+VixXI5xq6eT4IcgkqVoZuwlpOq8iSSXm5WdAR1EGhGsCgyqTMzJxab0ryT3PzCraMHjved/+3v1r1CR51Sk8ZN25cfkgUx0qqsBBQswSjfgreJ4klEOYE2KzNOhPGGsjfFIUiFaUNnWUfslBsFCX5uY7m2l2fpJIYjOL69etXYYmeS9GZmqHf+RJSdqyBc17mgcrKV999b+PM5KQ0mjRxyoAOKR6awSDgAw0tMGAkGCgskln6FQzQYUIbXe74AOMVxyDi4AdYo5gXisLHhxXUUBLDF0jBmmIIzsLvcZACL0P95KVngvMpJCZBRY1rBol7DEKsLFcUiFvQ6bB45nBg3TCPmzrgt7R7926syOr9/SsvPXvnqFHl47q7W54A1zMDQLMR114HkGhL1Pd4n1CmumMxaQpW7ViEIbYUNTsPdE0GFuE50Jmhmjo4L+jN4hwgsFCUlf2SpKzFO25A42xLblCaKujsBKPLrrz2or4+30w4JmgaJi4VonoEk7RTcZpuj2tBSpJ3um7qucyp8sQWQ6pc3jgUh/scGi6k6WYnQLoCwcqIKxR3OET3xkOHTry4wfHo/HkdO+06oBNVfO/ezaxwfmEFrXh534Tq30SN2BwwhktFwVgEn5HhOhSjUaSJCEV16sXqnAVFJZD3vaVuj/eXLS3NXWNGje7/9n0/WHVg/4G3ivLSd8BHROru7g5hpkSymlNbysrKUiWnZz7se4ujprFI0PQS6EuwTjGbkJ1xBzz0fFa6CvCjYeBRY1ovBt8WaFbWYAG/96OKWeVvbuo+mZqCI7gK4RmXBiF/QOy4j8GHr3/33Xd7x44du7l8zJiZO/bspzD8aTDjxwccfudB7wFngDrA1wadGAruRGGdkQkuJ0zJELlgySKYw8HRxLMqsqLZiSWc2f2R98G1MbBali8GIfgAYW72Y2WNKDyhZYhvWC7DOs7gxhtzITI4P4cDHK4VWcaiGfyZoNdhM3yyx6llZaY8zRdVVu7djxn9ZtT3DYia86B0/zIOP8C/naiABmz52sRbQcHo32tmeDqCZxdGQupFejRaDrHNIchuJFnDIoygCfqWBEAsx4Ath6L9dnBn9eowfdcwaeT/xcL+d7FCKyf/PyvK9Tfe+MX29p4H6+pq05iWaWlplmXTMCOW9TAK7iYYjoILBS8KLpPToGh6rE831G5McKCJWCGI8l60Zn0kKjfW1e0948G88V5zVpD3Q5UQaMUKcdzevTmS5Fjq9Kbcgk5yYSfMtf19UDxiEGVkZELRmk8FvEBeWRnt3rXbqK2pUXNyc1pSU7yS1+Xogdz/lsvlbJBl5+OPPvro5wpGxcXFpRBjroP17otIfTM6qkOjgyJDqS6z7wpmW55pmdNg0QcJ4CNOh1iPDvBqLBZ5GKc2YMCwSJWQyj5EhI86cNFFFz0BELoVYRq8eN8VEF1aE+evXbs2a+/evc9v3rpzQcmIEZb/DKdcZQ6EO288GT2z4hD4UMcQgCEuYuEYhMQMLNVzrfM9ckgBfI/n8Unc+6M+eQHCGr2IVodnAJicuGdct8NWPM64yGIfO0haPkHgjFh5zOI2i3579+7DNbEXX3z+uasHPUPCQPtvcHffQaL9d6CgXjjot0+6K+IeKRBRJ8F/6Ouwny1RVSONOSJWfPPGYASQg1MnAnlRGwUzBbytUSG0FcRheGjvxMOOsIuf9Mmf8Ty0r/eFF164AZzuDa1tbYv6/VEH6mQBeQbr9xhsWDTmiQPcNVsrYURoVkThoCzIz0QVdb2TqAcTVA+WcOJ+xht65tlRzmYAOopCy5YtL/CF/Kubm5umdLa3WhSMQablxkhHQxQWDsPMyln9PNZg51k57O+z2H2w5ZSRlf4zf7/x8/r6ppjXq4cxs8YwcAU0CmtQP0mDCAUFBW7J48k3dcccLBFxlaCpi5FEPYMd5XgWl5RkdAYoYWEiZp0DBjo4XwOe3sIuDPx1kqQ/L+p6BQJFWRnxmcrKlSunQO+xBiCTAyD7lc/n+xZueNR7/OUvf0lf+867q1JSM+fl5eeB40F2Q3TQOADFzfksYTEoYUFACmDwAZ6Qb96kVC1C17k2kQexXvpJAtAhbTi9HmUAYjcBpgXAJxgkBQOeAUiBZG0BENrOCeU7AzaYODpUVVmXk5Z0/mOPPdY4iDgCQlEuxYTzNNpMxfWzIYYfGPT7Se8WFhaOBke9DMvGLscAmAwzP4ORk/sOi6AIcYGuBH0LnCq3J5oRC0uLm8A9vCoa8muwvVVi4mC28XMDpJkzl2RCYJrhlMQU1IgZfgAAIERJREFUXYteBp1dKnQ6amnxsLI5s2ZN33/gINXV1lFnr8+ygDIHKoOeYOB0LL/UiVi5PVj4scLlkN5wSOZOiOUsqh7VH06aUKfhgrNGBPu4d4XOOaCGQ70aWMwUbzKABcpPCToNdGL2j/H7+6mzo41cbi+lpKQSFJd0sLrWUmBHADHO1o5vuz1JF8pOyM6k7EdgY50E//5J02dXgwXfJeqOmgMHthwWgQoKpnvSvZHRCEZIwQyoRjXW5ZgLwDzMhVhYzAv9SegArHiF4wtYXnAVsX4rzSnSYHRi3j/gcLoOQef8WgydoqeqCu6Cn1+B5/BSiJiZAB+squx4C3f+UGe7+eabe++9//77olH1RXBgWTjX0gMwAAF1DleGxS72qUlOSgIrH0GgKegpOSgggsU3UO3jqjxZ9MKGe7J+IXE3dsfpowyY6SHmIHg1Cl0Tcz4MPgw8XAd+Pl9niYW4klO+qlqoLycn43uPPfzwYPDhOpoQvWpQ/3ZszHFegmOfCYDgE3UI9zg0naY/0ljYM14wjfnRsP8CPRaaDEPICAZJ9pcyBbfFISLfkQML1C9EvReakn6PabhWFZaNrkKrvykZ0b0AxAhX9NOW8vJpk7DU9c9csrwIYI3XRT5tcKaCGKSqmibq7fJRAJ7h/fA4ZWMCF+YiZaeoexyOx8DNPZibnXoIk6mlUPy09TgT1w0VABKqDjZcFomFJnFYAc+eTofL2iJg7XlWZ6e8wqJiamyst0QK7uBpaRnwEvYhULOfuSQRMvEk7vyGJkzjgWKZIaNGGBFK/aQYNVOmTHsTt4GZX8LsE16omeJUDC4HNjzCSMUs6EQcmyU2QNFneRyzOVMLg6nHaJQFrQKVeRtraT0Ny89BzKCBtrhO4nNtWwALx0HNhwcr5wc6CADlJYuPWy698MLNa9957yGM8h+w2MXAw7MnK8LxWhZs8XcLlPAOLI5w+EXU14dzcEsA/PEKx3TFfzv6d76XBn0OL+8T4Rg1OD/C8dRSADN3xZyiVfB7/Lk80ER4Oif938Sx455/7DgPQ91aAFwHQOtStPNVcDv4bVVV1VHWwONc9rGHthEGbDOxwn8XlNx/Eh1JRaKsLceAvgyTyDRk6PcwSLIVjbk0LqBhdlSL3W5ENR00uAsKlx2lpcV/d7k8CFvTGqJR18aGhj0f5/QoYZXXfLdhqKrDWwQT+e/hkTzVAd+mVjiMMrTn5OZCGZ9CLc0NyLmtgiuDwyfaj73cuf8DjFmnGAvHog+1dHVVIIZ3SJaje89Z+grDhw9PNw1lPao3kXU/THyYD9EpoE/ArM0+NFC+WEATDgctlj8L6SiSvB7ywLuWQYIVrVaCLhY3wAPxfZi9tgo+OD0omtVM8rpMCT9gohHY1Z/FFsvAjE6o4DmGDqsDwiASibxQlyYMq9VIifGyFvRtBGfSf6rJePXVV49rbGx8HYNwGDrj18EJ/eqjnvnzn//crZLyG7zjbSGAAhfLAsZ4gMI8CDv3MT1YFNOd4FYAsMtCa2mY0gK/HtAK9GHI4MHBJQ5ACTBhCuE+oClbxTaExtOr/WWw2PspBeDDv7Geh83xcHviy63bOKH/cXs5Eb72dNjtvf1n9957QoUvAOJ21Pm3EMPC4FCW1NfXf+SyRPGHfLq/bEkzJGlcTDWuwktdAe5wSnySi08+IIVFP3YSlViRLsmmF30tFoPsLQi1hiCvhhHg5atvun7vXTfdZC2dPWHCeXmwIl5m6OoUl1OC06gxxTAkTRSkJNw/pRWBuP0c/4bJ1Ol0wzEzjbo620mFOMgZALgPs6KeWyvRdxUHgmAU5SXV5bp9qHp6n4C5/nQNd6qu8npzsQCV+CWQPguWJistg4AOzfusPGXLSh/c9tm8y6IXOgSyAvbFdRoAHPY3YbOvhpU7456fPHlDFWzJFuhNsNZwKlEDC6ZH4KgTVQ0BjkjkcEPfJ1vHAWoRzEJhyGLhEHTJTRhra6A7+M+AIvyrr6n+qZCvvxLP/8yz8iehITiAL0CM+AKUpn5wBt+DiHNYdDze9a+//rr2r3Nmre5J8hTLcmiKGqyD0IN1vhhy4YzGYGoVfMh4sXAIVhUMLlc0QAKi7FUsPojICxh+4avNp2Ic8HLN4Aut6+HQDK9IkfojJjVrybQ7kkUdQSdlQExgjSgPGC4sfjHYWUs4u32UlQ4/KEP6W//73V988Lf/EZctrDOP+6cLuqrroUzNAhdUC+7vhFzfca8+iYPgmjV/f39ryO9bW5CX/Tg8uyskAblH9JhHi4UdWiwC1yUTYhDcECBqMhzHcBJ0ZcgoK2aCUnP6+n0r+7p6L1y27NJYMKZ+E3Fs/wUTxa0A6ZmAqRGaKXhhXUw2BYeTuVEEaGMSYL0cLIwgVxQ6MxV9Dj+RC5Msc9wcYMwe5zwRygApNuhhG+uSHZme4qK3g+3tQ04Ei/eMk2icM3Eq9DFZTm9kExpjJBymrEbhlVtYhOAGYucqgAcGA8CJGxEDJaYONB4GQVpGlgVAPBXzgEsUFgGOKoji5gHCA5JnOdZZsD6AC1uKUlPT+xWR7j9YV7m6t6Wl4ahrT9OXlStXugA+6/ft2zcTwPMSOK6rPumjG9972n2gsfNnhyorvtwU9mLiTQc9WCw7cgfALcVA49ouLK+MwFcv9DcOGd7Rio7kY1HQg2kmkAuKad5jekaQZTEMe7wft8JiPRRxZVBuVhGlgXS8qI81Y2NUJRTPAhKopbl6zfMmjH5sfFnON8fOv+MTWSdhyXoW7XEtHA9XA4xurqmpOeXc5hHKPCAWFPzfKE0LzgS3eyHqsQyvnisiJIVX/GDU4HcFylpcnoyJKwXpcYEQVixeIuka044JziIvJ4rDTAfdmxeiLxK4AXBCWJ+tp7uDIj5/HHDQwRUAHYM9P8NS4INzZKdN5ib5MNqkITMlc97u3ZubjtR3aOzFR9dZXtfy8sxwR4/vEFSlIzl2rLuzG40DwQDmYk5qxYGsHDIgMIsKNt9AcCvPIjGcwwpQlzsIHYTbAqgPgc4x724NrwHRjMUU3ngA8eCBad0JEWDCsKKRrwGAjrny9HyFZWQqthnw/YmhXo+czFOHzb0+/Lv/uvs3+6rar0ktnZAnImbrCBzH78QWLw1pN8RANxTS8BNCXkQgPEAZRh8zCScxhZgJgsk3vktONWjdJyK4MKAgFkNsNaJ9FJY5H1AcgLhB2NrGnw4HVjqUUp4uNH3fHTv//k8EPvxMmNE3YiK4FqEYE2GSH45De/j46SkPGGjyg3jWwdzc3OfhuDgK4jcMEuI0vNTNeDdXdk625VfFNGJRClZW7KJfcmc8XEADFJ5AeXEjJglbTdkNQcWkyfrKMEJlmBMCxwTwhx8Zi//Y54BczgHFBoMj97R6tNYVDA5+yOGnne07QwKA5s6dG61rbt6ze8+eSzV09omTxiNxeS+1QG6OBSNIoAWHOFawgvPhmYW9QxmgeFE+njG4E1jsf7ztB4bQkabh2QVKZgywQRIphxcMzFTc2Dx4Ojs7XRj8X4VFZ8WEyef9DsR7On2X9+A6WoeHn54CRuya/r4QcsALB5Ed8aT0IMuXL0/evL/zmve37sl07a2nCy++2JpJOSiU9Hin5oERg+jlD/THQQfAKwwABw8K3uUC7GLyWCUKj2j2keYBJYKOLOqGg1HM6uBKB07je7DYzBxlfU2tnpaesWnWf/34I0XH+N2P/MVk8ji+fQ0DvwxANB/7FdhQ+dNbBpwT2S+IN5ox5/xh4VD4Qu5jTCPW18BIDlqxA+cAmfDJwDG4sM6NyZiY6Ji7DwZ83OvAsTusmDb4wGFCBWUBPAxs/Iwj4MMNwDpRjbwplnA8+PZDYv9oipylVV60aJEIk8NSr8c9r6GpkSoPVpGvzweHxB74l/gtHxPWA3HjR6JhK4seN5TThcBEJOJi7gVWCsy84JTQ6BgK8UZE6x9pzIH9xGw1ELHFwMP3sgrOt1hnw4D8Ii6E/88X1Rx9HBwfO0eOLOuFYph9Q05ZufPO+1I725t+UlNbkw09yu8CgW74pHz8AJw+fbpn9OjRl4NreuJgZc2NPb19UmdHR6S7r1cfVlSEZAQK8AHgYY0Wgzq726m3DwDEwMsPAJfJwMPvzt95O7pwN2IA4hKnL3+yRY2NA0xjtibhU929c5eEmYSFlqQRI0buqq2t/sjQCuuWA3/A+URwz/G4zwwAWd2FF174GkTRD1dn8EWnaJ/jsWQ5qaRgeOn3QJCrMAG6mNtmMLAK6Mk0SBQLakCHw0eY1oMKA0wYeh92suU+KoOThEurRTtuB84HZWWPcELvBBCPT7RY3RbOpZlZ2W8VTy5/qnr37iGnAxoSAASvXvP1t17Px/rll/l8fknFkjO8lAuDA8aG1aiIKY83HMvGLJKhw8MlGQ2HjoBBIMN8zhYxE3I355fhwn95cHBf4PPYHMzf+b5w7Imfwz8eU5i9Zo4LuiYH7jURlowrMUSn5BcW5WdnFTW3tzd/rj4/icePGVV2S2Nj0x3tHa2dAI2fRCKhusRvJ/qcP3/+5fBpeQDgcy8Ut8OwdaDzPgFx5o+lo0a8gzE9p7mpxZWBHEKs3AwA0NvaYfnCLJ4olsWPOcQTFOZ8GIAGFx4gDPwcDCpZK68qa6OR8C8RKmPCIlkc9gfK+vt8l6SlpGtKutQQ6gvFzXODb3KcfQBQFPe+hZXRcEV4Ae9zGvVAXCFTGDdp1eze7u5bRcn8RUzVrwgEg654OAvTKNFfjgYg60r0K6tvAbHiFtjEuQB3iGDWJIp+xVZeHawuvOWtduC4LgY2TlUSD6GBqObDa6ObZmZn0bBhxRul/JzVVVu2HCtR82PP6jIkRDCAgvmt733vXSiZD6FTlwsciwSXfwHKURGAEldGDwCG1QHQMlBQWHMyGlYAWEWxuoIbi/U5nIiM5iyDluI6rgwc3EIMQDwbGRBJjjfXowuhE7FeCE59bIXDDIRrMiRdvAagcDmm+jvKp896BRj53IHtm7cNvvdn2b/77rud4LCuaOtoBpiKdU5V+khnPABPGWj1DQzWOxBR72V9BPbX4tg9ECFYdIlee+21ztVvvDERxy9wOT1acUmJ0N/bXWSquos7Bg+WOBYz2DNI87HEW8QHE3/l9eMhSADnAf7Yi3NS+AXhHIDzNkE3H/EbwV89+egjXbNuvuT/tHerlmp69H9xtxJwcv8jmc5/Liot/XVTbe0fcPnhJ2D/QwVgugciSz3qXAYuaAlOePRDJ52iA2MnTpsuSud9ExPORfAVSsWyQw6eDNmKaoHwUTU/Ai7HVodpyBav+IQXB25OqyuAXg4o+cGLWs6tTFlrg2sDL/7o7+0kuH6BvuDu4XDL4J6WmgorvHLQ2dZ22tQAx77PZ/k+JACIX/AXP/lJza2333obZsBfKYo8HToAJGvXwadAQMBfixvi7g5Q4MKDhRmd3NxMMxyK1Suy+9miwtxWcFD/3heOeDjvMTqxZfFiCwWDGM8y8YGGDsAcUELLat0x8Sc+yfD9ueAOOI99i9j5znCA+5oI68RE7Nw9Ycp5TyBS/M9SLLgNUdw8So/qotYNPuEfDLoS6KAmsZ+Tw6n8va2zrfN4l15yySVOuANcC3r8N7ieolasE4b9BtDt36qrq5/ENYfFRE7tAVHirrwJE7yZ8F6GBwPOFcZiBj6vo63l+3B045VYDQc4SRZDLT0ZP3SAdonnc+IxuMA4oEQVnN6kBi0crgQ3hYyXztdSkzKf+OUv/6s9ce7mv6xh7vD5kpISmNGF+3TV+DI0S5PATv62oHjYYrTa/7TU1+9InH/sJ+rjQ7t9wPQAGF2L308lAHErmxMnTh8LIx/AXL8Vlisvr3nP/YyhIg7IcRA5tq4f9d3qZ9af+FlMWwaZuACLbmL1r3gn477Gomw8vpCfhSejc/MkaMJdOqrG9r388gtDjvvhN4+/YZwGQ+LvPffc43393fVzsAzNQj2qzgsEggtTkpIwKcARsbePkiFmQVeAxsESv6mprVhZcydiuL7217/+tYZf8OLLVizHrPv/cM54OI450Jl5rXHLw5Q/WY/E/hYWrvAF6CQWUMV7Gg4AmMCB8bFjy2FdEX7AQLFmOMjrQMnY6+i0v5dMZdvevVvZ1fXDFx97s0HfH3jgARFxX99GYOKPASghiB8XgovZPOgUYuDBO0+Eb9B/AoAuRJQ8e4E3wlr0Is5/CDFj+wef/3H7559//iickw+OSWfFMW+sLD22AGVMAIHZ1t76jbaWthvARX1r47p1Dx573om+F5UUXSzIjq8gKv8SNKKMpHP9kEf+P9Dv2ZqamobjXCci++O/4PivESNWCSfM2XjPz31FjLEzZ2bKMX22ZMYu0QzlC4aoZKroV1a7D4jn8Qnq+HM46IYuhL5jOQ8e5y1wiPss9xmAC3KpIc+DGnDDyGGJYHHuE6Iaow8Kc5UyRGRCJD8Dj9PhxDpwqT708eclt/zdDWvWHHdCsi4+i/8MOQAaTMsvfOELMz7Yvv2dpCSvOxmL8DXU1cFcKVs+O9BxVMNcejs8aHe/+OKLfYOvW3rZTWVaJDgNfaQgputzTE1zImXBVC1qwDvedGFuSYV6zwIiHnQMSuyFiuPoNazChg/HIADizsIl0VkS+0xc9gNxwCcEnTGESOxK6FNedCvKU9u2barEz59o1lq5cmUaAOepnTt3XgSuZhUGHCc4O1wWLVuGIEbpLnAsl2JAFkAvEkZdXgFo/LiqquqE3MThG3wOO2UTJgx3O6S5gmqsBdgd5ng+ya1LsM47HB2/oMe0L2Ktsdkyi3KivAWz/C+8Kf2rdu8+OiUGEpFNRbu8hLxBwwBU19fW1j7zSZ7zSc6ZNvv8cfD6mx8KB1aAyZgL3YzX0HiNM/a5ScwbA58ABRaH0MofunV8CWrmrBPXxE9hf0brHwMLMgW4vS5s6T8LB/t2JHvkryFQeQ6Ly4nJjCP0E9ZD7mWC6OyDo22Dx+0+lJ2b+YKk576wadMzH+fE+aH6nS0HPky5s6Vmn6Aed37taxNbGxs/qDp0yBG3QFhxMi3ooFswS76FdBmPoLDoc9zCnMWqVdtcBQWEZWHCebEY7KYkpjhk6cr+SN83oBRMZmcvjnZPwaoMIehJORaHne9YMcjEG6x/GvyQRAfiYwnzK89iOK7Bn6NDksWtsWjkFwf27Fg/+Lrj7d9www3lCD1469ChQ7kAu1vhfPjnxHmLly37tihL3/Z19xS2t7Uxp3IA59wH4H0LwYmfOeo+8ZzT8Ckg5CaNDNddEEO+j5GdDOYggnCbjaDg3ZwbKFEHOCSmgcN4BiC7FO38Nri9KyGefiIlduIex37Cu7zIlZT6FTgG3gLOOAcBzkjmyEMem+WeMSBmWSMmPmz4Lxs7Plz4OojzAB/LgZDvw4CD//DkwT9LfIrBp2dnVk7Gr8//+2t/eYCz12EJbgDOvZhs7mMjALJAIjVtN5VPm2L1oa1bN6ulJaO/0FjdskEsTA22bNvGwMMPG7IlTskhWn3oL5IgSl3gSU3Nrdq//x5YRQyYmy9G3uj6z/JKU6fOK2jrbX8/Go4O4/sUFhTSNVde9eDmbVu3NDc3XgUYKYDeaFIYWZ0AKJzrGTa4uMKIO2284x6pAXNG3AfZ+sb8E4MTp6GAM08EoZvrceZfAwHlpenTywLHWxoFaVe/fvDQoV+CPW8YN3baLP/oou70hoZZMV27Fzde3traQhF/sBarSjyMsfn7TZs2fe4iyZG3OfV7o0rGz4Id+kFMAFORL8gJvVofuM4H4aP9C3B08O4jE8BzH7iL/4QY1grn0EXguqpPtmZwT1DAbeQAtL+I7auYvgoQhmNxvEfdaxAAcVseH3SOXGENKhHCl6lBrOI1ZgUTvmM1mLzanLLUiF9eRbK2NodX/ODYCPY///nPKatWrdoKkZvzfGOVJgUxsvF4xpEjR2jDy0bOeuw3vzkp/68jNTv79oY0AA0mJwZpKfQjjg8++IC9VT9zKSwe+Uw4GL6OZy34H1HJ8KKrN2xY9yLfmBPMG5KrHGpDrNRgzgW2zMCMWYq5sAgzXqo1ZQKPrAkU11uKalzHnTde2LOaGXG42ePTMsmK0m7Mp6sRSf7kgczk/bQu7twIMBPOX3TBGwcO7F96/sIL9s2eu/D29e+8dUvQ1/+lvv4eJyxc3Rijf5s4dexPXnrqpcaBBwz5D3CxSW53yjV4/6/Dh2g6h4CA89wA2v4OuqG/LVu2bOLOXTvfARgISU7XP1fX1f3tk740ItG9qumcDgn4ixCrluDOxcytIPsB2mywqJVoLbSbJWoxE8PcC3gYSwkMMELrso8TcywsbvGGuK5uGEoeQ+DpWzEtZjlbOgStFqDysY6Xd955pwecz1XgeAmi5XJwQDdg5vJl5mTXYaHJluyCwpV/+OUvT0rE/aR0ORPnJUbEmXj2Wf3M9PTchwEhd7LYj6XW4QQm3NjS0v7U8So9Zsy8ZFXtS4feeSS6cTky0S2CY99M4EsuequMNK24jDkjvpr/MBd0hPSsVJThv8SdGwOuHvom6G+cr00cV7wmI7do6pbNWzbU1Va7ll99jQYdUGddbW1+b083ztbWeV2u/wXX9wY4p8PWLX7KuVJKS8cVG0boZrzPV8A5FgLEQwD5Z77+nW9VITn9/RvWrndnpKU+AovbN8AdfWQwMIAnB/LPxdGoeBlEu8XQ42VbEeZoGCtGcBCnA+LGmwrtBYxDk8EhFe1kcT8AKojejWB/K7wupXbsuDFjtm/bfgH0b8AKnlDE5xubqtlC95kK3CTKkCP7/8GQsHbirFlve/HuDz300Mel+vhMzzzdFx8ZBaf7yWf58wryih+F7uY2VkCzSf7/b+/cYtqq4zjewzltoYNeYAxhKxYLYjdNHAk++GLNEl6c2TROw+bMkiW+6JuXZDFesgcfTOabMcbERH3wRUPmJWZhF+SyyC4IdGE0GYwpY2tLYUDL2nOr398phuE6LfcWficpgXL6P//zOT2/8/v/rpouN5MhOItpix6PxwwjeAUcbD4IlKfgO9qLL3QDvtEIHYAAotecSWHheOnlGQQRApxMiVJXaQeWf1U9PZdQhgRLwe1u0yjqxeAmiDrsjo8KRfs33d2/GkuSheNsuL8E2PNQvkJ/CZ7Kd6llSnnlQ4h/KTIPoIh9SZGtF0SfR5LuaKYz37q1vqSy0vIatKg3cDlrZ2W0uIdmiWtDz4L57R4BRA8FSpolux0ZnxF7FoMADOBB0YZ8uT7E/3SJSWkqGOyKHXn19X2nz7a23EU1Blpeox7zd+GJsYPzAy/5NwG2KQsEK9kxF1qzlzxkbn3wXvy5NbN1nk2Nt/59LakepyckynsvRgDdP3PYGrzxeKOqCrthB3oOXoxGJCDaoAVRGICRX57WjnA/4AtMNwa96Hcq5mUsD6DaU20iF9yu9rId73Se/mH4/gNt/Hcg3P0JVf0EoRQNiG0Sk8geR0vvmPcx32Gf1/PLP04Hv98vjUXj1SibcVRIaS8gzsgHcWN4M1EKw9BDiRbKmBrQDO0T76aXyQKFHijoUBKGltSBgMofsay6Ohi4fAU70zALNo+7dh8Sn7E8p1EwNgTQWGhkJQTQguNsxD8yBzFsxDNd5DnBeHgWVsTjtFQiB7wZPQQXOcT87iiVCQsp1a85jxvji9HRyKOSRaxLKWpjga40IrL5ccSgoehaQZFAHjY8canVDWn+VGKIYkpoczkdit1m+3izCh9igPKnbRVe716LLB/WEsk3LZLFE4sniqcmZ75SUuJn/TdufNq8/0B1KDp9UBIKmvH4cFPZC02j5FASEYYYIslDw2FFhjgcaDv4XzIlqKOiqFyHr+qSaEayr8nUFuy/MGLs+B8/qP2NiFQfDD6nMSFUnresCLAAegAmGBUTWPH/CVUdDzTdCm2EljrL3trSxuUBDESvk9VPVLukZGEtjJoP4+G6R0iJftwPNfCUoJkBVmLQgkgLgx0CDhrtrZ076/o7O88tex75PEBoaCiM+Z+oqalpRTnM94TZ5MuR8YgrMh499uHbx/agqPw2XDYvucLJKEzdIig7ndR9EjtptT9thytI6SN4qx0VXE4lda3XYhFvBQJ9FDdGu2a1oZ849puLE8PoZqt0JqsP8k5z14JBZCJAtpxyJCijNq/x5CXX9moaeum+EJoam7bHrUrrzVC4npZhlOSIoDN4ugo/sJn1L//tts008c30ns/3ZF0oGm5Dr7Eqp9NBxmEjzwrrVyg5aVFDmg990414LGiWCDwOIo6rBXz/EK0F562aFl5Oqoy7yrsfGm0LJUHDsIQOGqmnh4YGL2+m67DUc2UN6MHkNKj7RqkI9Mtbi41uk5RULvljtyfrkT6BjpezVG5BVYush671Xzy1FpPIt2NMyGiHImh/JRPTVXeTSBlBhUKy45DwQd8SyB0B3Xe0mKrLfYIkDOL/PyNlrWP4WjflpK3I5pRsvyV0tYmc87KkRYeDQRY+WZJNPyKy3Jl3W10CsA85JycnztwOTzQ4yraZUPIByy/1+4nwzQOre+T8HR1aauGMIn+O/hJHikvsJjmha7YttgEIoFuFZgsqzqbaEfHZPj0t9o6N5VVkeP5elEXMnDWgRcBa7V0RfFcRiYRr7fYSGEbTLnlkO3+72sfN5/GhpSru2kcCyGtQoPmYXS5n0llsO5FIxE+iBbYwMPC/LXLy+fTzfu5L9+zk/ann3gkgwvo6qgT+VO3eYVJmp9AWWe8qk23ncm+mOTUjbUup5Ws0c/0dWcipMkdxqMJd1YPE3TuBAAufnLpSGSbDAigDlPV6C8mxMgLujsLb9QwqLvrR9uWV4HhwRbxv63VOa3HcwQtIcdC0Q6hH/eyd+MyLu3ftooJrvDEBJsAEmAATYAJMgAkwASbABJgAE2ACTIAJMAEmwASYABNgAkyACTABJsAEmAATYAJMgAkwASbABJgAE2ACTIAJMAEmwASYABNgAkyACTABJsAEmAATYAJMgAkwASbABJgAE2ACTGAJBP4GatpcMw31i80AAAAASUVORK5CYII=;" vertex="1" parent="1">
          <mxGeometry x="283.15" y="622.75" width="121.69" height="60" as="geometry" />
        </mxCell>
        <mxCell id="hO4Qf1rNJJDb-_p562cl-7" value="" style="shape=image;verticalLabelPosition=bottom;labelBackgroundColor=#ffffff;verticalAlign=top;aspect=fixed;imageAspect=0;image=data:image/png,iVBORw0KGgoAAAANSUhEUgAAASAAAACOCAYAAACR4tWqAAAAAXNSR0IArs4c6QAAAERlWElmTU0AKgAAAAgAAYdpAAQAAAABAAAAGgAAAAAAA6ABAAMAAAABAAEAAKACAAQAAAABAAABIKADAAQAAAABAAAAjgAAAACMw/XlAABAAElEQVR4Aey9B7xV1Zk+/O526u29wS10uHSkIyBgFysa2wR1opkkpmqMmX8m5puSTCaTmF+K0STqmKKxKyK2CIiIgHQu7fbe2+nn7PY97z73wAVBRaVcshfse/bZZ5e137XWs96+iOxiU8CmgE0BmwI2BWwK2BSwKWBTwKaATQGbAjYFbArYFLApYFPApoBNAZsCNgVsCtgUsClgU8CmgE0BmwI2BWwK2BSwKWBTwKaATQGbAjYFbArYFLApYFPApoBNAZsCNgVsCtgUsClgU8CmgE0BmwI2BWwK2BSwKWBTwKaATQGbAjYFbArYFLApYFPApoBNAZsCNgVsCtgUsClgU8CmgE0BmwI2BWwK2BSwKWBTwKaATQGbAjYFbArYFLApYFPApoBNAZsCNgVsCtgUsClgU8CmgE0BmwI2BWwK2BSwKWBTwKaATQGbAjYFbArYFLApYFPApoBNAZsCNgVsCtgUsClgU8CmgE0BmwI2BWwK2BSwKWBTwKaATQGbAjYFbArYFLApYFPApoBNAZsCNgVsCgg2CT4dBR5++GHPOxs3XhGJxFLyC4cbPV1d1NfdCXrqsmEYblmWd7zyyivrPt3d7atsCvxjUED+x3jNz/6WpmlKfJd77713ws6dO29avWrVOH8ovLShqUPq94dNQ9cU0YxKsig1CaL4vqqqH3z2p9p3OFMUeOCBB0RsJp7Pm11OEQVsDugEhF2+/MbcQLj/itSMVN0hSdM6OlpnuFxuMzsjc+TBA/uz6+rrySCBTMFJQB3KzsxcXZiX/ZJp6q+98cYbzbitcYJb24fPUgosWrQIjKt8ESabC0Kh0ByH4tY8Xvdbuq43d3b20IgRw1vKy8v/DmCKnaWvMOSq9Q/NAU268EKv1y84ncmOHFNX02W3m5ySaEiyo7inu/ve+vr6GUlJSeT2KKSqUcrLzSF/OEIxQ6T+QIgU2UGKSyZJUHbt3fXB5Xt3Dbn2tys8iAKjR48W6urq3LFYbJxpCmNiEdUbjWoLggE/tba1kcvpivX1bX7m8muv3T5q4sTHD23dakLcDq1ZsyY66Db27klQ4B+PA1qxQpre2TRKIWWWJMpL1ahRCCApEQQzQ1EcpqzIhBkvqampSe7r6yNN1Sgc9pHDqVB6Rjp+EygcjFAo6CcTzDlmTHK43E2yQpe0NzbuPQna26eepRRg8eu1Va+dF9b0Ubqm3+vz+SZFIxEyTJ08Xg/NnD+LwpHIe22tLcH05OR9yd7k6t7e3mBubu5rTz31VMtZ+lpnZbX+YQBo5rxlM0Q9Um6QttyUhOmCIGRruu42VCYBRCmgSSQaJcx+JAoCqZoK4ImQGo1QOBoE0IjkAodkqCxZSaRpGkQv2QIgp8tDJJqPN9ccuu2sbGW7Up+aArPOm3dPS2vbf/n9/QomJkvcXrhskdVXWptaSDAMU5Eltauz2yguGb7d4XD+WhO1ff9yR9beH/2IpIqKZ2xx7SOof64CkDBhwgTFlZJdpsjiYmDLAkkUro5Foy4DXzRDJ11V8QkwARcDdhskMpnzwb6BT4MCfj85XS5wO36KAoQUh4NESYbYhc0BvY8okSAK2CSIYCIASHi6ev+uGz6C1vZPQ4wChYUjiwTT+GsoElyg6SoBa6w3yM7LJ0kSqb2t1eo/bq/XmrQURaHcvDxyu71+TGQHQ+GQIklyi2rEXpEEOSobynvbt+ceInqGZzFbuQ0inDM6IACOIyMjI9Pp8UxQDWNxLKZP1VR9NsAlXdc1CoWipAN4mNMxATDxksBfg0x0Lv4NMj0NHzYsGIlE3BV7d4siQMbtTrJAh/uMiI7HBVYv/BHBJQUgmmVQbk42Ve+P39X+e25QwOv1lmixaLmJPoA+Ba43ZvWhYCgE0VwlWXESfodoJpAIfSD+UG+fj/r9gWSI8zNEcNaqoU5Gv7rElDDxCWr/5GkNa53ivH2qbr4CTrpKFEN927ZtU88Nip38WwxpAJo+fboCuXsCxKG5oUhogqYb56nh0FiQITkaVUnXBHAzYYALuBrmdgaKAS5ncOHfGXiANvgU9s2aO+fh9ra2B5qam9M1iGJOcDyAJwoFguhsuBZAxYW5H6fTSRnQDckypj+7nFMUSM9O13rauzQZbS45wQGLHotLjkbC1nsaFscMYImGSZYkikUhomGCMjDRMUCJgnR4wmKRHf0l1SHKVwGwrjI0faUoa3VQBWyZOmPWu4Yqvr9r1ya2nv5DlSEHQBMmrHCkZPTNweQyRZKEi33B2HQAQoqmCQ5VNwQ1wgYJBh6IWczVDLDNzN0wB8MfAn5Dww80dPyTxSic0+IQaOXMyeMPPV1TfUdKiieddUJeb7J1HSucI+EQrufOJJKKT1nEDTVwV6YC1tou5woFWBG9defO8zQtkllX22BxNzLARQTQYLKxPk1MTBr6RywWpoCvn/IKCoKpaWkVXV3dMxmIeNLifoiLsXE/AwfO3JRgTWAFkiAUiIY4W5TlL5FCTROnzdlo6voLQnJ445539/SeK7T8qPc42wFIhG+GGI1GS0xZXqzr6nBRar3UNB1TDN0UVRUzjRYXq5iDiQMMwIePMZwwZ4OjaHpgkcltT4okM/T4Y5FYP58vQJEjyGIEJ78ry+Zv9h3Yt+P666+nFTffdqMp6n9xuuTRuMCD5/G5mNXYwUeHzhleQIZKbqc3Bs7pT+GRpT+gtz+K1PZvQ4kCFRUVQjQaLnR6nKI3JQlWzyhFMblZnAx6AOsDZQYgcMgMMG5Yx3Jy8trnz5567VPPr/4O9EXfZPGd+xj/jwOQBUG4mnsl9sGho4iirnlhhR0jCMYYSZJuNwOu2onTZm+VJXOL1+l5y+dTqsaMSY0888y5pzuyKMBUOFvKvOXLk72RSFp/f3AkGnC8KJlLMPAXYB7JUsHaMtBAHwjOBkCD74wmACFu5T6IWSFwJmhLoUNTY/XoJKLDIUVFU1wfikb8DB8Ol8N0Sc49/f2BRtP0wYhhCB6PqlZUNPUcS4MLb73VK/t8K8Oh6C96en2wgoDzgSm2u6OV/D4fxDGT4Cf0fjAY+xIEsEaYYgFqdjlHKCBcsGzZsv6A75HOjp7iYACcNfoac84iRG8H3DWYC2YORwUX5IEiuqSkeFNGsuuKF154obeobNzPZUm4G5MTWCF2oodGCNdbWMR/Bo085spFcNIiOCMAkHVf/l2RFIh2IjpadBuwbBekuHWC4NiJCbh/5851fecCnQeR4cy9DnQ5qYYkjQfxJzkdnotUVSslQysGwqQxoEBeJs2EAhBcBxrcEAQJ0pa4D19jDqfcGY3GNmB/L2aWNtxDlJ3ejhSH3lkfiwmO7m4DzmWRT/t2d9zx1eJANPg/vv6+CwP9falgs+nggUPU2NQAmR8WVtPQTEFodDrd+0XR8aRTTn6npaUCPPuZL7fccsuNCxYs2HLXXXdVn/naDM0azF48f1ZLbftDoWBoqoUbAB+eeBzQCbHex9SjlnjudnsqhhUXf3ntm2s2AqTM7AkTkpKi5v0wWlwNBBoLbh1XmRDZIb4xclkjjz8AOEAmBic+BDOIxR9Z7Dq+I7SHFAVPxtV4bkiQ5DqH4qgDJ7YB3NfbKR5lz6ZNm+JKqSFI4jMGQBCt0jTThHlTnw9gWQIT+RhAv8PQRQeUyYz8JMO6EItGQmieFkHQtuimvhcTyjY0WBScy55oNEnzeML6mDFjmD1lYftzL5DchEceeUR+7Y2/39TSWPe4IDvJH4pZrDdEQ7DlEctMb6DOAL+o0+1t8bqdm5yy8RzquXbPnjMjy7/44ovDnnvuuS2LFy++9fbbb3/r0xDGrPhNEmWPx8jIFyhrd0gQrj8hjTvW/iYpZ/FXA5/mOYOuYZUAzItnRykqKipUFNcFaON/7+vzFbMFNCk5jbJzc6H/g8IZXEuSWyG3y/UfmOT+iK1ucM3ZSAJraiYmzUncV/BpJnvSRVx7GQAlR4NpDWZ6w+lyjFOj6liMAx2KaklxyB4VUIS+NwBODH3YB26xjxoOs3JbRdhPCH2uQhLFHfj5ZS0SeA+i42dtg8GvcMr3zxgAYWA8GgoGb4vBZBBWY5CeDPgHSn2qKvSD6dkAQjd5HEqVqoofQOrqqKjY9CER6ZRTZ9ADVsCDOicn575DVbXfaGhuzfB6k/7U19/Xi3peAgVTMfRNLrDiIrghWM3QKWW2qknV6E5roCx/AWC0Ozk5uW/dunWnZYDNnTt3SnNz85vZ2QWXffDBpi2DXuVDu6xwHT9+vNwWi7kMX7hEU6TZmWb/tClJvqVJyU4jKSUbRqCk+ki4/81YqFs0dHhvQvGqGRoGlaQ7UwqLIGRc2B6hLbt6XU+DFFvS053deJAOfdoJQWtwRVJTU6djMH3V4/F8FV7op31GX0ErpB0jd8gulystGAwuAFhcBvC4BEHFuTFYtAQTvvMQuzKzc2jS9GnwAWpjriUkm7GDcD68FvF/tYPf52T2c3MnedO9QqEqaIYTSifwQJdAsZ3scrvyNDIWISQEPq9yLixrYIigspYh3GFaECGisV4SlQMfBbcAwaxEn9tBhvQuOKW14JyqAaKxUzU5n8w7nujcMwZA8+bNmxALh6cEYjGNHCBfRAXxnRUUc7WdabA5EbH4OMSZOZWVtVlvv/3GKv4+cuTIbFVQZiqy8zKnIl8ci0XzMUBdCCkDS836Asxasgs9SNoPMfEtWM6e0xShsmrHjk6+/lSVpUsvnVhbU7M+L7/00o0b17x/7HOQTkRRJbVA1eQCsB3j0RHmo66jcN4kVXEmu8QYvDerKV1EOArcxTApW15jJht0WCJgRRyLC+AEFHR/7NB2vZQOBNNJMfVDmOy3wpt8p6ZH18Fs1Bbu6WkD0J0QfNPTs27ETe4fNqxozu7du4PH1vdUfZ8wYU4GtMBjBEWYxdw4dIfjY5HQOEvhDN0OO5uCS+G4PxP6PoFFL7A+8JTXfalp6d9LcuY/8cYbfzpl9S2aMCFDEZIUMRaapqqxJExoo8AZTYR6cwQJcrYsimmwnKVJAoaRgxlIAdKDA7pS6hdE+T0oCNZpZrRC1vQKySs1n20+R2cMgE5VhzpT92V2O2oqI7VoaAq05BdjdpzDA5r9j2JQQgJ8LAUjPKnZfbYSnXqtaGh/7+oStrW0bAt93vX+7ndvT37774c25eblfmf16udeP/b+P//Nr+6QJfnb4MwwAMVMAKSC0H5m/KF6AxQIMZonHaIcwQ8AsjKRoNpAHgtWrQ/rlhAMoKcArkg67YqVUW2sCDOxYOlJYrEIfD7VZnCG3RgRm01Ne/z73/8+gyHf6KgysnT8CsUl3vPNb163+K67Hvjc6TH4YXPmFLlVNW8a6rQsrAsLUPnx0VgsG0YGKQwfH3A/Fqg6WFUjCq3AoPdlp7wuLy97cld315j8vPw2t8P9UmZO5jOPP/74p9YvDq7TyeyXlJS4HI5UiHZmututFEO8GyFJZia0BQvRnmnggMaiTcGIO4g9uKE9YrGsEa37PsTGClERn92xY0f9yTzzVJ17tpvhT9V7f+73HZhZ2Bf6ALyyn8MnD+ybADQrTI2mmpLo5I4Ndj4fAzlfUsx5DsH4TkaGfjAzc+KLUCq+un///h247kOD89NU9qc/fdR/w02X1yQlhdzHux5+TzMcTud4NiuzLMHhJ4nCoIKOzFhjsfjsUBeHHv7+4TmLYctSneI3drtiYwEXiFSQEIwiQVCKENQ7GWLqNHBBl2HrSDwr8ZlflC9lZaVsbW2lUzSgV0iTJh0chzpdpWniZeAiJqma5oxENCkYtvQzFqeD+phORfFBr7IRTOwqzTDfMIVYS/XBm2KTJlXIKSkpMmimT585XcV7HCFa4kVOw+eAUYWdFnmrwCZApypWVVX9BCKsF/azMljKhkOMuxQVLADQzlB1tQCS222GQlFZx8xCdFYA0Id7E2pml8+TAtOVCRPEKaqpXoXZ9CL07xEgehJ0XrKhxmBq5VmW5XiKSpJjQ8xUfo2A+20U6u5Eh4KZ7dMB0o9//C/p7aGq94EM7zz4n29+6dg3+uVDD/3W6XL+SwKA4qgHcdHigljsCNNcoYJS9T7ShbiugZWwsOAcUyXuQhDHBJ326SV0KFqM73gnIJFgIt4OFeDCoStaNFILluj8++67r8k6OPCHFf0/+MG3vpyanjbsnm//8F8BcvHqDD7pJPc5NEdMh2YlZkyVTGEexOLFEBvPg79XEpvNY/CUj6kR6LFEPF2MINdTFM4cu8Hk/VE3w++0HaNQPsnHn02nCyNGlBcpiibFIsIlLqfQlZOf88Lp0kV+HCFsDujjKPSZf98GHyPaittsLSub/lOHR5+qCObFkOGX66JrOFxjvextDdBxgg1ZKkrGBRi8labi2TBm4pR1EIi2GeFwLcCIXbw/cYkqdfkvP1lR6HR5V/zTbde98sRjz740+GKA3hHlMMY7fBvAmKE7mE5ymlEqjNWRN1JDUSOGKrLPS1yfdTwOKAZWwYO75YgR6jDd1CHkglMycR/Wg0F8w70h4gGKTAW45BxcD96fOXPOCofDuD8jK+2Je7/zmeZEYerUqcMBKeWSw7UkGtbmwqI6BdZWJ3RzFIEjITunsnUVXF1IFlzVCOfaAp/59XjxatmIbB/gLo6t4lD+blZX720ceIGH+HPfwX1nzfvYAHQam6KmZhs7Kq6jFSs2TDp48GE4Sk4wNPEiWFcWwZpWrmLAwpwP9kEYg5l4DHwkb8JAaUNQ5JaJEye+UVZWFsrMzBwH68y74XBYTk3N3/n4479t41dgpTIU5KwZtkrljoz8gE8XfX19qd0d4R9BXKj/4Q9/uBfnCDhX+P2jf8zHwLTOZa5HAqOiCxEARojyo3VUEtoEg3iEdEsPgtPA+cDtE/+OLiaAxhQcCLo0KU1ooTGAGdk5npqVXAqDc3Lg3hYPh2dB/CnKSEmagTtUD76LqQvfPLC/YRgwwIfjJ839lJaX50LumAsl7CWQ+ebAP2ZYJBRMDUQ0OAlquCGc/JjLRB0QsncAAASdmLEOgLvdMIIdDZ/BT2zwe9j7J0+BY/vTyd/BvuKzUIDpLwJcUuAmMtuQhKuhGL4GgyiTk1+xHwhbm2QBcSeSoruRjwgDCdpFB3ABoYymuXPWzIUPDyvNz+tobb6krrH+XWQAaHTJ8pVIJzJ+48aNuex/MmXqVMSzeZtgqWvOy88Xenq7XQsWzB8rOGXYH1nfg78ACkUIU0qomsYFt5CiwdFWSMagRVAl0InPYXMv/hzzvgAWYGZMcCEdv59cukJd4jCqcE+gHikX3AasRgAADo5xKiIFg6HtdTUNj4TDITEYCGoIYRi+Y+vme2uqa515+YV/njp15r1EwR6YjmM33fQv6VMXlCn3fPmenvnzr3SnZSrXRFUV5jiiSCgihKJhFWJdua7HlgNeCvEcORwKCTEOmWBwFR3gvKBbJ/oA3NcWgPlqI6JvaWk5xC4d/DK82eUMUuDY3nQGq2I/mikweuL0sbKpw3tWvxiz9FiYWtORAha+sPgHUzfMvwRfFXZ+Q8S1TsOGD6P58+ZSMNRPdfW1PMkDEExqaW6mTZveg0JYotIRo3CNm6BApbLSEivR2txFc2FaZvCA5AcRyaG1UnGwgoYHDkBogthl6XqgnOYxavWSuAj2Ua3EzA6i5CB6hahfyqCDbvjLKKWoE8zYEH0ExUvVNbVUV1drvUN1VTXlF+TTO2vXUiDgo8JhxTRp0uR2+IFVQD91AHqyJXNmzUlpaG7cvXHDRjMWUy9Oxjv4fH3MTYEeyFAQDiNdrgpnUIhXUPLj3Q1ktQyizp2yTNsjqvmi1yW9fPDgQf9H1d3+7cxQwAagM0P3j33qpEmTvLCaTTAFaYmouK+FD8pYuP57W9vbKTUlGUCkWaEgsGxY1ptQuM/yHmcjSEZqGjU1NDDXg4BJN7W2d1ne2vx92PBiWrLkAsrPzgDwSBylSxmRaioMbKacaIPFdRG4GdivLOCxFEUDvYT1P8djGQBNrOaxiirAZ8iMgPPRKCh5qd45iuqVyXBFSMU5UGKDVanYV0H7DxygpqZmSkbO7XoAUjAYABgV0vgJ5RbQwrnPekeOKmfdDfJzo27xvE3s2sCPQ1pUC3CteplmB/yw2uCcvB6Mzeuy7DhYXV3Bot7xqhyvrP33jFNgoNuc8XrYFTgxBYTpCxbkTR5TfkVzW/u/Iw9xTmlpKbUBiLq7usH5BC39Bhz+EBYShreuQmnJydTc2EgjR4wAO+RAQvUOC4AgtdH8+fPosuVXAAxMimpByg7up/G+TeRRwxQRATwADpiwrHvywLZsWMf2EhbFrGEd/8ES4QbOYZ6JgQ2BKbCowZ8GIlynXEj7XVOpVxqOXyHuwfr0t2eepX1798BCrNHV115HK667lv7nf/7XyjI4ctRo2vz+JtQB4AoRCtyQBTTgjKwUuOwykJ2VaXFA8EbfADDeDYf6v8KZsAE+B2w9PCmF/YlJb/9yqikAwd4uZzsFWhsaAtu3bd2+a9MHz2bk5dTCpNwd9PeV+oMhZ293F8QZD8QQHekg8ik3O4/aWpsgnsUIeWkAUl2Q5JBUzaXQxfMW0LBiGN6cSB8haZTbvYnGBz6AeARnNTa1W6gCCIGBLO4aAFQZBD6C6QKowLwuQNwB15P4kTmbBAfEx/gSvhfvsSjnMf2UobZSAGjW78qyorw5b5PP56cgRC9/Xzd5PS6qraqkaDhI11y1nHp6uqizvZN0NpkjBxMngoNnL0TIMgvYnDIFxowe/bv1a9+88Tvf/Ppqf39vo7+nx9fT02MxbWd7m9r1i1NgUPeySTKUKLBwybIfBQKR73V0dDj8fp8VHFtcXEwzZ8+hv7/2CkAICdOBCkhTa4lVEOloxU3XU0dHgCKt+2hebicVxxpJ0QNIkOUGVABEmLEB96PDpycOKgwyRyQYqIxwHhc+h8GFFdg4Yimoj5x6pFPxtXweGDGLMxLoEI2l13ryyYhJlOxx01NP/pU62xopLS3N0uMgJoz+7d9+QJWVVfTYH5+wdF7spuBwuyglIyOUl5P749ycnIYkt2frn/70B3b8tMsQpoDNAQ3RxssqKjwItqDH5fZmYYDmgePRupB6pK0VVnkEVYegU+HsfYwPZWUjIOJcB2nMSWlyP01VKqlYbWBogI+PAs0xB1vgRIg8UCjhGOemQTYCiDxcWPRhpS9MVqQ5kmHt4hS0UCwrEJGg1EESUguZLB2PdR8AF64RoL+BnGTxShw5LiO+zIuwDSdEPyGrHFHlBQjuzKSG2mpqQ3Anr0rCYuSuXbsJnuWE8AhGRAT3OsibnAJncvkXu7Zv+rcD+/bs2r17O1g7uwx1CtgANERbkMWy1qaGTfm5RWuwVtU7WDjxb25X0t+KCouenz135rh+vz83Auc7JOmna69fQZlIms+Ka2/XLhqb3EFC1EGB/T0U7JXIj4HvSc9G3BD8fuCEaOlepCSAClZ7YF9mEcpkoZS2qONoTyif9iLgdHcsl1qNPArIbvI4dXgX9gHskLsGcdrsGwQLFhkRZIwUUsnXjjXUAtAtyZlkOFxUmKpjYUeFus0sSilIpvSUdKqsqqUUcD/5ufnh7u7OCCLSOd0Esk0KKlYn3ehQXF/v64n9KRTqZu9wu5wjFLAdEYd2Qxo7drxXj1fgzSoz5kyaV9dQn52elUGqqZuTJk4UiotLrPzVYZirs1PzSUknciUZ9MrmDtoRzaEf//zHlOwVSGvZSz2715PY1QgdEnJfCyEsuuilD/oz6W+VBnUGDkF0CloiXQxcjwDRzZPkoEm5KXT7GAN6pX4KqArFNBc5UoeT6B1GSaPnUmtHF33ru1+ny8bqdP2SclI9TpKh64nqPlIiThozehxNnjQVOqtOWnLBoh82Hax56u1NGz2mGYWUZ7IPYVtl5d5zIgNgop3szzgF4jy2TY1zggLTpk0bB9P9u0g1nCFI0m+nTZm6ZeGihT+CaFPMaTM0pJVIlYI0I6WFcmSVatsCtCOUS7ff/QAvSW3RAPFQFOntILOrisJNe2jze+/SX96ppj31GP8uB5alBieDosBrWgJ3g1gq+N4E6I4lZXTRsgsoK3c8ubKLSc4F0HkgquHcOmSqXXHR+fTlxSV04czxkBB12tAI87uRZnlK63B0bGxopFWrVlE0FKjMHp5zc8XWnRy+YpdznAK2CHYONTAUzj+DPmgOHPN+Xrp48Xef+93vti275KIbIFIVsVc163k4PEJB7Fa606TM5BQaWYDcMXIq+TWRorCcaUg0Zsgwx6cXUZOaRo++uok27DhAfV0dVFhYQN3dPdTd2YnQC4kyM7Opo6WJOmFpC7ryKGvsQjrv4qvJDXFOUeC1DdpybIjp66ZxRj3NHp8DFyMHtQcVOujDMtcQ2RAtb6XuGDduHE2bNpW2bN2cieyYC/ILi97pgob9HGoe+1WOQwFbBDsOUYbiIQzg2fAGvhpxYnuQkuHHa371qyjHhyF3LbTEUDaz+RxKZywkTJ1hD/mUABXAFC/7VArufoF+/8pmemFHO6U44XOj8nlW7BZM+zkALJOC0CfVwRkwEAhYHIwaDEF5XAkHwqCVP4eNZc8+/Vd6DhuvKOuFhSuKrDoj85Jo5bxhNLEsBadE8E+g2qCTQtATibC2sZ8Rm+vZ2valf76d9lbsomefe3YEUoUsxUFONcGn2OUcpUCc7z5HX+4f5bU4GRoUJbeB88H6aNobhw4dOspCxODDYk+MQQjK4ZCWTPX+DApB4YyvEJPCdOOisbQgBxDR66fLl19Jd999N91+++2UlZVFLoASQM0K5eB7cdgDm8bZ6ZFDPHJy86ylkMpKSwj5uS3v5tdef4O2vr2Kxrs6KRnmftPAoo4AmvZ+kVr8XkthnWgfTvMRDkfgrhSjlStXmopDUfw+//m4F2JM7XIuU8DmgM6B1gXXkw/wmQfw6Uda2z8mXmn06NHmzv37YdXiODIgDXMdABAN8WHNWialKL00wukjNeqkFI9M999yAT21sY4q6+ppz76DMI03k6+jHQGmUUoHV8OiFpvfGYz4k7kk/pflMKitoRqrh7ppRFkpeWDVWjRrEt00r5RmjYCeCNdzLH0E2bBqu5H4SMW8h5zZfC0XBjWO5+r2+TtGjRr1zqjSskWVVdWz8F5F+Nn29WEinaPFBqCh37Asv1wE8JkAjuS/kc/m8IBdv349pWVni3GgAP4g7gujHVAQg/OhTM0hmL3lACWZsEhhnTUBJvTr5hXRml1+eqoBep2ITunQE2U5k6k/qlGBKxVgFbIAg8nGQbHMuaTGuigNv8EPyRLJxo0ooH++dDJNzoTDItZTh4sjzlaoNShTaxTe1PC05kVqWPjiwiZ7/nboUNX/jSwu/LeQP/AVRPT/LxSUc3D48PvwuXY5tyhgA9AQb0+seuCC5Wslth5sfxj8OvAcngZHxIksfnGxRDE4BnIxZI16kG6jKZJOI93t+A1cCUDBAXfnCyd5Ka9oCglFs2n3nl209qW/wKyeiZita6koJ8vihJIREMu6m2cR01W1u4Fmzp9F186ZR4G2KpqQHqOx2KwIdWtRPoL4p1CVz0k9EPgQOALnR8AS7OvsSc31ArdD2z7Y3rds0fwIch6tQeqR7xmyfDOq+gS2uOmNK26Xc4oC6HV2GcoUgDg0EfqYGRjEG8FJtBz1LqbJcRhOi8PAIOeBzhsXJMSnIDmoMZZMQRWL7CFwFOl0IC4hmh3K6fPzozTe043jUeoOx5B/R6XNG9+jgsJCuvPOOxFRv4y2b99JXT2dFEJcV1JWHs0qH0G3LCijSdkq6RGIdgA7BXjHFv4OhF60BBzWcsQaPK+tyPZBdWKQ1PUos0QCxLsG1PkN1PUCAOx8q8L2n3OSArYZfog3K0zvD4LTGA/u53stLfAkHFSWLV06AqamWzjlBgdzclgD4w9zHRyproED0UTofyCUpUrwZMbvElKw8rr3GrIhqp0VdABhEQcaA/Cohkdzfz9t3rqZ9lXso+eee55279gHxXKIsLIEkb+d8sMHqMiFtDsAHCxahURqBueZpRBEux2+bOqOeuD3w9wY1godVE8GRfY2RAbILefPn/P26tWrY8hdJOKdrgHAaggwfWXQ6fbuOUQBmwMawo1ZXl5+ITiFqzBQ/w59zLpjXwUDG+EMGOoMPgAhSxHNYASdiwqvIDaBcSrVOi2dfHoyOZARUROxQgSOY51I5BNKohvOH0lXl6dTUX4yFZUWU1dnF61e/aoFQsNLhtPIMeMoVYnQLbNzaeH4TLAvcb0O10WHuBVTwtQUcFN90AXQiet6EvXkunFdEgW4eD6Ax8oZDZ3WdgBlK7YbpkyZMipxjv15blHABqAh2p4l1tpQjm+D+4EqRfxDTU0N55s+qrg8nmkypyRlELIKAABcSTxBKrgODYMfDEkfeKDmMBKUAZQkOBgm2BNwJHB+dtDKqybTAtijqvfsI3+/n/w9bdTu66RGWMvCzfX0ncvLaf7EIjgWMqbF9U38OAlgFjSRBbEnBbmHwBUdrke8Nom/CSCCGJYEMLX6ZHt7ew1+f4VdC+B7dGHiXPvz3KKADUBDtD1zc3NH+/3+GRiwLdCZvHu818Bv81i0SZi748gC/QtW0RSgAxKQ2EsCCIlIGtYKdVFjOAk8CzssHim8rA4nMls+s5CuHOclJ0QtPxTGIV+AYg2H6MoxHlowpRhcE9K4QoTjtB6JgiANcD9Z1AJMcccAdgkcTJww8MkAxBu4HREi1+HHOxyOxwFAyLSqX4T3tX2CjqHbufDVtoINwVbkdeqxiOH1GJiZGKQPIl1p6/FeA2uJq8CEY8QcgASco5Ft40hBlLwGTqcZSyunGYfIDfU0+JXDv+M5lo7mi1dOoHlTsqm6DfoipNUYgXzOZflZMM2HWbFknYOPw8WnI8mY30F+WNicvHoquCsLDAfOPXwidljkQ+T7mO5gdCq+buDfamtrdw4fPnwbwOl8ANO0xHH+zS7nBgVsABqC7bhv375CWL6uAzBUw1P5d5wv+biFRR5WsUCUShQGJMYWFsQYg5jzAPpQRBGoW/JQWzSdRriQaxnnIEzLOpnTazD3ApiiUaW5NKEEi7viWAyZFFVwUhJyCnGKV1ZuSxDx2OOZk7l2hxzUhmj3KJ4hQ+uEwPY4rvEzseGvVfg6fgBi1hTd0DIGDvMHp974C/REDyIf0QLsv4ftiIyHL3YZ2hQYPA8O7Tf5B6o9FLRTMSjHQLx6FIm7jgq7GEwG5NPBMOfBzfPMwAZTuwkOCGtxAQNY2azDCREpVmNY/8KQqclIp2AYJvSYDzmDfBDRYhDVEMGFTUGMGCtzolE4MiLXjxCD3xBW6ZBMWM7g7WwghYcYxjLkyFMdC/dSo0+mCMQvL64zYd5nLidR4opufj6LZnEw4poC2ZCI6EgB0P4VINmMd70AWR1dR36x984FCtgc0BBrRV5yGJLVVzEwWU5680TVf+CBB7BghpIzaMzzOEeJcyrM+fDYZ+ZDQFCoDkDiQNWILlFbsBernPYxz4LzFTBQceCw0rQyd3PMtMXL43DhNeEdhgOJ6AXygRPqChcjrxCcDvFznMvBLnNVFtLEn21diEqwhY4dE7Fe9XU49hfrOP4gU2JvSUnJW9j9YigUmo9PLCpol3OFAsd0pXPltc7d94DC+TJwDcsgfj2FuK/dJ3pTLOMzGiEY03VwKAw8cfCB4IUdS+wCKoBDAvBo2PgTa44BLCJIKBY1Usilxa1kAhZGFJHwnjcBqToIuGdEjt6wYBc4KCi1VXA0zDFp/RSJRcinYXWMODahmrwTfzYDlrUxMPELDFSQnRE1DSsbHl1QNf015pT43Y/+yf421ClgA9AQa0FwEisxIGOI+1r9UcvPAGQgtXDoKQ96Bh7e4i8b535Y/BkABPygDYCQhmOhMJTFKgBFU2Cqj1nOieygKEFck3AfmdkYVihDZDOtTwYUFqVY+6Na68yrgociyDHEAMjgwRsvp3Ns4SpZ4thA5WQ2uR1d+JR3cP1ObFekp6enHv2z/W0oU8AGoCHUel/60pfOA/AsRdxUHaxC2z+q6gApxh5L9GHRicsR4IkDQgIY+JMBREXOn/5AiDpDAgWjBpbMCVPQj+Sr4IpE04MNOaKN+IY1EsGRJCElRyo+U5C03osldQwK+MD59GvU3xeFKghgBFDiLeGNnQDD49WdQRDK7Ln//u//PW7w7yNGjOhAHdfhvUsQJ3b74N/s/aFNARuAhlD79ff3Xw0OCNjjee+GG25o/KiqwzwP/GGuhBkI3uIAxCCU2BIAxJxJBFHt0LGQ4ADYZKWTM9VBqcgdnZruIsUFXyA5ctRmIocQeCUgHBTPIn4TkYDeK1FSMkI7UhVKSkXeZ1jWFKTtAKpYHBBXhZ/F0fmJOlkVO/wHnJimOUVRw/qCR8q6des0OFyuB6hGwNVdvmjRomO5pCMn23tDigI2AA2R5gJoCE1NTbmI9zKh+3kVSuYPyzOD30WSRmPtLqcKroIBhwsrglnnYnE7ELFY54NBbW0SlnhGBDr74sDKxeIV++3wfyxaiNyGBiziRzbk98H676IBwNICZGqI/0KCeU5sJsP72ZSQsIxXRwWY8ZN5mWe2tvFzLY6IOS4GQv4+oCQa0EtbHgM6V+KYAtDdCR1QH95hChTTZcf8bH8dohSwAWiINNzkyZOza2pqzgujIO7rqKDTY18Bg9uZU5B3DZaUcCQ4DR7wCY6Hz+c11zGgrU1RZGvdL0sUg1Iay4rhMoAVrGIcjnFYaWwpj3ExfuOOwz7W+NX6tPbxDIY49ojWkYZDhRQIjgb6JaR+RUJ8Bjleb4zPOcIJcW3ihcFIlCWHpoUXJY4lPpHnqAH723G/ZIDmjMRx+3NoU8AGoCHSfgjSTALnk44czRu3b99+wiRdt9199/ivfOMbL2NJ5psNHetjWIBwJOjTysEDczdEGWvj10+AE3NDrIdhIIoDF/gX5lYGb1Y0+8cTzbpmAPSsEA3mvrAlQI8/GYwsFunw7fA8XCNLrpzDh47swEimvwg9kILPkUcO23tDmQK2LD1EWg/6n0mwAGVDCf2h5Wru+Na3MqaOHzMdDoKXv/7Gm//U09WTlpaeRUker8VpYNxbAzsuiMX3rdfG8YQlLEEGCF7UB+uWDsWzLsC8bkFY/NfE9SyecaQ7ryfvQIiFyVwTgI6LAW9nWVABZNBBweGRhThgiqWEBuRZgMNAxMUSCXmfgQobG9ckcFypaelLf/3wo7M8CrVkZ2cLEDv777rrrn68+xb4P0GyFBaWlJSkgSuy1wqzKDl0/9gANETaDqEIOdDZKBC/DvvJrPjKV5J6Dx1a2F5Tc9t+U7+kuKTEk5qcTIH+EPxxIP5Az2NxMxjkzJEwN2TJTol3xiFLvEqwIQwU2IcnDzABQhWcCS30iOMFH0UwhkQRiGZu6IYk8uF8DyAGotUAZ8TcFIOODvDhR3JIBl8usFoH4CIMrNDBVWAujIuKgFgWyxiQDCipu7u6p1XVVD03c9rknvz8fBGhJ9v+6ep/+vYTLzyxa+rUqTtAB7fX6zUAQNb19p+hSwEbgIZA2y1ZsiSzubl5BRJzib29vechP07J97///ZbfPvTQ73y9vcuppzupp69X2LxlK7W1tkKZnEzgGqi0tMTicDhOiwuDAy+5YyGCdYQPJnaAD0AM8CtW0MbhHwbAh8/i+8QALB1IXBgRM6hM6WE/adx30EnW7fAd7IzJfj8MKvjH3I+JXNDGoHPZ8ZALry+Pmln1Y6Bqa2+jmpq6wub6msLW1pl08NDB8T1d3emLFy9+Szf0rI629kxwQ+yU+BS2QW/Ad7PLUKKADUBDoLWQ9TAdqTfGBOCjA0+ZlPyyMXlPPPn0t/p8wRv7A1FRQsbB5pY2mMzTKIr1ulobWyknO49SsdZ6Bo5ZLkEWZ8KD/NgXPnIswb0IiBdTsYKFG1YtCFS4gC8CMCE9qyakUZ+eSgHNSflYHdUp+QEvDEOs02EeiXkZ+BCZDlIRzepgTgqXc1Qai1jMYyWKFdrBABX/weKAYsEwVe7bT3t2bKf0VKSL9YXI5/cLCAe5orWr7wp+RsDXy8B2/9KlS1996623PpQHKXF/+/Psp8BpByCYj8XNmzcra9asiZ795Dk7aggFtFpWVmp4kKFQNWRnqL//D1iBYnQsGgNPAW4kFIXzXx8YoS6L40FQuWV9amtvt6xbvHrFiQqLYHG/nPgZltgFUUnDFhfBBlJoAIp0RL074RGdisBUQ3DCDA8RyrKYxzkgXnsVpjNgFVZZxWaBDt+WEYgV2czpDEJA5qj4K2/AFSsxfWtDA/l9PoiPMQrjvSqrqyzuKSk9HdcL5MG7DBteyulek/BeSU+vWBG4/plnjqDaiV7UPn5WUgA95vQWp9e7RJEd940dM9ozcuT05srKPZHTW4Oh9TTO/YPFTae0t7feWlff6Ha43YLT6cppaW2FWohDHcBtBAPwQoY/DkYyexrLipPy8gvIjUUD2Qwe9++JcyKJAX/kk31xWIzia7Hhn4TI9lFiHblE+P5AZEr8prPpHgDUriZTHxLZ5yr95MTqGvFFn+N0Zbce2dSoTs2kBjUVoRsw2TO6ADxYx8P7/FWCWX6wVzTXs62tFcs+d8EpMoQloPEZBdDhOHNIWOseJnokzUdMWhRLAxUV5qfAH2j8601N00YOG1nT3NbcM7Ra1q4tU+C0A1Bp6YgrBUm+B9PrZQibvmrsuHEZoyaMb67cvx98tV0SFBhRXj4sJT19RWdnz4+62zu+1tPbn6NiMIaR6oJXmVi25AJqbWlGitReWKyYmeR8OnHfHla98Ln5efkWF6Jr8FKGkyEP/PigHwAbRiHrSj7O0MN3wQDHicOkdsqSuiFMwZVooEgAFk1zUXMEKXvgcJiMhPZeGSk74PPDglf8H/Q9yLhYEcU68jEAkAU48V+AmDjnSLGUzqx3wrOh26IOrDkPHQ+1Y0l4f8BvKcgNvJOAFzZxnIEyNTUNYmU6gcsT6xsaR0Vi6izR5ZyTkprVSmlJ7ZHeXpuzPkLis37vtItg4ZhmGkj/AFbdqxjCRFmRJiLV1T2XXn3ly7Ig/RE9fMfLL7+MpDLWeDjrCfg5VlDCUsS5gqLMVmP6daZmLoF4lMNJvzBCAR5YZQIiUEdHE4WD/fQOuACY5ikzPYUgsSCHIcIpkCqVHfw4ABSKWkSkR6msCLmaoez1+33kTUqOcyPHVpqBaBAYReG/GBSxfDLuiYbCFgcqEYHqBkzwyc5O0jyInA8iERkASoTOiNuUIQy2L5yPuiAtB5YYO6oMBh8GQuaWuL5hcDztWIGVLWARRNY3NjciLg3Br5ajpEQOxYEQD6ywChBKTU2h8okT6c03Xsf7quRJThG7e/vPw6NfdopCZV5ewSpFkV5iz+mDBw8ifN9eU+yoRhj0hblr5NuW+/r6RCx/FHvmDIiyg/vEoKqdut3yKbPucTodP3U4nALHKzkcYK0lGHLR2WAN0REItAGd/g+wcrz15JNPtp+6mpwVdxYBOnkQP8Zgdl+MuKnrMCbHsRexCe6CiwkA0hCjFYNORAMng8xgFifAIgtoxKdgzMa6wP34wGGMhngmJ6dlAqg66Ysrb6PJUyYjqDRIsKKBqwiA3g5LL3QYcJjzGQAfvhkrUyIAlKXyBzTVUYkFBVEPmNgZMFicUuE8WBnIpU4sr1ye3EdZLqyigevZv5kV0BK0UhJEtxf8M7Hm2LDDPDZzO+x8yIX32SGSQYYBqB/6q9S0VEryeqkOie5fW/OqxbH19vZY50kQ3yQk1/e4PRbosp5Jh4sBMihSZk4u7ojvcTTDC4T5/jHQYxcesQYK+BcCklTf39Bgc9ig1PTpdyoZGbXZJvoKOhRyiqvn6aZQCP+vX7+3bh1bFU9rOe0cEGbp3dFoZJ/TIU9wIFbI6XKShIHkwPriGICS5HQtQgeaDT+WXdffctM6SZT/+uQTT5ww781ppdbn9LDCwrGZTo88B/LJYtXQF0C5WobcPJnIumMxG4wHnFcHAZgUi4RJgaCMGR39BdYpDXFYGFn8G0DoDfjEPIrPA4gSHw0geRScTlIgHKbCYcWUk5eFocnck0C5ebnk6nNaq5q6nLw8MvvpxHU/g1+LZyROxeo34OmjImSCORoMeBaiTACjAYDRADBhAGQE+h/miHAFJGqr6hYXE4MCO2S4ePFTS8a3AAd1SBQr/QZ0Vxq2GLi0nOwcABByEEHBzO9ZU1MD8bIJnI9Ms2bP7mxtbnuqquoQm/PmKrIwgjklpwfL/IBOQVjE2HTPXJLL6bTWL8P9HaDPeVFVPw/M3+1Ok/YXlJT9XTMjGzrqW7ahHv9wYtqyyy8fJRqOhUTt89SYPMFUjVLQP0uFTo3dKMB114Eu5z4AVR3Y9VZpafkSqCCvjajhy0MBYaHk9nqcMjqPy0FhRSUHpnGHosxyisp5mhC7/eIrr34y4Ot71CEIXW+//XZzoiMPpU/OZAigmKeSvBySxMWIjyqBq7EiSiLUJOD+wJkwVxPBKqMmlMACOB+ITlgz2XglNSWrBgNucW9PTzqOrQJ4MKMSxv6fERrWPnLkyBEdHR3343sScxlJqSnNySmezIb6GldWZhYABOCA0ZoEEYyf4QdHxDPPYM4nQUsWuxDFRQEpGdfBtM5mdAZGFAOe0VbKDPw+MS1IAlKuIksHIS+r9Tv/YaBSyYU4eSzAjOeyDY3N7Qx48d8hE1lJ0rAoIjp/akoawEPid7Xqw+leWQ/UBSW0Cd1WY121s6ioeP3ePdue83ocYwFSjwJcclU1poIDKnPDMROcXzcU8SGA9jBN9hBCVsBNpVnPx4RXFI6EimLh4GKIZuH84uG7FElc7ZSUlyorK08Y0mJVdmj/ES69+upRetSYgRa4HmL5eZqhZmPyl0FrgQOROUA4nrESVs+Yetr1wYn+cEbJPGHqzMlgxb+GWXQ+LCQlYIIgnQF6MJBYORnCbM6mYifML8led5/L5d6AQRTFQFOdSUm/mT5p0rYHPi4y/Ey84aJFclmD3yuTf7SgCMtRhYsxEqfHNIH9i62iYNZmQGAugAcl9nkUdsPdb5PTNF/QTPPNrq6uFj756aefljZs2CD/6le/Omr2vuKKK4YfOHDgGQDQTCiae2Kadt9//PSnb7+7Yf3fsIjgjHlzFlBWVi6FwUnpeBYP9J6eXktflBCJ4rVhVROLY4iOB6dTJjXSRfJ2wAf6JZvWUVhsQtpD5Hp2UEjIoGQ5RsNcaB9Lp8fWMIhKuD4E4PpbaBHSsiYT3gMidlz5zIDH78vhH6gGJhyXte4YuBpMOhANEaz63qb3OS2IH7zwlu3bNo2IhUIl6RkZPQhDuWnXrl2vo63lN998071x40YdYRrT4SNVDH+nLaBBl8uVvBI1uBYDazy4oiTJ5ZbdbhdEP4miyOTIuibm05BwBPFmUhB1eRVc4B9N07s9M9PZX1FRwUnwz/rCupvjVRI6QVdycvIwfyw2VpaEO9CeF6gxw4NIGauP8eTGgKOx4h8NgHfXohGkjRPFWk1Xf99Yc+gXx7vvqTx2hC8+lU/5BPcuL5+VixXI5xq6eT4IcgkqVoZuwlpOq8iSSXm5WdAR1EGhGsCgyqTMzJxab0ryT3PzCraMHjved/+3v1r1CR51Sk8ZN25cfkgUx0qqsBBQswSjfgreJ4klEOYE2KzNOhPGGsjfFIUiFaUNnWUfslBsFCX5uY7m2l2fpJIYjOL69etXYYmeS9GZmqHf+RJSdqyBc17mgcrKV999b+PM5KQ0mjRxyoAOKR6awSDgAw0tMGAkGCgskln6FQzQYUIbXe74AOMVxyDi4AdYo5gXisLHhxXUUBLDF0jBmmIIzsLvcZACL0P95KVngvMpJCZBRY1rBol7DEKsLFcUiFvQ6bB45nBg3TCPmzrgt7R7926syOr9/SsvPXvnqFHl47q7W54A1zMDQLMR114HkGhL1Pd4n1CmumMxaQpW7ViEIbYUNTsPdE0GFuE50Jmhmjo4L+jN4hwgsFCUlf2SpKzFO25A42xLblCaKujsBKPLrrz2or4+30w4JmgaJi4VonoEk7RTcZpuj2tBSpJ3um7qucyp8sQWQ6pc3jgUh/scGi6k6WYnQLoCwcqIKxR3OET3xkOHTry4wfHo/HkdO+06oBNVfO/ezaxwfmEFrXh534Tq30SN2BwwhktFwVgEn5HhOhSjUaSJCEV16sXqnAVFJZD3vaVuj/eXLS3NXWNGje7/9n0/WHVg/4G3ivLSd8BHROru7g5hpkSymlNbysrKUiWnZz7se4ujprFI0PQS6EuwTjGbkJ1xBzz0fFa6CvCjYeBRY1ovBt8WaFbWYAG/96OKWeVvbuo+mZqCI7gK4RmXBiF/QOy4j8GHr3/33Xd7x44du7l8zJiZO/bspzD8aTDjxwccfudB7wFngDrA1wadGAruRGGdkQkuJ0zJELlgySKYw8HRxLMqsqLZiSWc2f2R98G1MbBali8GIfgAYW72Y2WNKDyhZYhvWC7DOs7gxhtzITI4P4cDHK4VWcaiGfyZoNdhM3yyx6llZaY8zRdVVu7djxn9ZtT3DYia86B0/zIOP8C/naiABmz52sRbQcHo32tmeDqCZxdGQupFejRaDrHNIchuJFnDIoygCfqWBEAsx4Ath6L9dnBn9eowfdcwaeT/xcL+d7FCKyf/PyvK9Tfe+MX29p4H6+pq05iWaWlplmXTMCOW9TAK7iYYjoILBS8KLpPToGh6rE831G5McKCJWCGI8l60Zn0kKjfW1e0948G88V5zVpD3Q5UQaMUKcdzevTmS5Fjq9Kbcgk5yYSfMtf19UDxiEGVkZELRmk8FvEBeWRnt3rXbqK2pUXNyc1pSU7yS1+Xogdz/lsvlbJBl5+OPPvro5wpGxcXFpRBjroP17otIfTM6qkOjgyJDqS6z7wpmW55pmdNg0QcJ4CNOh1iPDvBqLBZ5GKc2YMCwSJWQyj5EhI86cNFFFz0BELoVYRq8eN8VEF1aE+evXbs2a+/evc9v3rpzQcmIEZb/DKdcZQ6EO288GT2z4hD4UMcQgCEuYuEYhMQMLNVzrfM9ckgBfI/n8Unc+6M+eQHCGr2IVodnAJicuGdct8NWPM64yGIfO0haPkHgjFh5zOI2i3579+7DNbEXX3z+uasHPUPCQPtvcHffQaL9d6CgXjjot0+6K+IeKRBRJ8F/6Ouwny1RVSONOSJWfPPGYASQg1MnAnlRGwUzBbytUSG0FcRheGjvxMOOsIuf9Mmf8Ty0r/eFF164AZzuDa1tbYv6/VEH6mQBeQbr9xhsWDTmiQPcNVsrYURoVkThoCzIz0QVdb2TqAcTVA+WcOJ+xht65tlRzmYAOopCy5YtL/CF/Kubm5umdLa3WhSMQablxkhHQxQWDsPMyln9PNZg51k57O+z2H2w5ZSRlf4zf7/x8/r6ppjXq4cxs8YwcAU0CmtQP0mDCAUFBW7J48k3dcccLBFxlaCpi5FEPYMd5XgWl5RkdAYoYWEiZp0DBjo4XwOe3sIuDPx1kqQ/L+p6BQJFWRnxmcrKlSunQO+xBiCTAyD7lc/n+xZueNR7/OUvf0lf+867q1JSM+fl5eeB40F2Q3TQOADFzfksYTEoYUFACmDwAZ6Qb96kVC1C17k2kQexXvpJAtAhbTi9HmUAYjcBpgXAJxgkBQOeAUiBZG0BENrOCeU7AzaYODpUVVmXk5Z0/mOPPdY4iDgCQlEuxYTzNNpMxfWzIYYfGPT7Se8WFhaOBke9DMvGLscAmAwzP4ORk/sOi6AIcYGuBH0LnCq3J5oRC0uLm8A9vCoa8muwvVVi4mC28XMDpJkzl2RCYJrhlMQU1IgZfgAAIERJREFUXYteBp1dKnQ6amnxsLI5s2ZN33/gINXV1lFnr8+ygDIHKoOeYOB0LL/UiVi5PVj4scLlkN5wSOZOiOUsqh7VH06aUKfhgrNGBPu4d4XOOaCGQ70aWMwUbzKABcpPCToNdGL2j/H7+6mzo41cbi+lpKQSFJd0sLrWUmBHADHO1o5vuz1JF8pOyM6k7EdgY50E//5J02dXgwXfJeqOmgMHthwWgQoKpnvSvZHRCEZIwQyoRjXW5ZgLwDzMhVhYzAv9SegArHiF4wtYXnAVsX4rzSnSYHRi3j/gcLoOQef8WgydoqeqCu6Cn1+B5/BSiJiZAB+squx4C3f+UGe7+eabe++9//77olH1RXBgWTjX0gMwAAF1DleGxS72qUlOSgIrH0GgKegpOSgggsU3UO3jqjxZ9MKGe7J+IXE3dsfpowyY6SHmIHg1Cl0Tcz4MPgw8XAd+Pl9niYW4klO+qlqoLycn43uPPfzwYPDhOpoQvWpQ/3ZszHFegmOfCYDgE3UI9zg0naY/0ljYM14wjfnRsP8CPRaaDEPICAZJ9pcyBbfFISLfkQML1C9EvReakn6PabhWFZaNrkKrvykZ0b0AxAhX9NOW8vJpk7DU9c9csrwIYI3XRT5tcKaCGKSqmibq7fJRAJ7h/fA4ZWMCF+YiZaeoexyOx8DNPZibnXoIk6mlUPy09TgT1w0VABKqDjZcFomFJnFYAc+eTofL2iJg7XlWZ6e8wqJiamyst0QK7uBpaRnwEvYhULOfuSQRMvEk7vyGJkzjgWKZIaNGGBFK/aQYNVOmTHsTt4GZX8LsE16omeJUDC4HNjzCSMUs6EQcmyU2QNFneRyzOVMLg6nHaJQFrQKVeRtraT0Ny89BzKCBtrhO4nNtWwALx0HNhwcr5wc6CADlJYuPWy698MLNa9957yGM8h+w2MXAw7MnK8LxWhZs8XcLlPAOLI5w+EXU14dzcEsA/PEKx3TFfzv6d76XBn0OL+8T4Rg1OD/C8dRSADN3xZyiVfB7/Lk80ER4Oif938Sx455/7DgPQ91aAFwHQOtStPNVcDv4bVVV1VHWwONc9rGHthEGbDOxwn8XlNx/Eh1JRaKsLceAvgyTyDRk6PcwSLIVjbk0LqBhdlSL3W5ENR00uAsKlx2lpcV/d7k8CFvTGqJR18aGhj0f5/QoYZXXfLdhqKrDWwQT+e/hkTzVAd+mVjiMMrTn5OZCGZ9CLc0NyLmtgiuDwyfaj73cuf8DjFmnGAvHog+1dHVVIIZ3SJaje89Z+grDhw9PNw1lPao3kXU/THyYD9EpoE/ArM0+NFC+WEATDgctlj8L6SiSvB7ywLuWQYIVrVaCLhY3wAPxfZi9tgo+OD0omtVM8rpMCT9gohHY1Z/FFsvAjE6o4DmGDqsDwiASibxQlyYMq9VIifGyFvRtBGfSf6rJePXVV49rbGx8HYNwGDrj18EJ/eqjnvnzn//crZLyG7zjbSGAAhfLAsZ4gMI8CDv3MT1YFNOd4FYAsMtCa2mY0gK/HtAK9GHI4MHBJQ5ACTBhCuE+oClbxTaExtOr/WWw2PspBeDDv7Geh83xcHviy63bOKH/cXs5Eb72dNjtvf1n9957QoUvAOJ21Pm3EMPC4FCW1NfXf+SyRPGHfLq/bEkzJGlcTDWuwktdAe5wSnySi08+IIVFP3YSlViRLsmmF30tFoPsLQi1hiCvhhHg5atvun7vXTfdZC2dPWHCeXmwIl5m6OoUl1OC06gxxTAkTRSkJNw/pRWBuP0c/4bJ1Ol0wzEzjbo620mFOMgZALgPs6KeWyvRdxUHgmAU5SXV5bp9qHp6n4C5/nQNd6qu8npzsQCV+CWQPguWJistg4AOzfusPGXLSh/c9tm8y6IXOgSyAvbFdRoAHPY3YbOvhpU7456fPHlDFWzJFuhNsNZwKlEDC6ZH4KgTVQ0BjkjkcEPfJ1vHAWoRzEJhyGLhEHTJTRhra6A7+M+AIvyrr6n+qZCvvxLP/8yz8iehITiAL0CM+AKUpn5wBt+DiHNYdDze9a+//rr2r3Nmre5J8hTLcmiKGqyD0IN1vhhy4YzGYGoVfMh4sXAIVhUMLlc0QAKi7FUsPojICxh+4avNp2Ic8HLN4Aut6+HQDK9IkfojJjVrybQ7kkUdQSdlQExgjSgPGC4sfjHYWUs4u32UlQ4/KEP6W//73V988Lf/EZctrDOP+6cLuqrroUzNAhdUC+7vhFzfca8+iYPgmjV/f39ryO9bW5CX/Tg8uyskAblH9JhHi4UdWiwC1yUTYhDcECBqMhzHcBJ0ZcgoK2aCUnP6+n0r+7p6L1y27NJYMKZ+E3Fs/wUTxa0A6ZmAqRGaKXhhXUw2BYeTuVEEaGMSYL0cLIwgVxQ6MxV9Dj+RC5Msc9wcYMwe5zwRygApNuhhG+uSHZme4qK3g+3tQ04Ei/eMk2icM3Eq9DFZTm9kExpjJBymrEbhlVtYhOAGYucqgAcGA8CJGxEDJaYONB4GQVpGlgVAPBXzgEsUFgGOKoji5gHCA5JnOdZZsD6AC1uKUlPT+xWR7j9YV7m6t6Wl4ahrT9OXlStXugA+6/ft2zcTwPMSOK6rPumjG9972n2gsfNnhyorvtwU9mLiTQc9WCw7cgfALcVA49ouLK+MwFcv9DcOGd7Rio7kY1HQg2kmkAuKad5jekaQZTEMe7wft8JiPRRxZVBuVhGlgXS8qI81Y2NUJRTPAhKopbl6zfMmjH5sfFnON8fOv+MTWSdhyXoW7XEtHA9XA4xurqmpOeXc5hHKPCAWFPzfKE0LzgS3eyHqsQyvnisiJIVX/GDU4HcFylpcnoyJKwXpcYEQVixeIuka044JziIvJ4rDTAfdmxeiLxK4AXBCWJ+tp7uDIj5/HHDQwRUAHYM9P8NS4INzZKdN5ib5MNqkITMlc97u3ZubjtR3aOzFR9dZXtfy8sxwR4/vEFSlIzl2rLuzG40DwQDmYk5qxYGsHDIgMIsKNt9AcCvPIjGcwwpQlzsIHYTbAqgPgc4x724NrwHRjMUU3ngA8eCBad0JEWDCsKKRrwGAjrny9HyFZWQqthnw/YmhXo+czFOHzb0+/Lv/uvs3+6rar0ktnZAnImbrCBzH78QWLw1pN8RANxTS8BNCXkQgPEAZRh8zCScxhZgJgsk3vktONWjdJyK4MKAgFkNsNaJ9FJY5H1AcgLhB2NrGnw4HVjqUUp4uNH3fHTv//k8EPvxMmNE3YiK4FqEYE2GSH45De/j46SkPGGjyg3jWwdzc3OfhuDgK4jcMEuI0vNTNeDdXdk625VfFNGJRClZW7KJfcmc8XEADFJ5AeXEjJglbTdkNQcWkyfrKMEJlmBMCxwTwhx8Zi//Y54BczgHFBoMj97R6tNYVDA5+yOGnne07QwKA5s6dG61rbt6ze8+eSzV09omTxiNxeS+1QG6OBSNIoAWHOFawgvPhmYW9QxmgeFE+njG4E1jsf7ztB4bQkabh2QVKZgywQRIphxcMzFTc2Dx4Ojs7XRj8X4VFZ8WEyef9DsR7On2X9+A6WoeHn54CRuya/r4QcsALB5Ed8aT0IMuXL0/evL/zmve37sl07a2nCy++2JpJOSiU9Hin5oERg+jlD/THQQfAKwwABw8K3uUC7GLyWCUKj2j2keYBJYKOLOqGg1HM6uBKB07je7DYzBxlfU2tnpaesWnWf/34I0XH+N2P/MVk8ji+fQ0DvwxANB/7FdhQ+dNbBpwT2S+IN5ox5/xh4VD4Qu5jTCPW18BIDlqxA+cAmfDJwDG4sM6NyZiY6Ji7DwZ83OvAsTusmDb4wGFCBWUBPAxs/Iwj4MMNwDpRjbwplnA8+PZDYv9oipylVV60aJEIk8NSr8c9r6GpkSoPVpGvzweHxB74l/gtHxPWA3HjR6JhK4seN5TThcBEJOJi7gVWCsy84JTQ6BgK8UZE6x9pzIH9xGw1ELHFwMP3sgrOt1hnw4D8Ii6E/88X1Rx9HBwfO0eOLOuFYph9Q05ZufPO+1I725t+UlNbkw09yu8CgW74pHz8AJw+fbpn9OjRl4NreuJgZc2NPb19UmdHR6S7r1cfVlSEZAQK8AHgYY0Wgzq726m3DwDEwMsPAJfJwMPvzt95O7pwN2IA4hKnL3+yRY2NA0xjtibhU929c5eEmYSFlqQRI0buqq2t/sjQCuuWA3/A+URwz/G4zwwAWd2FF174GkTRD1dn8EWnaJ/jsWQ5qaRgeOn3QJCrMAG6mNtmMLAK6Mk0SBQLakCHw0eY1oMKA0wYeh92suU+KoOThEurRTtuB84HZWWPcELvBBCPT7RY3RbOpZlZ2W8VTy5/qnr37iGnAxoSAASvXvP1t17Px/rll/l8fknFkjO8lAuDA8aG1aiIKY83HMvGLJKhw8MlGQ2HjoBBIMN8zhYxE3I355fhwn95cHBf4PPYHMzf+b5w7Imfwz8eU5i9Zo4LuiYH7jURlowrMUSn5BcW5WdnFTW3tzd/rj4/icePGVV2S2Nj0x3tHa2dAI2fRCKhusRvJ/qcP3/+5fBpeQDgcy8Ut8OwdaDzPgFx5o+lo0a8gzE9p7mpxZWBHEKs3AwA0NvaYfnCLJ4olsWPOcQTFOZ8GIAGFx4gDPwcDCpZK68qa6OR8C8RKmPCIlkc9gfK+vt8l6SlpGtKutQQ6gvFzXODb3KcfQBQFPe+hZXRcEV4Ae9zGvVAXCFTGDdp1eze7u5bRcn8RUzVrwgEg654OAvTKNFfjgYg60r0K6tvAbHiFtjEuQB3iGDWJIp+xVZeHawuvOWtduC4LgY2TlUSD6GBqObDa6ObZmZn0bBhxRul/JzVVVu2HCtR82PP6jIkRDCAgvmt733vXSiZD6FTlwsciwSXfwHKURGAEldGDwCG1QHQMlBQWHMyGlYAWEWxuoIbi/U5nIiM5iyDluI6rgwc3EIMQDwbGRBJjjfXowuhE7FeCE59bIXDDIRrMiRdvAagcDmm+jvKp896BRj53IHtm7cNvvdn2b/77rud4LCuaOtoBpiKdU5V+khnPABPGWj1DQzWOxBR72V9BPbX4tg9ECFYdIlee+21ztVvvDERxy9wOT1acUmJ0N/bXWSquos7Bg+WOBYz2DNI87HEW8QHE3/l9eMhSADnAf7Yi3NS+AXhHIDzNkE3H/EbwV89+egjXbNuvuT/tHerlmp69H9xtxJwcv8jmc5/Liot/XVTbe0fcPnhJ2D/QwVgugciSz3qXAYuaAlOePRDJ52iA2MnTpsuSud9ExPORfAVSsWyQw6eDNmKaoHwUTU/Ai7HVodpyBav+IQXB25OqyuAXg4o+cGLWs6tTFlrg2sDL/7o7+0kuH6BvuDu4XDL4J6WmgorvHLQ2dZ22tQAx77PZ/k+JACIX/AXP/lJza2333obZsBfKYo8HToAJGvXwadAQMBfixvi7g5Q4MKDhRmd3NxMMxyK1Suy+9miwtxWcFD/3heOeDjvMTqxZfFiCwWDGM8y8YGGDsAcUELLat0x8Sc+yfD9ueAOOI99i9j5znCA+5oI68RE7Nw9Ycp5TyBS/M9SLLgNUdw8So/qotYNPuEfDLoS6KAmsZ+Tw6n8va2zrfN4l15yySVOuANcC3r8N7ieolasE4b9BtDt36qrq5/ENYfFRE7tAVHirrwJE7yZ8F6GBwPOFcZiBj6vo63l+3B045VYDQc4SRZDLT0ZP3SAdonnc+IxuMA4oEQVnN6kBi0crgQ3hYyXztdSkzKf+OUv/6s9ce7mv6xh7vD5kpISmNGF+3TV+DI0S5PATv62oHjYYrTa/7TU1+9InH/sJ+rjQ7t9wPQAGF2L308lAHErmxMnTh8LIx/AXL8Vlisvr3nP/YyhIg7IcRA5tq4f9d3qZ9af+FlMWwaZuACLbmL1r3gn477Gomw8vpCfhSejc/MkaMJdOqrG9r388gtDjvvhN4+/YZwGQ+LvPffc43393fVzsAzNQj2qzgsEggtTkpIwKcARsbePkiFmQVeAxsESv6mprVhZcydiuL7217/+tYZf8OLLVizHrPv/cM54OI450Jl5rXHLw5Q/WY/E/hYWrvAF6CQWUMV7Gg4AmMCB8bFjy2FdEX7AQLFmOMjrQMnY6+i0v5dMZdvevVvZ1fXDFx97s0HfH3jgARFxX99GYOKPASghiB8XgovZPOgUYuDBO0+Eb9B/AoAuRJQ8e4E3wlr0Is5/CDFj+wef/3H7559//iickw+OSWfFMW+sLD22AGVMAIHZ1t76jbaWthvARX1r47p1Dx573om+F5UUXSzIjq8gKv8SNKKMpHP9kEf+P9Dv2ZqamobjXCci++O/4PivESNWCSfM2XjPz31FjLEzZ2bKMX22ZMYu0QzlC4aoZKroV1a7D4jn8Qnq+HM46IYuhL5jOQ8e5y1wiPss9xmAC3KpIc+DGnDDyGGJYHHuE6Iaow8Kc5UyRGRCJD8Dj9PhxDpwqT708eclt/zdDWvWHHdCsi4+i/8MOQAaTMsvfOELMz7Yvv2dpCSvOxmL8DXU1cFcKVs+O9BxVMNcejs8aHe/+OKLfYOvW3rZTWVaJDgNfaQgputzTE1zImXBVC1qwDvedGFuSYV6zwIiHnQMSuyFiuPoNazChg/HIADizsIl0VkS+0xc9gNxwCcEnTGESOxK6FNedCvKU9u2barEz59o1lq5cmUaAOepnTt3XgSuZhUGHCc4O1wWLVuGIEbpLnAsl2JAFkAvEkZdXgFo/LiqquqE3MThG3wOO2UTJgx3O6S5gmqsBdgd5ng+ya1LsM47HB2/oMe0L2Ktsdkyi3KivAWz/C+8Kf2rdu8+OiUGEpFNRbu8hLxBwwBU19fW1j7zSZ7zSc6ZNvv8cfD6mx8KB1aAyZgL3YzX0HiNM/a5ScwbA58ABRaH0MofunV8CWrmrBPXxE9hf0brHwMLMgW4vS5s6T8LB/t2JHvkryFQeQ6Ly4nJjCP0E9ZD7mWC6OyDo22Dx+0+lJ2b+YKk576wadMzH+fE+aH6nS0HPky5s6Vmn6Aed37taxNbGxs/qDp0yBG3QFhxMi3ooFswS76FdBmPoLDoc9zCnMWqVdtcBQWEZWHCebEY7KYkpjhk6cr+SN83oBRMZmcvjnZPwaoMIehJORaHne9YMcjEG6x/GvyQRAfiYwnzK89iOK7Bn6NDksWtsWjkFwf27Fg/+Lrj7d9www3lCD1469ChQ7kAu1vhfPjnxHmLly37tihL3/Z19xS2t7Uxp3IA59wH4H0LwYmfOeo+8ZzT8Ckg5CaNDNddEEO+j5GdDOYggnCbjaDg3ZwbKFEHOCSmgcN4BiC7FO38Nri9KyGefiIlduIex37Cu7zIlZT6FTgG3gLOOAcBzkjmyEMem+WeMSBmWSMmPmz4Lxs7Plz4OojzAB/LgZDvw4CD//DkwT9LfIrBp2dnVk7Gr8//+2t/eYCz12EJbgDOvZhs7mMjALJAIjVtN5VPm2L1oa1bN6ulJaO/0FjdskEsTA22bNvGwMMPG7IlTskhWn3oL5IgSl3gSU3Nrdq//x5YRQyYmy9G3uj6z/JKU6fOK2jrbX8/Go4O4/sUFhTSNVde9eDmbVu3NDc3XgUYKYDeaFIYWZ0AKJzrGTa4uMKIO2284x6pAXNG3AfZ+sb8E4MTp6GAM08EoZvrceZfAwHlpenTywLHWxoFaVe/fvDQoV+CPW8YN3baLP/oou70hoZZMV27Fzde3traQhF/sBarSjyMsfn7TZs2fe4iyZG3OfV7o0rGz4Id+kFMAFORL8gJvVofuM4H4aP9C3B08O4jE8BzH7iL/4QY1grn0EXguqpPtmZwT1DAbeQAtL+I7auYvgoQhmNxvEfdaxAAcVseH3SOXGENKhHCl6lBrOI1ZgUTvmM1mLzanLLUiF9eRbK2NodX/ODYCPY///nPKatWrdoKkZvzfGOVJgUxsvF4xpEjR2jDy0bOeuw3vzkp/68jNTv79oY0AA0mJwZpKfQjjg8++IC9VT9zKSwe+Uw4GL6OZy34H1HJ8KKrN2xY9yLfmBPMG5KrHGpDrNRgzgW2zMCMWYq5sAgzXqo1ZQKPrAkU11uKalzHnTde2LOaGXG42ePTMsmK0m7Mp6sRSf7kgczk/bQu7twIMBPOX3TBGwcO7F96/sIL9s2eu/D29e+8dUvQ1/+lvv4eJyxc3Rijf5s4dexPXnrqpcaBBwz5D3CxSW53yjV4/6/Dh2g6h4CA89wA2v4OuqG/LVu2bOLOXTvfARgISU7XP1fX1f3tk740ItG9qumcDgn4ixCrluDOxcytIPsB2mywqJVoLbSbJWoxE8PcC3gYSwkMMELrso8TcywsbvGGuK5uGEoeQ+DpWzEtZjlbOgStFqDysY6Xd955pwecz1XgeAmi5XJwQDdg5vJl5mTXYaHJluyCwpV/+OUvT0rE/aR0ORPnJUbEmXj2Wf3M9PTchwEhd7LYj6XW4QQm3NjS0v7U8So9Zsy8ZFXtS4feeSS6cTky0S2CY99M4EsuequMNK24jDkjvpr/MBd0hPSsVJThv8SdGwOuHvom6G+cr00cV7wmI7do6pbNWzbU1Va7ll99jQYdUGddbW1+b083ztbWeV2u/wXX9wY4p8PWLX7KuVJKS8cVG0boZrzPV8A5FgLEQwD5Z77+nW9VITn9/RvWrndnpKU+AovbN8AdfWQwMIAnB/LPxdGoeBlEu8XQ42VbEeZoGCtGcBCnA+LGmwrtBYxDk8EhFe1kcT8AKojejWB/K7wupXbsuDFjtm/bfgH0b8AKnlDE5xubqtlC95kK3CTKkCP7/8GQsHbirFlve/HuDz300Mel+vhMzzzdFx8ZBaf7yWf58wryih+F7uY2VkCzSf7/b+/cYtqq4zjewzltoYNeYAxhKxYLYjdNHAk++GLNEl6c2TROw+bMkiW+6JuXZDFesgcfTOabMcbERH3wRUPmJWZhF+SyyC4IdGE0GYwpY2tLYUDL2nOr398phuE6LfcWficpgXL6P//zOT2/8/v/rpouN5MhOItpix6PxwwjeAUcbD4IlKfgO9qLL3QDvtEIHYAAotecSWHheOnlGQQRApxMiVJXaQeWf1U9PZdQhgRLwe1u0yjqxeAmiDrsjo8KRfs33d2/GkuSheNsuL8E2PNQvkJ/CZ7Kd6llSnnlQ4h/KTIPoIh9SZGtF0SfR5LuaKYz37q1vqSy0vIatKg3cDlrZ2W0uIdmiWtDz4L57R4BRA8FSpolux0ZnxF7FoMADOBB0YZ8uT7E/3SJSWkqGOyKHXn19X2nz7a23EU1Blpeox7zd+GJsYPzAy/5NwG2KQsEK9kxF1qzlzxkbn3wXvy5NbN1nk2Nt/59LakepyckynsvRgDdP3PYGrzxeKOqCrthB3oOXoxGJCDaoAVRGICRX57WjnA/4AtMNwa96Hcq5mUsD6DaU20iF9yu9rId73Se/mH4/gNt/Hcg3P0JVf0EoRQNiG0Sk8geR0vvmPcx32Gf1/PLP04Hv98vjUXj1SibcVRIaS8gzsgHcWN4M1EKw9BDiRbKmBrQDO0T76aXyQKFHijoUBKGltSBgMofsay6Ohi4fAU70zALNo+7dh8Sn7E8p1EwNgTQWGhkJQTQguNsxD8yBzFsxDNd5DnBeHgWVsTjtFQiB7wZPQQXOcT87iiVCQsp1a85jxvji9HRyKOSRaxLKWpjga40IrL5ccSgoehaQZFAHjY8canVDWn+VGKIYkpoczkdit1m+3izCh9igPKnbRVe716LLB/WEsk3LZLFE4sniqcmZ75SUuJn/TdufNq8/0B1KDp9UBIKmvH4cFPZC02j5FASEYYYIslDw2FFhjgcaDv4XzIlqKOiqFyHr+qSaEayr8nUFuy/MGLs+B8/qP2NiFQfDD6nMSFUnresCLAAegAmGBUTWPH/CVUdDzTdCm2EljrL3trSxuUBDESvk9VPVLukZGEtjJoP4+G6R0iJftwPNfCUoJkBVmLQgkgLgx0CDhrtrZ076/o7O88tex75PEBoaCiM+Z+oqalpRTnM94TZ5MuR8YgrMh499uHbx/agqPw2XDYvucLJKEzdIig7ndR9EjtptT9thytI6SN4qx0VXE4lda3XYhFvBQJ9FDdGu2a1oZ849puLE8PoZqt0JqsP8k5z14JBZCJAtpxyJCijNq/x5CXX9moaeum+EJoam7bHrUrrzVC4npZhlOSIoDN4ugo/sJn1L//tts008c30ns/3ZF0oGm5Dr7Eqp9NBxmEjzwrrVyg5aVFDmg990414LGiWCDwOIo6rBXz/EK0F562aFl5Oqoy7yrsfGm0LJUHDsIQOGqmnh4YGL2+m67DUc2UN6MHkNKj7RqkI9Mtbi41uk5RULvljtyfrkT6BjpezVG5BVYush671Xzy1FpPIt2NMyGiHImh/JRPTVXeTSBlBhUKy45DwQd8SyB0B3Xe0mKrLfYIkDOL/PyNlrWP4WjflpK3I5pRsvyV0tYmc87KkRYeDQRY+WZJNPyKy3Jl3W10CsA85JycnztwOTzQ4yraZUPIByy/1+4nwzQOre+T8HR1aauGMIn+O/hJHikvsJjmha7YttgEIoFuFZgsqzqbaEfHZPj0t9o6N5VVkeP5elEXMnDWgRcBa7V0RfFcRiYRr7fYSGEbTLnlkO3+72sfN5/GhpSru2kcCyGtQoPmYXS5n0llsO5FIxE+iBbYwMPC/LXLy+fTzfu5L9+zk/ann3gkgwvo6qgT+VO3eYVJmp9AWWe8qk23ncm+mOTUjbUup5Ws0c/0dWcipMkdxqMJd1YPE3TuBAAufnLpSGSbDAigDlPV6C8mxMgLujsLb9QwqLvrR9uWV4HhwRbxv63VOa3HcwQtIcdC0Q6hH/eyd+MyLu3ftooJrvDEBJsAEmAATYAJMgAkwASbABJgAE2ACTIAJMAEmwASYABNgAkyACTABJsAEmAATYAJMgAkwASbABJgAE2ACTIAJMAEmwASYABNgAkyACTABJsAEmAATYAJMgAkwASbABJgAE2ACTGAJBP4GatpcMw31i80AAAAASUVORK5CYII=;rotation=-85;" vertex="1" parent="1">
          <mxGeometry x="199.99999999999997" y="800" width="121.69" height="60" as="geometry" />
        </mxCell>
      </root>
    </mxGraphModel>
  </diagram>
</mxfile>
